<?xml version="1.0" encoding="utf-8" standalone="no"?>
<!DOCTYPE svg PUBLIC "-//W3C//DTD SVG 1.1//EN"
  "http://www.w3.org/Graphics/SVG/1.1/DTD/svg11.dtd">
<!-- Created with matplotlib (https://matplotlib.org/) -->
<svg height="720pt" version="1.1" viewBox="0 0 1080 720" width="1080pt" xmlns="http://www.w3.org/2000/svg" xmlns:xlink="http://www.w3.org/1999/xlink">
 <defs>
  <style type="text/css">
*{stroke-linecap:butt;stroke-linejoin:round;}
  </style>
 </defs>
 <g id="figure_1">
  <g id="patch_1">
   <path d="M 0 720 
L 1080 720 
L 1080 0 
L 0 0 
z
" style="fill:#ffffff;"/>
  </g>
  <g id="axes_1">
   <g id="patch_2">
    <path d="M 135 630 
L 972 630 
L 972 86.4 
L 135 86.4 
z
" style="fill:#ffffff;"/>
   </g>
   <g id="PathCollection_1">
    <defs>
     <path d="M 0 3 
C 0.795609 3 1.55874 2.683901 2.12132 2.12132 
C 2.683901 1.55874 3 0.795609 3 0 
C 3 -0.795609 2.683901 -1.55874 2.12132 -2.12132 
C 1.55874 -2.683901 0.795609 -3 0 -3 
C -0.795609 -3 -1.55874 -2.683901 -2.12132 -2.12132 
C -2.683901 -1.55874 -3 -0.795609 -3 0 
C -3 0.795609 -2.683901 1.55874 -2.12132 2.12132 
C -1.55874 2.683901 -0.795609 3 0 3 
z
" id="mda5c5c9a85" style="stroke:#ff0000;stroke-opacity:0.9;"/>
    </defs>
    <g clip-path="url(#p78fe7e27e7)">
     <use style="fill:#ff0000;fill-opacity:0.9;stroke:#ff0000;stroke-opacity:0.9;" x="270.422117" xlink:href="#mda5c5c9a85" y="629.137609"/>
     <use style="fill:#ff0000;fill-opacity:0.9;stroke:#ff0000;stroke-opacity:0.9;" x="347.864185" xlink:href="#mda5c5c9a85" y="619.696028"/>
     <use style="fill:#ff0000;fill-opacity:0.9;stroke:#ff0000;stroke-opacity:0.9;" x="292.965845" xlink:href="#mda5c5c9a85" y="606.402435"/>
     <use style="fill:#ff0000;fill-opacity:0.9;stroke:#ff0000;stroke-opacity:0.9;" x="269.097581" xlink:href="#mda5c5c9a85" y="608.408292"/>
     <use style="fill:#ff0000;fill-opacity:0.9;stroke:#ff0000;stroke-opacity:0.9;" x="402.80246" xlink:href="#mda5c5c9a85" y="585.385654"/>
     <use style="fill:#ff0000;fill-opacity:0.9;stroke:#ff0000;stroke-opacity:0.9;" x="390.049645" xlink:href="#mda5c5c9a85" y="576.525388"/>
     <use style="fill:#ff0000;fill-opacity:0.9;stroke:#ff0000;stroke-opacity:0.9;" x="361.302564" xlink:href="#mda5c5c9a85" y="561.130117"/>
     <use style="fill:#ff0000;fill-opacity:0.9;stroke:#ff0000;stroke-opacity:0.9;" x="320.548134" xlink:href="#mda5c5c9a85" y="536.855415"/>
     <use style="fill:#ff0000;fill-opacity:0.9;stroke:#ff0000;stroke-opacity:0.9;" x="396.652355" xlink:href="#mda5c5c9a85" y="559.513932"/>
     <use style="fill:#ff0000;fill-opacity:0.9;stroke:#ff0000;stroke-opacity:0.9;" x="312.760664" xlink:href="#mda5c5c9a85" y="619.204146"/>
     <use style="fill:#ff0000;fill-opacity:0.9;stroke:#ff0000;stroke-opacity:0.9;" x="293.105621" xlink:href="#mda5c5c9a85" y="617.715723"/>
     <use style="fill:#ff0000;fill-opacity:0.9;stroke:#ff0000;stroke-opacity:0.9;" x="302.191003" xlink:href="#mda5c5c9a85" y="616.444496"/>
     <use style="fill:#ff0000;fill-opacity:0.9;stroke:#ff0000;stroke-opacity:0.9;" x="260.870817" xlink:href="#mda5c5c9a85" y="612.234751"/>
     <use style="fill:#ff0000;fill-opacity:0.9;stroke:#ff0000;stroke-opacity:0.9;" x="340.669095" xlink:href="#mda5c5c9a85" y="599.854654"/>
     <use style="fill:#ff0000;fill-opacity:0.9;stroke:#ff0000;stroke-opacity:0.9;" x="367.306238" xlink:href="#mda5c5c9a85" y="571.19773"/>
     <use style="fill:#ff0000;fill-opacity:0.9;stroke:#ff0000;stroke-opacity:0.9;" x="288.985583" xlink:href="#mda5c5c9a85" y="580.87567"/>
     <use style="fill:#ff0000;fill-opacity:0.9;stroke:#ff0000;stroke-opacity:0.9;" x="301.12605" xlink:href="#mda5c5c9a85" y="548.092047"/>
     <use style="fill:#ff0000;fill-opacity:0.9;stroke:#ff0000;stroke-opacity:0.9;" x="296.440255" xlink:href="#mda5c5c9a85" y="548.328406"/>
     <use style="fill:#ff0000;fill-opacity:0.9;stroke:#ff0000;stroke-opacity:0.9;" x="251.559132" xlink:href="#mda5c5c9a85" y="566.138371"/>
     <use style="fill:#ff0000;fill-opacity:0.9;stroke:#ff0000;stroke-opacity:0.9;" x="252.923604" xlink:href="#mda5c5c9a85" y="560.849041"/>
     <use style="fill:#ff0000;fill-opacity:0.9;stroke:#ff0000;stroke-opacity:0.9;" x="299.395501" xlink:href="#mda5c5c9a85" y="598.117096"/>
    </g>
   </g>
   <g id="PathCollection_2">
    <defs>
     <path d="M 0 3 
C 0.795609 3 1.55874 2.683901 2.12132 2.12132 
C 2.683901 1.55874 3 0.795609 3 0 
C 3 -0.795609 2.683901 -1.55874 2.12132 -2.12132 
C 1.55874 -2.683901 0.795609 -3 0 -3 
C -0.795609 -3 -1.55874 -2.683901 -2.12132 -2.12132 
C -2.683901 -1.55874 -3 -0.795609 -3 0 
C -3 0.795609 -2.683901 1.55874 -2.12132 2.12132 
C -1.55874 2.683901 -0.795609 3 0 3 
z
" id="me5adb968d6" style="stroke:#0000ff;stroke-opacity:0.9;"/>
    </defs>
    <g clip-path="url(#p78fe7e27e7)">
     <use style="fill:#0000ff;fill-opacity:0.9;stroke:#0000ff;stroke-opacity:0.9;" x="705.655194" xlink:href="#me5adb968d6" y="118.340397"/>
     <use style="fill:#0000ff;fill-opacity:0.9;stroke:#0000ff;stroke-opacity:0.9;" x="732.472048" xlink:href="#me5adb968d6" y="336.544411"/>
     <use style="fill:#0000ff;fill-opacity:0.9;stroke:#0000ff;stroke-opacity:0.9;" x="787.00431" xlink:href="#me5adb968d6" y="129.73673"/>
    </g>
   </g>
   <g id="PathCollection_3">
    <defs>
     <path d="M 0 3 
C 0.795609 3 1.55874 2.683901 2.12132 2.12132 
C 2.683901 1.55874 3 0.795609 3 0 
C 3 -0.795609 2.683901 -1.55874 2.12132 -2.12132 
C 1.55874 -2.683901 0.795609 -3 0 -3 
C -0.795609 -3 -1.55874 -2.683901 -2.12132 -2.12132 
C -2.683901 -1.55874 -3 -0.795609 -3 0 
C -3 0.795609 -2.683901 1.55874 -2.12132 2.12132 
C -1.55874 2.683901 -0.795609 3 0 3 
z
" id="m1905df93a9" style="stroke:#008000;stroke-opacity:0.9;"/>
    </defs>
    <g clip-path="url(#p78fe7e27e7)">
     <use style="fill:#008000;fill-opacity:0.9;stroke:#008000;stroke-opacity:0.9;" x="313.792337" xlink:href="#m1905df93a9" y="450.865479"/>
     <use style="fill:#008000;fill-opacity:0.9;stroke:#008000;stroke-opacity:0.9;" x="276.166208" xlink:href="#m1905df93a9" y="513.660299"/>
     <use style="fill:#008000;fill-opacity:0.9;stroke:#008000;stroke-opacity:0.9;" x="309.805419" xlink:href="#m1905df93a9" y="425.856148"/>
     <use style="fill:#008000;fill-opacity:0.9;stroke:#008000;stroke-opacity:0.9;" x="260.837537" xlink:href="#m1905df93a9" y="434.511996"/>
     <use style="fill:#008000;fill-opacity:0.9;stroke:#008000;stroke-opacity:0.9;" x="228.396399" xlink:href="#m1905df93a9" y="451.9259"/>
     <use style="fill:#008000;fill-opacity:0.9;stroke:#008000;stroke-opacity:0.9;" x="206.691321" xlink:href="#m1905df93a9" y="450.469418"/>
     <use style="fill:#008000;fill-opacity:0.9;stroke:#008000;stroke-opacity:0.9;" x="279.168045" xlink:href="#m1905df93a9" y="524.494482"/>
     <use style="fill:#008000;fill-opacity:0.9;stroke:#008000;stroke-opacity:0.9;" x="340.908709" xlink:href="#m1905df93a9" y="459.042221"/>
     <use style="fill:#008000;fill-opacity:0.9;stroke:#008000;stroke-opacity:0.9;" x="240.956192" xlink:href="#m1905df93a9" y="540.055843"/>
     <use style="fill:#008000;fill-opacity:0.9;stroke:#008000;stroke-opacity:0.9;" x="293.744593" xlink:href="#m1905df93a9" y="484.594538"/>
     <use style="fill:#008000;fill-opacity:0.9;stroke:#008000;stroke-opacity:0.9;" x="260.018855" xlink:href="#m1905df93a9" y="504.704212"/>
     <use style="fill:#008000;fill-opacity:0.9;stroke:#008000;stroke-opacity:0.9;" x="319.935786" xlink:href="#m1905df93a9" y="443.04647"/>
     <use style="fill:#008000;fill-opacity:0.9;stroke:#008000;stroke-opacity:0.9;" x="277.317689" xlink:href="#m1905df93a9" y="470.406614"/>
     <use style="fill:#008000;fill-opacity:0.9;stroke:#008000;stroke-opacity:0.9;" x="238.799661" xlink:href="#m1905df93a9" y="513.430328"/>
     <use style="fill:#008000;fill-opacity:0.9;stroke:#008000;stroke-opacity:0.9;" x="224.82215" xlink:href="#m1905df93a9" y="525.580455"/>
     <use style="fill:#008000;fill-opacity:0.9;stroke:#008000;stroke-opacity:0.9;" x="258.734255" xlink:href="#m1905df93a9" y="465.558061"/>
     <use style="fill:#008000;fill-opacity:0.9;stroke:#008000;stroke-opacity:0.9;" x="296.034242" xlink:href="#m1905df93a9" y="503.432984"/>
     <use style="fill:#008000;fill-opacity:0.9;stroke:#008000;stroke-opacity:0.9;" x="362.726939" xlink:href="#m1905df93a9" y="409.732636"/>
     <use style="fill:#008000;fill-opacity:0.9;stroke:#008000;stroke-opacity:0.9;" x="318.724402" xlink:href="#m1905df93a9" y="402.00306"/>
    </g>
   </g>
   <g id="PathCollection_4">
    <defs>
     <path d="M 0 3 
C 0.795609 3 1.55874 2.683901 2.12132 2.12132 
C 2.683901 1.55874 3 0.795609 3 0 
C 3 -0.795609 2.683901 -1.55874 2.12132 -2.12132 
C 1.55874 -2.683901 0.795609 -3 0 -3 
C -0.795609 -3 -1.55874 -2.683901 -2.12132 -2.12132 
C -2.683901 -1.55874 -3 -0.795609 -3 0 
C -3 0.795609 -2.683901 1.55874 -2.12132 2.12132 
C -1.55874 2.683901 -0.795609 3 0 3 
z
" id="m65b4656174" style="stroke:#000000;stroke-opacity:0.9;"/>
    </defs>
    <g clip-path="url(#p78fe7e27e7)">
     <use style="fill-opacity:0.9;stroke:#000000;stroke-opacity:0.9;" x="513.291359" xlink:href="#m65b4656174" y="384.716917"/>
     <use style="fill-opacity:0.9;stroke:#000000;stroke-opacity:0.9;" x="514.362968" xlink:href="#m65b4656174" y="253.933769"/>
     <use style="fill-opacity:0.9;stroke:#000000;stroke-opacity:0.9;" x="415.056079" xlink:href="#m65b4656174" y="405.286533"/>
     <use style="fill-opacity:0.9;stroke:#000000;stroke-opacity:0.9;" x="406.569732" xlink:href="#m65b4656174" y="386.473639"/>
     <use style="fill-opacity:0.9;stroke:#000000;stroke-opacity:0.9;" x="422.750366" xlink:href="#m65b4656174" y="353.932763"/>
     <use style="fill-opacity:0.9;stroke:#000000;stroke-opacity:0.9;" x="456.595911" xlink:href="#m65b4656174" y="308.788206"/>
     <use style="fill-opacity:0.9;stroke:#000000;stroke-opacity:0.9;" x="457.45453" xlink:href="#m65b4656174" y="298.899459"/>
     <use style="fill-opacity:0.9;stroke:#000000;stroke-opacity:0.9;" x="518.136896" xlink:href="#m65b4656174" y="213.733586"/>
     <use style="fill-opacity:0.9;stroke:#000000;stroke-opacity:0.9;" x="485.715726" xlink:href="#m65b4656174" y="149.341746"/>
     <use style="fill-opacity:0.9;stroke:#000000;stroke-opacity:0.9;" x="454.412757" xlink:href="#m65b4656174" y="374.719573"/>
     <use style="fill-opacity:0.9;stroke:#000000;stroke-opacity:0.9;" x="390.841704" xlink:href="#m65b4656174" y="327.121994"/>
     <use style="fill-opacity:0.9;stroke:#000000;stroke-opacity:0.9;" x="331.350754" xlink:href="#m65b4656174" y="248.248378"/>
    </g>
   </g>
   <g id="PathCollection_5">
    <defs>
     <path d="M 0 3 
C 0.795609 3 1.55874 2.683901 2.12132 2.12132 
C 2.683901 1.55874 3 0.795609 3 0 
C 3 -0.795609 2.683901 -1.55874 2.12132 -2.12132 
C 1.55874 -2.683901 0.795609 -3 0 -3 
C -0.795609 -3 -1.55874 -2.683901 -2.12132 -2.12132 
C -2.683901 -1.55874 -3 -0.795609 -3 0 
C -3 0.795609 -2.683901 1.55874 -2.12132 2.12132 
C -1.55874 2.683901 -0.795609 3 0 3 
z
" id="md1a0cdf285" style="stroke:#bfbf00;stroke-opacity:0.9;"/>
    </defs>
    <g clip-path="url(#p78fe7e27e7)">
     <use style="fill:#bfbf00;fill-opacity:0.9;stroke:#bfbf00;stroke-opacity:0.9;" x="192.30114" xlink:href="#md1a0cdf285" y="627.355335"/>
     <use style="fill:#bfbf00;fill-opacity:0.9;stroke:#bfbf00;stroke-opacity:0.9;" x="249.296107" xlink:href="#md1a0cdf285" y="620.916151"/>
     <use style="fill:#bfbf00;fill-opacity:0.9;stroke:#bfbf00;stroke-opacity:0.9;" x="216.62201" xlink:href="#md1a0cdf285" y="596.379538"/>
     <use style="fill:#bfbf00;fill-opacity:0.9;stroke:#bfbf00;stroke-opacity:0.9;" x="180.220577" xlink:href="#md1a0cdf285" y="605.418671"/>
     <use style="fill:#bfbf00;fill-opacity:0.9;stroke:#bfbf00;stroke-opacity:0.9;" x="177.8444" xlink:href="#md1a0cdf285" y="626.920946"/>
     <use style="fill:#bfbf00;fill-opacity:0.9;stroke:#bfbf00;stroke-opacity:0.9;" x="217.127863" xlink:href="#md1a0cdf285" y="623.701354"/>
     <use style="fill:#bfbf00;fill-opacity:0.9;stroke:#bfbf00;stroke-opacity:0.9;" x="232.36335" xlink:href="#md1a0cdf285" y="621.970184"/>
     <use style="fill:#bfbf00;fill-opacity:0.9;stroke:#bfbf00;stroke-opacity:0.9;" x="181.232283" xlink:href="#md1a0cdf285" y="626.090495"/>
     <use style="fill:#bfbf00;fill-opacity:0.9;stroke:#bfbf00;stroke-opacity:0.9;" x="216.568762" xlink:href="#md1a0cdf285" y="622.787858"/>
     <use style="fill:#bfbf00;fill-opacity:0.9;stroke:#bfbf00;stroke-opacity:0.9;" x="180.287137" xlink:href="#md1a0cdf285" y="625.502792"/>
     <use style="fill:#bfbf00;fill-opacity:0.9;stroke:#bfbf00;stroke-opacity:0.9;" x="248.630511" xlink:href="#md1a0cdf285" y="617.837097"/>
     <use style="fill:#bfbf00;fill-opacity:0.9;stroke:#bfbf00;stroke-opacity:0.9;" x="172.106965" xlink:href="#md1a0cdf285" y="625.745539"/>
     <use style="fill:#bfbf00;fill-opacity:0.9;stroke:#bfbf00;stroke-opacity:0.9;" x="204.694534" xlink:href="#md1a0cdf285" y="621.81687"/>
     <use style="fill:#bfbf00;fill-opacity:0.9;stroke:#bfbf00;stroke-opacity:0.9;" x="197.632563" xlink:href="#md1a0cdf285" y="620.15597"/>
     <use style="fill:#bfbf00;fill-opacity:0.9;stroke:#bfbf00;stroke-opacity:0.9;" x="188.866666" xlink:href="#md1a0cdf285" y="618.661159"/>
     <use style="fill:#bfbf00;fill-opacity:0.9;stroke:#bfbf00;stroke-opacity:0.9;" x="242.633493" xlink:href="#md1a0cdf285" y="607.31593"/>
     <use style="fill:#bfbf00;fill-opacity:0.9;stroke:#bfbf00;stroke-opacity:0.9;" x="231.904089" xlink:href="#md1a0cdf285" y="608.727696"/>
     <use style="fill:#bfbf00;fill-opacity:0.9;stroke:#bfbf00;stroke-opacity:0.9;" x="211.763161" xlink:href="#md1a0cdf285" y="612.796902"/>
     <use style="fill:#bfbf00;fill-opacity:0.9;stroke:#bfbf00;stroke-opacity:0.9;" x="176.413369" xlink:href="#md1a0cdf285" y="620.232627"/>
     <use style="fill:#bfbf00;fill-opacity:0.9;stroke:#bfbf00;stroke-opacity:0.9;" x="199.403047" xlink:href="#md1a0cdf285" y="605.342014"/>
     <use style="fill:#bfbf00;fill-opacity:0.9;stroke:#bfbf00;stroke-opacity:0.9;" x="187.901552" xlink:href="#md1a0cdf285" y="622.877292"/>
     <use style="fill:#bfbf00;fill-opacity:0.9;stroke:#bfbf00;stroke-opacity:0.9;" x="228.363119" xlink:href="#md1a0cdf285" y="594.009561"/>
     <use style="fill:#bfbf00;fill-opacity:0.9;stroke:#bfbf00;stroke-opacity:0.9;" x="239.185707" xlink:href="#md1a0cdf285" y="547.319089"/>
     <use style="fill:#bfbf00;fill-opacity:0.9;stroke:#bfbf00;stroke-opacity:0.9;" x="179.455142" xlink:href="#md1a0cdf285" y="597.4719"/>
     <use style="fill:#bfbf00;fill-opacity:0.9;stroke:#bfbf00;stroke-opacity:0.9;" x="164.199687" xlink:href="#md1a0cdf285" y="607.328706"/>
     <use style="fill:#bfbf00;fill-opacity:0.9;stroke:#bfbf00;stroke-opacity:0.9;" x="192.454227" xlink:href="#md1a0cdf285" y="576.499835"/>
     <use style="fill:#bfbf00;fill-opacity:0.9;stroke:#bfbf00;stroke-opacity:0.9;" x="176.439993" xlink:href="#md1a0cdf285" y="584.823503"/>
     <use style="fill:#bfbf00;fill-opacity:0.9;stroke:#bfbf00;stroke-opacity:0.9;" x="229.155178" xlink:href="#md1a0cdf285" y="627.163693"/>
     <use style="fill:#bfbf00;fill-opacity:0.9;stroke:#bfbf00;stroke-opacity:0.9;" x="195.056707" xlink:href="#md1a0cdf285" y="620.596747"/>
     <use style="fill:#bfbf00;fill-opacity:0.9;stroke:#bfbf00;stroke-opacity:0.9;" x="231.617883" xlink:href="#md1a0cdf285" y="605.980822"/>
     <use style="fill:#bfbf00;fill-opacity:0.9;stroke:#bfbf00;stroke-opacity:0.9;" x="158.24926" xlink:href="#md1a0cdf285" y="623.490547"/>
     <use style="fill:#bfbf00;fill-opacity:0.9;stroke:#bfbf00;stroke-opacity:0.9;" x="152.33877" xlink:href="#md1a0cdf285" y="621.944632"/>
     <use style="fill:#bfbf00;fill-opacity:0.9;stroke:#bfbf00;stroke-opacity:0.9;" x="234.692935" xlink:href="#md1a0cdf285" y="547.977061"/>
     <use style="fill:#bfbf00;fill-opacity:0.9;stroke:#bfbf00;stroke-opacity:0.9;" x="156.026171" xlink:href="#md1a0cdf285" y="624.519028"/>
     <use style="fill:#bfbf00;fill-opacity:0.9;stroke:#bfbf00;stroke-opacity:0.9;" x="188.58046" xlink:href="#md1a0cdf285" y="612.190035"/>
     <use style="fill:#bfbf00;fill-opacity:0.9;stroke:#bfbf00;stroke-opacity:0.9;" x="177.098933" xlink:href="#md1a0cdf285" y="590.611103"/>
     <use style="fill:#bfbf00;fill-opacity:0.9;stroke:#bfbf00;stroke-opacity:0.9;" x="160.252704" xlink:href="#md1a0cdf285" y="628.147457"/>
    </g>
   </g>
   <g id="PathCollection_6">
    <defs>
     <path d="M 0 3 
C 0.795609 3 1.55874 2.683901 2.12132 2.12132 
C 2.683901 1.55874 3 0.795609 3 0 
C 3 -0.795609 2.683901 -1.55874 2.12132 -2.12132 
C 1.55874 -2.683901 0.795609 -3 0 -3 
C -0.795609 -3 -1.55874 -2.683901 -2.12132 -2.12132 
C -2.683901 -1.55874 -3 -0.795609 -3 0 
C -3 0.795609 -2.683901 1.55874 -2.12132 2.12132 
C -1.55874 2.683901 -0.795609 3 0 3 
z
" id="mc66ccebcdb" style="stroke:#800080;stroke-opacity:0.9;"/>
    </defs>
    <g clip-path="url(#p78fe7e27e7)">
     <use style="fill:#800080;fill-opacity:0.9;stroke:#800080;stroke-opacity:0.9;" x="473.155934" xlink:href="#mc66ccebcdb" y="626.409899"/>
     <use style="fill:#800080;fill-opacity:0.9;stroke:#800080;stroke-opacity:0.9;" x="619.453885" xlink:href="#mc66ccebcdb" y="587.455392"/>
     <use style="fill:#800080;fill-opacity:0.9;stroke:#800080;stroke-opacity:0.9;" x="480.450864" xlink:href="#mc66ccebcdb" y="607.820589"/>
     <use style="fill:#800080;fill-opacity:0.9;stroke:#800080;stroke-opacity:0.9;" x="521.518123" xlink:href="#mc66ccebcdb" y="584.031381"/>
     <use style="fill:#800080;fill-opacity:0.9;stroke:#800080;stroke-opacity:0.9;" x="569.793785" xlink:href="#mc66ccebcdb" y="548.948049"/>
     <use style="fill:#800080;fill-opacity:0.9;stroke:#800080;stroke-opacity:0.9;" x="585.368726" xlink:href="#mc66ccebcdb" y="525.427141"/>
     <use style="fill:#800080;fill-opacity:0.9;stroke:#800080;stroke-opacity:0.9;" x="458.566074" xlink:href="#mc66ccebcdb" y="584.657413"/>
     <use style="fill:#800080;fill-opacity:0.9;stroke:#800080;stroke-opacity:0.9;" x="448.80844" xlink:href="#mc66ccebcdb" y="510.325722"/>
     <use style="fill:#800080;fill-opacity:0.9;stroke:#800080;stroke-opacity:0.9;" x="437.653055" xlink:href="#mc66ccebcdb" y="539.410647"/>
     <use style="fill:#800080;fill-opacity:0.9;stroke:#800080;stroke-opacity:0.9;" x="612.425194" xlink:href="#mc66ccebcdb" y="425.511192"/>
     <use style="fill:#800080;fill-opacity:0.9;stroke:#800080;stroke-opacity:0.9;" x="435.183695" xlink:href="#mc66ccebcdb" y="479.835419"/>
     <use style="fill:#800080;fill-opacity:0.9;stroke:#800080;stroke-opacity:0.9;" x="521.95076" xlink:href="#mc66ccebcdb" y="517.346221"/>
    </g>
   </g>
   <g id="PathCollection_7">
    <defs>
     <path d="M 0 3 
C 0.795609 3 1.55874 2.683901 2.12132 2.12132 
C 2.683901 1.55874 3 0.795609 3 0 
C 3 -0.795609 2.683901 -1.55874 2.12132 -2.12132 
C 1.55874 -2.683901 0.795609 -3 0 -3 
C -0.795609 -3 -1.55874 -2.683901 -2.12132 -2.12132 
C -2.683901 -1.55874 -3 -0.795609 -3 0 
C -3 0.795609 -2.683901 1.55874 -2.12132 2.12132 
C -1.55874 2.683901 -0.795609 3 0 3 
z
" id="m931c55ce4d" style="stroke:#ffa500;stroke-opacity:0.9;"/>
    </defs>
    <g clip-path="url(#p78fe7e27e7)">
     <use style="fill:#ffa500;fill-opacity:0.9;stroke:#ffa500;stroke-opacity:0.9;" x="692.842476" xlink:href="#m931c55ce4d" y="619.216922"/>
     <use style="fill:#ffa500;fill-opacity:0.9;stroke:#ffa500;stroke-opacity:0.9;" x="938.720211" xlink:href="#m931c55ce4d" y="585.008757"/>
    </g>
   </g>
   <g id="matplotlib.axis_1">
    <g id="xtick_1">
     <g id="line2d_1">
      <defs>
       <path d="M 0 0 
L 0 3.5 
" id="mb157dd897d" style="stroke:#000000;stroke-width:0.8;"/>
      </defs>
      <g>
       <use style="stroke:#000000;stroke-width:0.8;" x="135" xlink:href="#mb157dd897d" y="630"/>
      </g>
     </g>
     <g id="text_1">
      <!-- 0 -->
      <defs>
       <path d="M 31.78125 66.40625 
Q 24.171875 66.40625 20.328125 58.90625 
Q 16.5 51.421875 16.5 36.375 
Q 16.5 21.390625 20.328125 13.890625 
Q 24.171875 6.390625 31.78125 6.390625 
Q 39.453125 6.390625 43.28125 13.890625 
Q 47.125 21.390625 47.125 36.375 
Q 47.125 51.421875 43.28125 58.90625 
Q 39.453125 66.40625 31.78125 66.40625 
z
M 31.78125 74.21875 
Q 44.046875 74.21875 50.515625 64.515625 
Q 56.984375 54.828125 56.984375 36.375 
Q 56.984375 17.96875 50.515625 8.265625 
Q 44.046875 -1.421875 31.78125 -1.421875 
Q 19.53125 -1.421875 13.0625 8.265625 
Q 6.59375 17.96875 6.59375 36.375 
Q 6.59375 54.828125 13.0625 64.515625 
Q 19.53125 74.21875 31.78125 74.21875 
z
" id="DejaVuSans-48"/>
      </defs>
      <g transform="translate(131.81875 644.598438)scale(0.1 -0.1)">
       <use xlink:href="#DejaVuSans-48"/>
      </g>
     </g>
    </g>
    <g id="xtick_2">
     <g id="line2d_2">
      <g>
       <use style="stroke:#000000;stroke-width:0.8;" x="268.119155" xlink:href="#mb157dd897d" y="630"/>
      </g>
     </g>
     <g id="text_2">
      <!-- 20000 -->
      <defs>
       <path d="M 19.1875 8.296875 
L 53.609375 8.296875 
L 53.609375 0 
L 7.328125 0 
L 7.328125 8.296875 
Q 12.9375 14.109375 22.625 23.890625 
Q 32.328125 33.6875 34.8125 36.53125 
Q 39.546875 41.84375 41.421875 45.53125 
Q 43.3125 49.21875 43.3125 52.78125 
Q 43.3125 58.59375 39.234375 62.25 
Q 35.15625 65.921875 28.609375 65.921875 
Q 23.96875 65.921875 18.8125 64.3125 
Q 13.671875 62.703125 7.8125 59.421875 
L 7.8125 69.390625 
Q 13.765625 71.78125 18.9375 73 
Q 24.125 74.21875 28.421875 74.21875 
Q 39.75 74.21875 46.484375 68.546875 
Q 53.21875 62.890625 53.21875 53.421875 
Q 53.21875 48.921875 51.53125 44.890625 
Q 49.859375 40.875 45.40625 35.40625 
Q 44.1875 33.984375 37.640625 27.21875 
Q 31.109375 20.453125 19.1875 8.296875 
z
" id="DejaVuSans-50"/>
      </defs>
      <g transform="translate(252.212905 644.598438)scale(0.1 -0.1)">
       <use xlink:href="#DejaVuSans-50"/>
       <use x="63.623047" xlink:href="#DejaVuSans-48"/>
       <use x="127.246094" xlink:href="#DejaVuSans-48"/>
       <use x="190.869141" xlink:href="#DejaVuSans-48"/>
       <use x="254.492188" xlink:href="#DejaVuSans-48"/>
      </g>
     </g>
    </g>
    <g id="xtick_3">
     <g id="line2d_3">
      <g>
       <use style="stroke:#000000;stroke-width:0.8;" x="401.23831" xlink:href="#mb157dd897d" y="630"/>
      </g>
     </g>
     <g id="text_3">
      <!-- 40000 -->
      <defs>
       <path d="M 37.796875 64.3125 
L 12.890625 25.390625 
L 37.796875 25.390625 
z
M 35.203125 72.90625 
L 47.609375 72.90625 
L 47.609375 25.390625 
L 58.015625 25.390625 
L 58.015625 17.1875 
L 47.609375 17.1875 
L 47.609375 0 
L 37.796875 0 
L 37.796875 17.1875 
L 4.890625 17.1875 
L 4.890625 26.703125 
z
" id="DejaVuSans-52"/>
      </defs>
      <g transform="translate(385.33206 644.598438)scale(0.1 -0.1)">
       <use xlink:href="#DejaVuSans-52"/>
       <use x="63.623047" xlink:href="#DejaVuSans-48"/>
       <use x="127.246094" xlink:href="#DejaVuSans-48"/>
       <use x="190.869141" xlink:href="#DejaVuSans-48"/>
       <use x="254.492188" xlink:href="#DejaVuSans-48"/>
      </g>
     </g>
    </g>
    <g id="xtick_4">
     <g id="line2d_4">
      <g>
       <use style="stroke:#000000;stroke-width:0.8;" x="534.357465" xlink:href="#mb157dd897d" y="630"/>
      </g>
     </g>
     <g id="text_4">
      <!-- 60000 -->
      <defs>
       <path d="M 33.015625 40.375 
Q 26.375 40.375 22.484375 35.828125 
Q 18.609375 31.296875 18.609375 23.390625 
Q 18.609375 15.53125 22.484375 10.953125 
Q 26.375 6.390625 33.015625 6.390625 
Q 39.65625 6.390625 43.53125 10.953125 
Q 47.40625 15.53125 47.40625 23.390625 
Q 47.40625 31.296875 43.53125 35.828125 
Q 39.65625 40.375 33.015625 40.375 
z
M 52.59375 71.296875 
L 52.59375 62.3125 
Q 48.875 64.0625 45.09375 64.984375 
Q 41.3125 65.921875 37.59375 65.921875 
Q 27.828125 65.921875 22.671875 59.328125 
Q 17.53125 52.734375 16.796875 39.40625 
Q 19.671875 43.65625 24.015625 45.921875 
Q 28.375 48.1875 33.59375 48.1875 
Q 44.578125 48.1875 50.953125 41.515625 
Q 57.328125 34.859375 57.328125 23.390625 
Q 57.328125 12.15625 50.6875 5.359375 
Q 44.046875 -1.421875 33.015625 -1.421875 
Q 20.359375 -1.421875 13.671875 8.265625 
Q 6.984375 17.96875 6.984375 36.375 
Q 6.984375 53.65625 15.1875 63.9375 
Q 23.390625 74.21875 37.203125 74.21875 
Q 40.921875 74.21875 44.703125 73.484375 
Q 48.484375 72.75 52.59375 71.296875 
z
" id="DejaVuSans-54"/>
      </defs>
      <g transform="translate(518.451215 644.598438)scale(0.1 -0.1)">
       <use xlink:href="#DejaVuSans-54"/>
       <use x="63.623047" xlink:href="#DejaVuSans-48"/>
       <use x="127.246094" xlink:href="#DejaVuSans-48"/>
       <use x="190.869141" xlink:href="#DejaVuSans-48"/>
       <use x="254.492188" xlink:href="#DejaVuSans-48"/>
      </g>
     </g>
    </g>
    <g id="xtick_5">
     <g id="line2d_5">
      <g>
       <use style="stroke:#000000;stroke-width:0.8;" x="667.476621" xlink:href="#mb157dd897d" y="630"/>
      </g>
     </g>
     <g id="text_5">
      <!-- 80000 -->
      <defs>
       <path d="M 31.78125 34.625 
Q 24.75 34.625 20.71875 30.859375 
Q 16.703125 27.09375 16.703125 20.515625 
Q 16.703125 13.921875 20.71875 10.15625 
Q 24.75 6.390625 31.78125 6.390625 
Q 38.8125 6.390625 42.859375 10.171875 
Q 46.921875 13.96875 46.921875 20.515625 
Q 46.921875 27.09375 42.890625 30.859375 
Q 38.875 34.625 31.78125 34.625 
z
M 21.921875 38.8125 
Q 15.578125 40.375 12.03125 44.71875 
Q 8.5 49.078125 8.5 55.328125 
Q 8.5 64.0625 14.71875 69.140625 
Q 20.953125 74.21875 31.78125 74.21875 
Q 42.671875 74.21875 48.875 69.140625 
Q 55.078125 64.0625 55.078125 55.328125 
Q 55.078125 49.078125 51.53125 44.71875 
Q 48 40.375 41.703125 38.8125 
Q 48.828125 37.15625 52.796875 32.3125 
Q 56.78125 27.484375 56.78125 20.515625 
Q 56.78125 9.90625 50.3125 4.234375 
Q 43.84375 -1.421875 31.78125 -1.421875 
Q 19.734375 -1.421875 13.25 4.234375 
Q 6.78125 9.90625 6.78125 20.515625 
Q 6.78125 27.484375 10.78125 32.3125 
Q 14.796875 37.15625 21.921875 38.8125 
z
M 18.3125 54.390625 
Q 18.3125 48.734375 21.84375 45.5625 
Q 25.390625 42.390625 31.78125 42.390625 
Q 38.140625 42.390625 41.71875 45.5625 
Q 45.3125 48.734375 45.3125 54.390625 
Q 45.3125 60.0625 41.71875 63.234375 
Q 38.140625 66.40625 31.78125 66.40625 
Q 25.390625 66.40625 21.84375 63.234375 
Q 18.3125 60.0625 18.3125 54.390625 
z
" id="DejaVuSans-56"/>
      </defs>
      <g transform="translate(651.570371 644.598438)scale(0.1 -0.1)">
       <use xlink:href="#DejaVuSans-56"/>
       <use x="63.623047" xlink:href="#DejaVuSans-48"/>
       <use x="127.246094" xlink:href="#DejaVuSans-48"/>
       <use x="190.869141" xlink:href="#DejaVuSans-48"/>
       <use x="254.492188" xlink:href="#DejaVuSans-48"/>
      </g>
     </g>
    </g>
    <g id="xtick_6">
     <g id="line2d_6">
      <g>
       <use style="stroke:#000000;stroke-width:0.8;" x="800.595776" xlink:href="#mb157dd897d" y="630"/>
      </g>
     </g>
     <g id="text_6">
      <!-- 100000 -->
      <defs>
       <path d="M 12.40625 8.296875 
L 28.515625 8.296875 
L 28.515625 63.921875 
L 10.984375 60.40625 
L 10.984375 69.390625 
L 28.421875 72.90625 
L 38.28125 72.90625 
L 38.28125 8.296875 
L 54.390625 8.296875 
L 54.390625 0 
L 12.40625 0 
z
" id="DejaVuSans-49"/>
      </defs>
      <g transform="translate(781.508276 644.598438)scale(0.1 -0.1)">
       <use xlink:href="#DejaVuSans-49"/>
       <use x="63.623047" xlink:href="#DejaVuSans-48"/>
       <use x="127.246094" xlink:href="#DejaVuSans-48"/>
       <use x="190.869141" xlink:href="#DejaVuSans-48"/>
       <use x="254.492188" xlink:href="#DejaVuSans-48"/>
       <use x="318.115234" xlink:href="#DejaVuSans-48"/>
      </g>
     </g>
    </g>
    <g id="xtick_7">
     <g id="line2d_7">
      <g>
       <use style="stroke:#000000;stroke-width:0.8;" x="933.714931" xlink:href="#mb157dd897d" y="630"/>
      </g>
     </g>
     <g id="text_7">
      <!-- 120000 -->
      <g transform="translate(914.627431 644.598438)scale(0.1 -0.1)">
       <use xlink:href="#DejaVuSans-49"/>
       <use x="63.623047" xlink:href="#DejaVuSans-50"/>
       <use x="127.246094" xlink:href="#DejaVuSans-48"/>
       <use x="190.869141" xlink:href="#DejaVuSans-48"/>
       <use x="254.492188" xlink:href="#DejaVuSans-48"/>
       <use x="318.115234" xlink:href="#DejaVuSans-48"/>
      </g>
     </g>
    </g>
    <g id="text_8">
     <!-- Minimum Mouth Width (Lm) -->
     <defs>
      <path d="M 9.8125 72.90625 
L 24.515625 72.90625 
L 43.109375 23.296875 
L 61.8125 72.90625 
L 76.515625 72.90625 
L 76.515625 0 
L 66.890625 0 
L 66.890625 64.015625 
L 48.09375 14.015625 
L 38.1875 14.015625 
L 19.390625 64.015625 
L 19.390625 0 
L 9.8125 0 
z
" id="DejaVuSans-77"/>
      <path d="M 9.421875 54.6875 
L 18.40625 54.6875 
L 18.40625 0 
L 9.421875 0 
z
M 9.421875 75.984375 
L 18.40625 75.984375 
L 18.40625 64.59375 
L 9.421875 64.59375 
z
" id="DejaVuSans-105"/>
      <path d="M 54.890625 33.015625 
L 54.890625 0 
L 45.90625 0 
L 45.90625 32.71875 
Q 45.90625 40.484375 42.875 44.328125 
Q 39.84375 48.1875 33.796875 48.1875 
Q 26.515625 48.1875 22.3125 43.546875 
Q 18.109375 38.921875 18.109375 30.90625 
L 18.109375 0 
L 9.078125 0 
L 9.078125 54.6875 
L 18.109375 54.6875 
L 18.109375 46.1875 
Q 21.34375 51.125 25.703125 53.5625 
Q 30.078125 56 35.796875 56 
Q 45.21875 56 50.046875 50.171875 
Q 54.890625 44.34375 54.890625 33.015625 
z
" id="DejaVuSans-110"/>
      <path d="M 52 44.1875 
Q 55.375 50.25 60.0625 53.125 
Q 64.75 56 71.09375 56 
Q 79.640625 56 84.28125 50.015625 
Q 88.921875 44.046875 88.921875 33.015625 
L 88.921875 0 
L 79.890625 0 
L 79.890625 32.71875 
Q 79.890625 40.578125 77.09375 44.375 
Q 74.3125 48.1875 68.609375 48.1875 
Q 61.625 48.1875 57.5625 43.546875 
Q 53.515625 38.921875 53.515625 30.90625 
L 53.515625 0 
L 44.484375 0 
L 44.484375 32.71875 
Q 44.484375 40.625 41.703125 44.40625 
Q 38.921875 48.1875 33.109375 48.1875 
Q 26.21875 48.1875 22.15625 43.53125 
Q 18.109375 38.875 18.109375 30.90625 
L 18.109375 0 
L 9.078125 0 
L 9.078125 54.6875 
L 18.109375 54.6875 
L 18.109375 46.1875 
Q 21.1875 51.21875 25.484375 53.609375 
Q 29.78125 56 35.6875 56 
Q 41.65625 56 45.828125 52.96875 
Q 50 49.953125 52 44.1875 
z
" id="DejaVuSans-109"/>
      <path d="M 8.5 21.578125 
L 8.5 54.6875 
L 17.484375 54.6875 
L 17.484375 21.921875 
Q 17.484375 14.15625 20.5 10.265625 
Q 23.53125 6.390625 29.59375 6.390625 
Q 36.859375 6.390625 41.078125 11.03125 
Q 45.3125 15.671875 45.3125 23.6875 
L 45.3125 54.6875 
L 54.296875 54.6875 
L 54.296875 0 
L 45.3125 0 
L 45.3125 8.40625 
Q 42.046875 3.421875 37.71875 1 
Q 33.40625 -1.421875 27.6875 -1.421875 
Q 18.265625 -1.421875 13.375 4.4375 
Q 8.5 10.296875 8.5 21.578125 
z
M 31.109375 56 
z
" id="DejaVuSans-117"/>
      <path id="DejaVuSans-32"/>
      <path d="M 30.609375 48.390625 
Q 23.390625 48.390625 19.1875 42.75 
Q 14.984375 37.109375 14.984375 27.296875 
Q 14.984375 17.484375 19.15625 11.84375 
Q 23.34375 6.203125 30.609375 6.203125 
Q 37.796875 6.203125 41.984375 11.859375 
Q 46.1875 17.53125 46.1875 27.296875 
Q 46.1875 37.015625 41.984375 42.703125 
Q 37.796875 48.390625 30.609375 48.390625 
z
M 30.609375 56 
Q 42.328125 56 49.015625 48.375 
Q 55.71875 40.765625 55.71875 27.296875 
Q 55.71875 13.875 49.015625 6.21875 
Q 42.328125 -1.421875 30.609375 -1.421875 
Q 18.84375 -1.421875 12.171875 6.21875 
Q 5.515625 13.875 5.515625 27.296875 
Q 5.515625 40.765625 12.171875 48.375 
Q 18.84375 56 30.609375 56 
z
" id="DejaVuSans-111"/>
      <path d="M 18.3125 70.21875 
L 18.3125 54.6875 
L 36.8125 54.6875 
L 36.8125 47.703125 
L 18.3125 47.703125 
L 18.3125 18.015625 
Q 18.3125 11.328125 20.140625 9.421875 
Q 21.96875 7.515625 27.59375 7.515625 
L 36.8125 7.515625 
L 36.8125 0 
L 27.59375 0 
Q 17.1875 0 13.234375 3.875 
Q 9.28125 7.765625 9.28125 18.015625 
L 9.28125 47.703125 
L 2.6875 47.703125 
L 2.6875 54.6875 
L 9.28125 54.6875 
L 9.28125 70.21875 
z
" id="DejaVuSans-116"/>
      <path d="M 54.890625 33.015625 
L 54.890625 0 
L 45.90625 0 
L 45.90625 32.71875 
Q 45.90625 40.484375 42.875 44.328125 
Q 39.84375 48.1875 33.796875 48.1875 
Q 26.515625 48.1875 22.3125 43.546875 
Q 18.109375 38.921875 18.109375 30.90625 
L 18.109375 0 
L 9.078125 0 
L 9.078125 75.984375 
L 18.109375 75.984375 
L 18.109375 46.1875 
Q 21.34375 51.125 25.703125 53.5625 
Q 30.078125 56 35.796875 56 
Q 45.21875 56 50.046875 50.171875 
Q 54.890625 44.34375 54.890625 33.015625 
z
" id="DejaVuSans-104"/>
      <path d="M 3.328125 72.90625 
L 13.28125 72.90625 
L 28.609375 11.28125 
L 43.890625 72.90625 
L 54.984375 72.90625 
L 70.3125 11.28125 
L 85.59375 72.90625 
L 95.609375 72.90625 
L 77.296875 0 
L 64.890625 0 
L 49.515625 63.28125 
L 33.984375 0 
L 21.578125 0 
z
" id="DejaVuSans-87"/>
      <path d="M 45.40625 46.390625 
L 45.40625 75.984375 
L 54.390625 75.984375 
L 54.390625 0 
L 45.40625 0 
L 45.40625 8.203125 
Q 42.578125 3.328125 38.25 0.953125 
Q 33.9375 -1.421875 27.875 -1.421875 
Q 17.96875 -1.421875 11.734375 6.484375 
Q 5.515625 14.40625 5.515625 27.296875 
Q 5.515625 40.1875 11.734375 48.09375 
Q 17.96875 56 27.875 56 
Q 33.9375 56 38.25 53.625 
Q 42.578125 51.265625 45.40625 46.390625 
z
M 14.796875 27.296875 
Q 14.796875 17.390625 18.875 11.75 
Q 22.953125 6.109375 30.078125 6.109375 
Q 37.203125 6.109375 41.296875 11.75 
Q 45.40625 17.390625 45.40625 27.296875 
Q 45.40625 37.203125 41.296875 42.84375 
Q 37.203125 48.484375 30.078125 48.484375 
Q 22.953125 48.484375 18.875 42.84375 
Q 14.796875 37.203125 14.796875 27.296875 
z
" id="DejaVuSans-100"/>
      <path d="M 31 75.875 
Q 24.46875 64.65625 21.28125 53.65625 
Q 18.109375 42.671875 18.109375 31.390625 
Q 18.109375 20.125 21.3125 9.0625 
Q 24.515625 -2 31 -13.1875 
L 23.1875 -13.1875 
Q 15.875 -1.703125 12.234375 9.375 
Q 8.59375 20.453125 8.59375 31.390625 
Q 8.59375 42.28125 12.203125 53.3125 
Q 15.828125 64.359375 23.1875 75.875 
z
" id="DejaVuSans-40"/>
      <path d="M 9.8125 72.90625 
L 19.671875 72.90625 
L 19.671875 8.296875 
L 55.171875 8.296875 
L 55.171875 0 
L 9.8125 0 
z
" id="DejaVuSans-76"/>
      <path d="M 8.015625 75.875 
L 15.828125 75.875 
Q 23.140625 64.359375 26.78125 53.3125 
Q 30.421875 42.28125 30.421875 31.390625 
Q 30.421875 20.453125 26.78125 9.375 
Q 23.140625 -1.703125 15.828125 -13.1875 
L 8.015625 -13.1875 
Q 14.5 -2 17.703125 9.0625 
Q 20.90625 20.125 20.90625 31.390625 
Q 20.90625 42.671875 17.703125 53.65625 
Q 14.5 64.65625 8.015625 75.875 
z
" id="DejaVuSans-41"/>
     </defs>
     <g transform="translate(483.699219 658.276562)scale(0.1 -0.1)">
      <use xlink:href="#DejaVuSans-77"/>
      <use x="86.279297" xlink:href="#DejaVuSans-105"/>
      <use x="114.0625" xlink:href="#DejaVuSans-110"/>
      <use x="177.441406" xlink:href="#DejaVuSans-105"/>
      <use x="205.224609" xlink:href="#DejaVuSans-109"/>
      <use x="302.636719" xlink:href="#DejaVuSans-117"/>
      <use x="366.015625" xlink:href="#DejaVuSans-109"/>
      <use x="463.427734" xlink:href="#DejaVuSans-32"/>
      <use x="495.214844" xlink:href="#DejaVuSans-77"/>
      <use x="581.494141" xlink:href="#DejaVuSans-111"/>
      <use x="642.675781" xlink:href="#DejaVuSans-117"/>
      <use x="706.054688" xlink:href="#DejaVuSans-116"/>
      <use x="745.263672" xlink:href="#DejaVuSans-104"/>
      <use x="808.642578" xlink:href="#DejaVuSans-32"/>
      <use x="840.429688" xlink:href="#DejaVuSans-87"/>
      <use x="939.275391" xlink:href="#DejaVuSans-105"/>
      <use x="967.058594" xlink:href="#DejaVuSans-100"/>
      <use x="1030.535156" xlink:href="#DejaVuSans-116"/>
      <use x="1069.744141" xlink:href="#DejaVuSans-104"/>
      <use x="1133.123047" xlink:href="#DejaVuSans-32"/>
      <use x="1164.910156" xlink:href="#DejaVuSans-40"/>
      <use x="1203.923828" xlink:href="#DejaVuSans-76"/>
      <use x="1259.636719" xlink:href="#DejaVuSans-109"/>
      <use x="1357.048828" xlink:href="#DejaVuSans-41"/>
     </g>
    </g>
   </g>
   <g id="matplotlib.axis_2">
    <g id="ytick_1">
     <g id="line2d_8">
      <defs>
       <path d="M 0 0 
L -3.5 0 
" id="ma0c14eb3d6" style="stroke:#000000;stroke-width:0.8;"/>
      </defs>
      <g>
       <use style="stroke:#000000;stroke-width:0.8;" x="135" xlink:href="#ma0c14eb3d6" y="630"/>
      </g>
     </g>
     <g id="text_9">
      <!-- 0 -->
      <g transform="translate(121.6375 633.799219)scale(0.1 -0.1)">
       <use xlink:href="#DejaVuSans-48"/>
      </g>
     </g>
    </g>
    <g id="ytick_2">
     <g id="line2d_9">
      <g>
       <use style="stroke:#000000;stroke-width:0.8;" x="135" xlink:href="#ma0c14eb3d6" y="566.119207"/>
      </g>
     </g>
     <g id="text_10">
      <!-- 10000 -->
      <g transform="translate(96.1875 569.918425)scale(0.1 -0.1)">
       <use xlink:href="#DejaVuSans-49"/>
       <use x="63.623047" xlink:href="#DejaVuSans-48"/>
       <use x="127.246094" xlink:href="#DejaVuSans-48"/>
       <use x="190.869141" xlink:href="#DejaVuSans-48"/>
       <use x="254.492188" xlink:href="#DejaVuSans-48"/>
      </g>
     </g>
    </g>
    <g id="ytick_3">
     <g id="line2d_10">
      <g>
       <use style="stroke:#000000;stroke-width:0.8;" x="135" xlink:href="#ma0c14eb3d6" y="502.238413"/>
      </g>
     </g>
     <g id="text_11">
      <!-- 20000 -->
      <g transform="translate(96.1875 506.037632)scale(0.1 -0.1)">
       <use xlink:href="#DejaVuSans-50"/>
       <use x="63.623047" xlink:href="#DejaVuSans-48"/>
       <use x="127.246094" xlink:href="#DejaVuSans-48"/>
       <use x="190.869141" xlink:href="#DejaVuSans-48"/>
       <use x="254.492188" xlink:href="#DejaVuSans-48"/>
      </g>
     </g>
    </g>
    <g id="ytick_4">
     <g id="line2d_11">
      <g>
       <use style="stroke:#000000;stroke-width:0.8;" x="135" xlink:href="#ma0c14eb3d6" y="438.35762"/>
      </g>
     </g>
     <g id="text_12">
      <!-- 30000 -->
      <defs>
       <path d="M 40.578125 39.3125 
Q 47.65625 37.796875 51.625 33 
Q 55.609375 28.21875 55.609375 21.1875 
Q 55.609375 10.40625 48.1875 4.484375 
Q 40.765625 -1.421875 27.09375 -1.421875 
Q 22.515625 -1.421875 17.65625 -0.515625 
Q 12.796875 0.390625 7.625 2.203125 
L 7.625 11.71875 
Q 11.71875 9.328125 16.59375 8.109375 
Q 21.484375 6.890625 26.8125 6.890625 
Q 36.078125 6.890625 40.9375 10.546875 
Q 45.796875 14.203125 45.796875 21.1875 
Q 45.796875 27.640625 41.28125 31.265625 
Q 36.765625 34.90625 28.71875 34.90625 
L 20.21875 34.90625 
L 20.21875 43.015625 
L 29.109375 43.015625 
Q 36.375 43.015625 40.234375 45.921875 
Q 44.09375 48.828125 44.09375 54.296875 
Q 44.09375 59.90625 40.109375 62.90625 
Q 36.140625 65.921875 28.71875 65.921875 
Q 24.65625 65.921875 20.015625 65.03125 
Q 15.375 64.15625 9.8125 62.3125 
L 9.8125 71.09375 
Q 15.4375 72.65625 20.34375 73.4375 
Q 25.25 74.21875 29.59375 74.21875 
Q 40.828125 74.21875 47.359375 69.109375 
Q 53.90625 64.015625 53.90625 55.328125 
Q 53.90625 49.265625 50.4375 45.09375 
Q 46.96875 40.921875 40.578125 39.3125 
z
" id="DejaVuSans-51"/>
      </defs>
      <g transform="translate(96.1875 442.156838)scale(0.1 -0.1)">
       <use xlink:href="#DejaVuSans-51"/>
       <use x="63.623047" xlink:href="#DejaVuSans-48"/>
       <use x="127.246094" xlink:href="#DejaVuSans-48"/>
       <use x="190.869141" xlink:href="#DejaVuSans-48"/>
       <use x="254.492188" xlink:href="#DejaVuSans-48"/>
      </g>
     </g>
    </g>
    <g id="ytick_5">
     <g id="line2d_12">
      <g>
       <use style="stroke:#000000;stroke-width:0.8;" x="135" xlink:href="#ma0c14eb3d6" y="374.476826"/>
      </g>
     </g>
     <g id="text_13">
      <!-- 40000 -->
      <g transform="translate(96.1875 378.276045)scale(0.1 -0.1)">
       <use xlink:href="#DejaVuSans-52"/>
       <use x="63.623047" xlink:href="#DejaVuSans-48"/>
       <use x="127.246094" xlink:href="#DejaVuSans-48"/>
       <use x="190.869141" xlink:href="#DejaVuSans-48"/>
       <use x="254.492188" xlink:href="#DejaVuSans-48"/>
      </g>
     </g>
    </g>
    <g id="ytick_6">
     <g id="line2d_13">
      <g>
       <use style="stroke:#000000;stroke-width:0.8;" x="135" xlink:href="#ma0c14eb3d6" y="310.596033"/>
      </g>
     </g>
     <g id="text_14">
      <!-- 50000 -->
      <defs>
       <path d="M 10.796875 72.90625 
L 49.515625 72.90625 
L 49.515625 64.59375 
L 19.828125 64.59375 
L 19.828125 46.734375 
Q 21.96875 47.46875 24.109375 47.828125 
Q 26.265625 48.1875 28.421875 48.1875 
Q 40.625 48.1875 47.75 41.5 
Q 54.890625 34.8125 54.890625 23.390625 
Q 54.890625 11.625 47.5625 5.09375 
Q 40.234375 -1.421875 26.90625 -1.421875 
Q 22.3125 -1.421875 17.546875 -0.640625 
Q 12.796875 0.140625 7.71875 1.703125 
L 7.71875 11.625 
Q 12.109375 9.234375 16.796875 8.0625 
Q 21.484375 6.890625 26.703125 6.890625 
Q 35.15625 6.890625 40.078125 11.328125 
Q 45.015625 15.765625 45.015625 23.390625 
Q 45.015625 31 40.078125 35.4375 
Q 35.15625 39.890625 26.703125 39.890625 
Q 22.75 39.890625 18.8125 39.015625 
Q 14.890625 38.140625 10.796875 36.28125 
z
" id="DejaVuSans-53"/>
      </defs>
      <g transform="translate(96.1875 314.395251)scale(0.1 -0.1)">
       <use xlink:href="#DejaVuSans-53"/>
       <use x="63.623047" xlink:href="#DejaVuSans-48"/>
       <use x="127.246094" xlink:href="#DejaVuSans-48"/>
       <use x="190.869141" xlink:href="#DejaVuSans-48"/>
       <use x="254.492188" xlink:href="#DejaVuSans-48"/>
      </g>
     </g>
    </g>
    <g id="ytick_7">
     <g id="line2d_14">
      <g>
       <use style="stroke:#000000;stroke-width:0.8;" x="135" xlink:href="#ma0c14eb3d6" y="246.715239"/>
      </g>
     </g>
     <g id="text_15">
      <!-- 60000 -->
      <g transform="translate(96.1875 250.514458)scale(0.1 -0.1)">
       <use xlink:href="#DejaVuSans-54"/>
       <use x="63.623047" xlink:href="#DejaVuSans-48"/>
       <use x="127.246094" xlink:href="#DejaVuSans-48"/>
       <use x="190.869141" xlink:href="#DejaVuSans-48"/>
       <use x="254.492188" xlink:href="#DejaVuSans-48"/>
      </g>
     </g>
    </g>
    <g id="ytick_8">
     <g id="line2d_15">
      <g>
       <use style="stroke:#000000;stroke-width:0.8;" x="135" xlink:href="#ma0c14eb3d6" y="182.834446"/>
      </g>
     </g>
     <g id="text_16">
      <!-- 70000 -->
      <defs>
       <path d="M 8.203125 72.90625 
L 55.078125 72.90625 
L 55.078125 68.703125 
L 28.609375 0 
L 18.3125 0 
L 43.21875 64.59375 
L 8.203125 64.59375 
z
" id="DejaVuSans-55"/>
      </defs>
      <g transform="translate(96.1875 186.633665)scale(0.1 -0.1)">
       <use xlink:href="#DejaVuSans-55"/>
       <use x="63.623047" xlink:href="#DejaVuSans-48"/>
       <use x="127.246094" xlink:href="#DejaVuSans-48"/>
       <use x="190.869141" xlink:href="#DejaVuSans-48"/>
       <use x="254.492188" xlink:href="#DejaVuSans-48"/>
      </g>
     </g>
    </g>
    <g id="ytick_9">
     <g id="line2d_16">
      <g>
       <use style="stroke:#000000;stroke-width:0.8;" x="135" xlink:href="#ma0c14eb3d6" y="118.953652"/>
      </g>
     </g>
     <g id="text_17">
      <!-- 80000 -->
      <g transform="translate(96.1875 122.752871)scale(0.1 -0.1)">
       <use xlink:href="#DejaVuSans-56"/>
       <use x="63.623047" xlink:href="#DejaVuSans-48"/>
       <use x="127.246094" xlink:href="#DejaVuSans-48"/>
       <use x="190.869141" xlink:href="#DejaVuSans-48"/>
       <use x="254.492188" xlink:href="#DejaVuSans-48"/>
      </g>
     </g>
    </g>
    <g id="text_18">
     <!-- Maximum Body Width (Lb) -->
     <defs>
      <path d="M 34.28125 27.484375 
Q 23.390625 27.484375 19.1875 25 
Q 14.984375 22.515625 14.984375 16.5 
Q 14.984375 11.71875 18.140625 8.90625 
Q 21.296875 6.109375 26.703125 6.109375 
Q 34.1875 6.109375 38.703125 11.40625 
Q 43.21875 16.703125 43.21875 25.484375 
L 43.21875 27.484375 
z
M 52.203125 31.203125 
L 52.203125 0 
L 43.21875 0 
L 43.21875 8.296875 
Q 40.140625 3.328125 35.546875 0.953125 
Q 30.953125 -1.421875 24.3125 -1.421875 
Q 15.921875 -1.421875 10.953125 3.296875 
Q 6 8.015625 6 15.921875 
Q 6 25.140625 12.171875 29.828125 
Q 18.359375 34.515625 30.609375 34.515625 
L 43.21875 34.515625 
L 43.21875 35.40625 
Q 43.21875 41.609375 39.140625 45 
Q 35.0625 48.390625 27.6875 48.390625 
Q 23 48.390625 18.546875 47.265625 
Q 14.109375 46.140625 10.015625 43.890625 
L 10.015625 52.203125 
Q 14.9375 54.109375 19.578125 55.046875 
Q 24.21875 56 28.609375 56 
Q 40.484375 56 46.34375 49.84375 
Q 52.203125 43.703125 52.203125 31.203125 
z
" id="DejaVuSans-97"/>
      <path d="M 54.890625 54.6875 
L 35.109375 28.078125 
L 55.90625 0 
L 45.3125 0 
L 29.390625 21.484375 
L 13.484375 0 
L 2.875 0 
L 24.125 28.609375 
L 4.6875 54.6875 
L 15.28125 54.6875 
L 29.78125 35.203125 
L 44.28125 54.6875 
z
" id="DejaVuSans-120"/>
      <path d="M 19.671875 34.8125 
L 19.671875 8.109375 
L 35.5 8.109375 
Q 43.453125 8.109375 47.28125 11.40625 
Q 51.125 14.703125 51.125 21.484375 
Q 51.125 28.328125 47.28125 31.5625 
Q 43.453125 34.8125 35.5 34.8125 
z
M 19.671875 64.796875 
L 19.671875 42.828125 
L 34.28125 42.828125 
Q 41.5 42.828125 45.03125 45.53125 
Q 48.578125 48.25 48.578125 53.8125 
Q 48.578125 59.328125 45.03125 62.0625 
Q 41.5 64.796875 34.28125 64.796875 
z
M 9.8125 72.90625 
L 35.015625 72.90625 
Q 46.296875 72.90625 52.390625 68.21875 
Q 58.5 63.53125 58.5 54.890625 
Q 58.5 48.1875 55.375 44.234375 
Q 52.25 40.28125 46.1875 39.3125 
Q 53.46875 37.75 57.5 32.78125 
Q 61.53125 27.828125 61.53125 20.40625 
Q 61.53125 10.640625 54.890625 5.3125 
Q 48.25 0 35.984375 0 
L 9.8125 0 
z
" id="DejaVuSans-66"/>
      <path d="M 32.171875 -5.078125 
Q 28.375 -14.84375 24.75 -17.8125 
Q 21.140625 -20.796875 15.09375 -20.796875 
L 7.90625 -20.796875 
L 7.90625 -13.28125 
L 13.1875 -13.28125 
Q 16.890625 -13.28125 18.9375 -11.515625 
Q 21 -9.765625 23.484375 -3.21875 
L 25.09375 0.875 
L 2.984375 54.6875 
L 12.5 54.6875 
L 29.59375 11.921875 
L 46.6875 54.6875 
L 56.203125 54.6875 
z
" id="DejaVuSans-121"/>
      <path d="M 48.6875 27.296875 
Q 48.6875 37.203125 44.609375 42.84375 
Q 40.53125 48.484375 33.40625 48.484375 
Q 26.265625 48.484375 22.1875 42.84375 
Q 18.109375 37.203125 18.109375 27.296875 
Q 18.109375 17.390625 22.1875 11.75 
Q 26.265625 6.109375 33.40625 6.109375 
Q 40.53125 6.109375 44.609375 11.75 
Q 48.6875 17.390625 48.6875 27.296875 
z
M 18.109375 46.390625 
Q 20.953125 51.265625 25.265625 53.625 
Q 29.59375 56 35.59375 56 
Q 45.5625 56 51.78125 48.09375 
Q 58.015625 40.1875 58.015625 27.296875 
Q 58.015625 14.40625 51.78125 6.484375 
Q 45.5625 -1.421875 35.59375 -1.421875 
Q 29.59375 -1.421875 25.265625 0.953125 
Q 20.953125 3.328125 18.109375 8.203125 
L 18.109375 0 
L 9.078125 0 
L 9.078125 75.984375 
L 18.109375 75.984375 
z
" id="DejaVuSans-98"/>
     </defs>
     <g transform="translate(90.107812 424.722656)rotate(-90)scale(0.1 -0.1)">
      <use xlink:href="#DejaVuSans-77"/>
      <use x="86.279297" xlink:href="#DejaVuSans-97"/>
      <use x="147.558594" xlink:href="#DejaVuSans-120"/>
      <use x="206.738281" xlink:href="#DejaVuSans-105"/>
      <use x="234.521484" xlink:href="#DejaVuSans-109"/>
      <use x="331.933594" xlink:href="#DejaVuSans-117"/>
      <use x="395.3125" xlink:href="#DejaVuSans-109"/>
      <use x="492.724609" xlink:href="#DejaVuSans-32"/>
      <use x="524.511719" xlink:href="#DejaVuSans-66"/>
      <use x="593.115234" xlink:href="#DejaVuSans-111"/>
      <use x="654.296875" xlink:href="#DejaVuSans-100"/>
      <use x="717.773438" xlink:href="#DejaVuSans-121"/>
      <use x="776.953125" xlink:href="#DejaVuSans-32"/>
      <use x="808.740234" xlink:href="#DejaVuSans-87"/>
      <use x="907.585938" xlink:href="#DejaVuSans-105"/>
      <use x="935.369141" xlink:href="#DejaVuSans-100"/>
      <use x="998.845703" xlink:href="#DejaVuSans-116"/>
      <use x="1038.054688" xlink:href="#DejaVuSans-104"/>
      <use x="1101.433594" xlink:href="#DejaVuSans-32"/>
      <use x="1133.220703" xlink:href="#DejaVuSans-40"/>
      <use x="1172.234375" xlink:href="#DejaVuSans-76"/>
      <use x="1227.947266" xlink:href="#DejaVuSans-98"/>
      <use x="1291.423828" xlink:href="#DejaVuSans-41"/>
     </g>
    </g>
   </g>
   <g id="line2d_17">
    <path clip-path="url(#p78fe7e27e7)" d="M 135 630 
L 140.721165 624.509091 
L 146.442331 619.018182 
L 152.163496 613.527273 
L 157.884662 608.036364 
L 163.605827 602.545455 
L 169.326993 597.054545 
L 175.048158 591.563636 
L 180.769324 586.072727 
L 186.490489 580.581818 
L 192.211655 575.090909 
L 197.93282 569.6 
L 203.653986 564.109091 
L 209.375151 558.618182 
L 215.096317 553.127273 
L 220.817482 547.636364 
L 226.538647 542.145455 
L 232.259813 536.654545 
L 237.980978 531.163636 
L 243.702144 525.672727 
L 249.423309 520.181818 
L 255.144475 514.690909 
L 260.86564 509.2 
L 266.586806 503.709091 
L 272.307971 498.218182 
L 278.029137 492.727273 
L 283.750302 487.236364 
L 289.471468 481.745455 
L 295.192633 476.254545 
L 300.913799 470.763636 
L 306.634964 465.272727 
L 312.35613 459.781818 
L 318.077295 454.290909 
L 323.79846 448.8 
L 329.519626 443.309091 
L 335.240791 437.818182 
L 340.961957 432.327273 
L 346.683122 426.836364 
L 352.404288 421.345455 
L 358.125453 415.854545 
L 363.846619 410.363636 
L 369.567784 404.872727 
L 375.28895 399.381818 
L 381.010115 393.890909 
L 386.731281 388.4 
L 392.452446 382.909091 
L 398.173612 377.418182 
L 403.894777 371.927273 
L 409.615942 366.436364 
L 415.337108 360.945455 
L 421.058273 355.454545 
L 426.779439 349.963636 
L 432.500604 344.472727 
L 438.22177 338.981818 
L 443.942935 333.490909 
L 449.664101 328 
L 455.385266 322.509091 
L 461.106432 317.018182 
L 466.827597 311.527273 
L 472.548763 306.036364 
L 478.269928 300.545455 
L 483.991094 295.054545 
L 489.712259 289.563636 
L 495.433425 284.072727 
L 501.15459 278.581818 
L 506.875755 273.090909 
L 512.596921 267.6 
L 518.318086 262.109091 
L 524.039252 256.618182 
L 529.760417 251.127273 
L 535.481583 245.636364 
L 541.202748 240.145455 
L 546.923914 234.654545 
L 552.645079 229.163636 
L 558.366245 223.672727 
L 564.08741 218.181818 
L 569.808576 212.690909 
L 575.529741 207.2 
L 581.250907 201.709091 
L 586.972072 196.218182 
L 592.693237 190.727273 
L 598.414403 185.236364 
L 604.135568 179.745455 
L 609.856734 174.254545 
L 615.577899 168.763636 
L 621.299065 163.272727 
L 627.02023 157.781818 
L 632.741396 152.290909 
L 638.462561 146.8 
L 644.183727 141.309091 
L 649.904892 135.818182 
L 655.626058 130.327273 
L 661.347223 124.836364 
L 667.068389 119.345455 
L 672.789554 113.854545 
L 678.51072 108.363636 
L 684.231885 102.872727 
L 689.95305 97.381818 
L 695.674216 91.890909 
L 701.395381 86.4 
" style="fill:none;stroke:#000000;stroke-linecap:square;stroke-width:1.5;"/>
   </g>
   <g id="line2d_18">
    <path clip-path="url(#p78fe7e27e7)" d="M 135 630 
L 152.163496 624.509091 
L 169.326993 619.018182 
L 186.490489 613.527273 
L 203.653986 608.036364 
L 220.817482 602.545455 
L 237.980978 597.054545 
L 255.144475 591.563636 
L 272.307971 586.072727 
L 289.471468 580.581818 
L 306.634964 575.090909 
L 323.79846 569.6 
L 340.961957 564.109091 
L 358.125453 558.618182 
L 375.28895 553.127273 
L 392.452446 547.636364 
L 409.615942 542.145455 
L 426.779439 536.654545 
L 443.942935 531.163636 
L 461.106432 525.672727 
L 478.269928 520.181818 
L 495.433425 514.690909 
L 512.596921 509.2 
L 529.760417 503.709091 
L 546.923914 498.218182 
L 564.08741 492.727273 
L 581.250907 487.236364 
L 598.414403 481.745455 
L 615.577899 476.254545 
L 632.741396 470.763636 
L 649.904892 465.272727 
L 667.068389 459.781818 
L 684.231885 454.290909 
L 701.395381 448.8 
L 718.558878 443.309091 
L 735.722374 437.818182 
L 752.885871 432.327273 
L 770.049367 426.836364 
L 787.212863 421.345455 
L 804.37636 415.854545 
L 821.539856 410.363636 
L 838.703353 404.872727 
L 855.866849 399.381818 
L 873.030345 393.890909 
L 890.193842 388.4 
L 907.357338 382.909091 
L 924.520835 377.418182 
L 941.684331 371.927273 
L 958.847827 366.436364 
L 976.011324 360.945455 
L 993.17482 355.454545 
L 1010.338317 349.963636 
L 1027.501813 344.472727 
L 1044.665309 338.981818 
L 1061.828806 333.490909 
L 1078.992302 328 
L 1081 327.357702 
" style="fill:none;stroke:#ff0000;stroke-dasharray:5.55,2.4;stroke-dashoffset:0;stroke-width:1.5;"/>
   </g>
   <g id="patch_3">
    <path d="M 135 630 
L 135 86.4 
" style="fill:none;stroke:#000000;stroke-linecap:square;stroke-linejoin:miter;stroke-width:0.8;"/>
   </g>
   <g id="patch_4">
    <path d="M 972 630 
L 972 86.4 
" style="fill:none;stroke:#000000;stroke-linecap:square;stroke-linejoin:miter;stroke-width:0.8;"/>
   </g>
   <g id="patch_5">
    <path d="M 135 630 
L 972 630 
" style="fill:none;stroke:#000000;stroke-linecap:square;stroke-linejoin:miter;stroke-width:0.8;"/>
   </g>
   <g id="patch_6">
    <path d="M 135 86.4 
L 972 86.4 
" style="fill:none;stroke:#000000;stroke-linecap:square;stroke-linejoin:miter;stroke-width:0.8;"/>
   </g>
   <g id="legend_1">
    <g id="patch_7">
     <path d="M 895.378125 226.503125 
L 965 226.503125 
Q 967 226.503125 967 224.503125 
L 967 93.4 
Q 967 91.4 965 91.4 
L 895.378125 91.4 
Q 893.378125 91.4 893.378125 93.4 
L 893.378125 224.503125 
Q 893.378125 226.503125 895.378125 226.503125 
z
" style="fill:#ffffff;opacity:0.8;stroke:#cccccc;stroke-linejoin:miter;"/>
    </g>
    <g id="line2d_19">
     <path d="M 897.378125 99.498438 
L 917.378125 99.498438 
" style="fill:none;stroke:#000000;stroke-linecap:square;stroke-width:1.5;"/>
    </g>
    <g id="line2d_20"/>
    <g id="text_19">
     <!-- C = 1.0 -->
     <defs>
      <path d="M 64.40625 67.28125 
L 64.40625 56.890625 
Q 59.421875 61.53125 53.78125 63.8125 
Q 48.140625 66.109375 41.796875 66.109375 
Q 29.296875 66.109375 22.65625 58.46875 
Q 16.015625 50.828125 16.015625 36.375 
Q 16.015625 21.96875 22.65625 14.328125 
Q 29.296875 6.6875 41.796875 6.6875 
Q 48.140625 6.6875 53.78125 8.984375 
Q 59.421875 11.28125 64.40625 15.921875 
L 64.40625 5.609375 
Q 59.234375 2.09375 53.4375 0.328125 
Q 47.65625 -1.421875 41.21875 -1.421875 
Q 24.65625 -1.421875 15.125 8.703125 
Q 5.609375 18.84375 5.609375 36.375 
Q 5.609375 53.953125 15.125 64.078125 
Q 24.65625 74.21875 41.21875 74.21875 
Q 47.75 74.21875 53.53125 72.484375 
Q 59.328125 70.75 64.40625 67.28125 
z
" id="DejaVuSans-67"/>
      <path d="M 10.59375 45.40625 
L 73.1875 45.40625 
L 73.1875 37.203125 
L 10.59375 37.203125 
z
M 10.59375 25.484375 
L 73.1875 25.484375 
L 73.1875 17.1875 
L 10.59375 17.1875 
z
" id="DejaVuSans-61"/>
      <path d="M 10.6875 12.40625 
L 21 12.40625 
L 21 0 
L 10.6875 0 
z
" id="DejaVuSans-46"/>
     </defs>
     <g transform="translate(925.378125 102.998438)scale(0.1 -0.1)">
      <use xlink:href="#DejaVuSans-67"/>
      <use x="69.824219" xlink:href="#DejaVuSans-32"/>
      <use x="101.611328" xlink:href="#DejaVuSans-61"/>
      <use x="185.400391" xlink:href="#DejaVuSans-32"/>
      <use x="217.1875" xlink:href="#DejaVuSans-49"/>
      <use x="280.810547" xlink:href="#DejaVuSans-46"/>
      <use x="312.597656" xlink:href="#DejaVuSans-48"/>
     </g>
    </g>
    <g id="line2d_21">
     <path d="M 897.378125 114.176563 
L 917.378125 114.176563 
" style="fill:none;stroke:#ff0000;stroke-dasharray:5.55,2.4;stroke-dashoffset:0;stroke-width:1.5;"/>
    </g>
    <g id="line2d_22"/>
    <g id="text_20">
     <!-- C &lt; 0.3 -->
     <defs>
      <path d="M 73.1875 49.21875 
L 22.796875 31.296875 
L 73.1875 13.484375 
L 73.1875 4.59375 
L 10.59375 27.296875 
L 10.59375 35.40625 
L 73.1875 58.109375 
z
" id="DejaVuSans-60"/>
     </defs>
     <g transform="translate(925.378125 117.676563)scale(0.1 -0.1)">
      <use xlink:href="#DejaVuSans-67"/>
      <use x="69.824219" xlink:href="#DejaVuSans-32"/>
      <use x="101.611328" xlink:href="#DejaVuSans-60"/>
      <use x="185.400391" xlink:href="#DejaVuSans-32"/>
      <use x="217.1875" xlink:href="#DejaVuSans-48"/>
      <use x="280.810547" xlink:href="#DejaVuSans-46"/>
      <use x="312.597656" xlink:href="#DejaVuSans-51"/>
     </g>
    </g>
    <g id="PathCollection_8">
     <g>
      <use style="fill:#ff0000;fill-opacity:0.9;stroke:#ff0000;stroke-opacity:0.9;" x="907.378125" xlink:href="#mda5c5c9a85" y="129.729688"/>
     </g>
    </g>
    <g id="text_21">
     <!-- 0.0 -->
     <g transform="translate(925.378125 132.354688)scale(0.1 -0.1)">
      <use xlink:href="#DejaVuSans-48"/>
      <use x="63.623047" xlink:href="#DejaVuSans-46"/>
      <use x="95.410156" xlink:href="#DejaVuSans-48"/>
     </g>
    </g>
    <g id="PathCollection_9">
     <g>
      <use style="fill:#0000ff;fill-opacity:0.9;stroke:#0000ff;stroke-opacity:0.9;" x="907.378125" xlink:href="#me5adb968d6" y="144.407812"/>
     </g>
    </g>
    <g id="text_22">
     <!-- 1.0 -->
     <g transform="translate(925.378125 147.032812)scale(0.1 -0.1)">
      <use xlink:href="#DejaVuSans-49"/>
      <use x="63.623047" xlink:href="#DejaVuSans-46"/>
      <use x="95.410156" xlink:href="#DejaVuSans-48"/>
     </g>
    </g>
    <g id="PathCollection_10">
     <g>
      <use style="fill:#008000;fill-opacity:0.9;stroke:#008000;stroke-opacity:0.9;" x="907.378125" xlink:href="#m1905df93a9" y="159.085938"/>
     </g>
    </g>
    <g id="text_23">
     <!-- 2.0 -->
     <g transform="translate(925.378125 161.710938)scale(0.1 -0.1)">
      <use xlink:href="#DejaVuSans-50"/>
      <use x="63.623047" xlink:href="#DejaVuSans-46"/>
      <use x="95.410156" xlink:href="#DejaVuSans-48"/>
     </g>
    </g>
    <g id="PathCollection_11">
     <g>
      <use style="fill-opacity:0.9;stroke:#000000;stroke-opacity:0.9;" x="907.378125" xlink:href="#m65b4656174" y="173.764063"/>
     </g>
    </g>
    <g id="text_24">
     <!-- 3.0 -->
     <g transform="translate(925.378125 176.389063)scale(0.1 -0.1)">
      <use xlink:href="#DejaVuSans-51"/>
      <use x="63.623047" xlink:href="#DejaVuSans-46"/>
      <use x="95.410156" xlink:href="#DejaVuSans-48"/>
     </g>
    </g>
    <g id="PathCollection_12">
     <g>
      <use style="fill:#bfbf00;fill-opacity:0.9;stroke:#bfbf00;stroke-opacity:0.9;" x="907.378125" xlink:href="#md1a0cdf285" y="188.442188"/>
     </g>
    </g>
    <g id="text_25">
     <!-- 4.0 -->
     <g transform="translate(925.378125 191.067188)scale(0.1 -0.1)">
      <use xlink:href="#DejaVuSans-52"/>
      <use x="63.623047" xlink:href="#DejaVuSans-46"/>
      <use x="95.410156" xlink:href="#DejaVuSans-48"/>
     </g>
    </g>
    <g id="PathCollection_13">
     <g>
      <use style="fill:#800080;fill-opacity:0.9;stroke:#800080;stroke-opacity:0.9;" x="907.378125" xlink:href="#mc66ccebcdb" y="203.120312"/>
     </g>
    </g>
    <g id="text_26">
     <!-- 5.0 -->
     <g transform="translate(925.378125 205.745312)scale(0.1 -0.1)">
      <use xlink:href="#DejaVuSans-53"/>
      <use x="63.623047" xlink:href="#DejaVuSans-46"/>
      <use x="95.410156" xlink:href="#DejaVuSans-48"/>
     </g>
    </g>
    <g id="PathCollection_14">
     <g>
      <use style="fill:#ffa500;fill-opacity:0.9;stroke:#ffa500;stroke-opacity:0.9;" x="907.378125" xlink:href="#m931c55ce4d" y="217.798437"/>
     </g>
    </g>
    <g id="text_27">
     <!-- 6.0 -->
     <g transform="translate(925.378125 220.423437)scale(0.1 -0.1)">
      <use xlink:href="#DejaVuSans-54"/>
      <use x="63.623047" xlink:href="#DejaVuSans-46"/>
      <use x="95.410156" xlink:href="#DejaVuSans-48"/>
     </g>
    </g>
   </g>
  </g>
 </g>
 <defs>
  <clipPath id="p78fe7e27e7">
   <rect height="543.6" width="837" x="135" y="86.4"/>
  </clipPath>
 </defs>
</svg>
