<?xml version="1.0" encoding="utf-8" standalone="no"?>
<!DOCTYPE svg PUBLIC "-//W3C//DTD SVG 1.1//EN"
  "http://www.w3.org/Graphics/SVG/1.1/DTD/svg11.dtd">
<!-- Created with matplotlib (https://matplotlib.org/) -->
<svg height="720pt" version="1.1" viewBox="0 0 1080 720" width="1080pt" xmlns="http://www.w3.org/2000/svg" xmlns:xlink="http://www.w3.org/1999/xlink">
 <defs>
  <style type="text/css">
*{stroke-linecap:butt;stroke-linejoin:round;}
  </style>
 </defs>
 <g id="figure_1">
  <g id="patch_1">
   <path d="M 0 720 
L 1080 720 
L 1080 0 
L 0 0 
z
" style="fill:#ffffff;"/>
  </g>
  <g id="axes_1">
   <g id="patch_2">
    <path d="M 135 630 
L 972 630 
L 972 86.4 
L 135 86.4 
z
" style="fill:#ffffff;"/>
   </g>
   <g id="PathCollection_1">
    <defs>
     <path d="M 0 3 
C 0.795609 3 1.55874 2.683901 2.12132 2.12132 
C 2.683901 1.55874 3 0.795609 3 0 
C 3 -0.795609 2.683901 -1.55874 2.12132 -2.12132 
C 1.55874 -2.683901 0.795609 -3 0 -3 
C -0.795609 -3 -1.55874 -2.683901 -2.12132 -2.12132 
C -2.683901 -1.55874 -3 -0.795609 -3 0 
C -3 0.795609 -2.683901 1.55874 -2.12132 2.12132 
C -1.55874 2.683901 -0.795609 3 0 3 
z
" id="C0_0_81dae9ea58"/>
    </defs>
    <g clip-path="url(#pd47f223df8)">
     <use style="fill:#ffa500;stroke:#ffa500;" x="142.749468" xlink:href="#C0_0_81dae9ea58" y="538.406605"/>
    </g>
    <g clip-path="url(#pd47f223df8)">
     <use style="stroke:#000000;" x="167.26075" xlink:href="#C0_0_81dae9ea58" y="401.286621"/>
    </g>
    <g clip-path="url(#pd47f223df8)">
     <use style="fill:#008000;stroke:#008000;" x="231.897058" xlink:href="#C0_0_81dae9ea58" y="252.70058"/>
    </g>
    <g clip-path="url(#pd47f223df8)">
     <use style="fill:#ffa500;stroke:#ffa500;" x="160.487141" xlink:href="#C0_0_81dae9ea58" y="566.317696"/>
    </g>
    <g clip-path="url(#pd47f223df8)">
     <use style="fill:#ff0000;stroke:#ff0000;" x="158.765037" xlink:href="#C0_0_81dae9ea58" y="591.2441"/>
    </g>
    <g clip-path="url(#pd47f223df8)">
     <use style="fill:#0000ff;stroke:#0000ff;" x="227.591798" xlink:href="#C0_0_81dae9ea58" y="486.028293"/>
    </g>
    <g clip-path="url(#pd47f223df8)">
     <use style="fill:#800080;stroke:#800080;" x="539.292641" xlink:href="#C0_0_81dae9ea58" y="86.4"/>
    </g>
    <g clip-path="url(#pd47f223df8)">
     <use style="fill:#ffa500;stroke:#ffa500;" x="232.011865" xlink:href="#C0_0_81dae9ea58" y="509.770727"/>
    </g>
    <g clip-path="url(#pd47f223df8)">
     <use style="stroke:#000000;" x="334.304849" xlink:href="#C0_0_81dae9ea58" y="396.35266"/>
    </g>
    <g clip-path="url(#pd47f223df8)">
     <use style="fill:#ff0000;stroke:#ff0000;" x="162.668473" xlink:href="#C0_0_81dae9ea58" y="601.021986"/>
    </g>
    <g clip-path="url(#pd47f223df8)">
     <use style="fill:#ff0000;stroke:#ff0000;" x="151.647006" xlink:href="#C0_0_81dae9ea58" y="612.920213"/>
    </g>
    <g clip-path="url(#pd47f223df8)">
     <use style="fill:#ff0000;stroke:#ff0000;" x="191.599822" xlink:href="#C0_0_81dae9ea58" y="574.452428"/>
    </g>
    <g clip-path="url(#pd47f223df8)">
     <use style="fill:#ffa500;stroke:#ffa500;" x="245.386873" xlink:href="#C0_0_81dae9ea58" y="523.064509"/>
    </g>
    <g clip-path="url(#pd47f223df8)">
     <use style="fill:#ffa500;stroke:#ffa500;" x="216.627735" xlink:href="#C0_0_81dae9ea58" y="552.695283"/>
    </g>
    <g clip-path="url(#pd47f223df8)">
     <use style="fill:#ffa500;stroke:#ffa500;" x="256.810164" xlink:href="#C0_0_81dae9ea58" y="516.919567"/>
    </g>
    <g clip-path="url(#pd47f223df8)">
     <use style="fill:#ffa500;stroke:#ffa500;" x="207.156162" xlink:href="#C0_0_81dae9ea58" y="564.147834"/>
    </g>
    <g clip-path="url(#pd47f223df8)">
     <use style="fill:#ff0000;stroke:#ff0000;" x="170.130924" xlink:href="#C0_0_81dae9ea58" y="598.730575"/>
    </g>
    <g clip-path="url(#pd47f223df8)">
     <use style="fill:#008000;stroke:#008000;" x="517.307112" xlink:href="#C0_0_81dae9ea58" y="302.337303"/>
    </g>
    <g clip-path="url(#pd47f223df8)">
     <use style="fill:#ff0000;stroke:#ff0000;" x="199.808518" xlink:href="#C0_0_81dae9ea58" y="574.830578"/>
    </g>
    <g clip-path="url(#pd47f223df8)">
     <use style="fill:#ff0000;stroke:#ff0000;" x="175.412043" xlink:href="#C0_0_81dae9ea58" y="599.369829"/>
    </g>
    <g clip-path="url(#pd47f223df8)">
     <use style="fill:#ffa500;stroke:#ffa500;" x="244.296207" xlink:href="#C0_0_81dae9ea58" y="553.145462"/>
    </g>
    <g clip-path="url(#pd47f223df8)">
     <use style="fill:#ff0000;stroke:#ff0000;" x="173.230711" xlink:href="#C0_0_81dae9ea58" y="604.902527"/>
    </g>
    <g clip-path="url(#pd47f223df8)">
     <use style="fill:#ff0000;stroke:#ff0000;" x="208.533845" xlink:href="#C0_0_81dae9ea58" y="582.86177"/>
    </g>
    <g clip-path="url(#pd47f223df8)">
     <use style="stroke:#000000;" x="548.075372" xlink:href="#C0_0_81dae9ea58" y="368.576623"/>
    </g>
    <g clip-path="url(#pd47f223df8)">
     <use style="stroke:#000000;" x="542.449832" xlink:href="#C0_0_81dae9ea58" y="411.154542"/>
    </g>
    <g clip-path="url(#pd47f223df8)">
     <use style="fill:#ffa500;stroke:#ffa500;" x="294.639051" xlink:href="#C0_0_81dae9ea58" y="544.866672"/>
    </g>
    <g clip-path="url(#pd47f223df8)">
     <use style="fill:#0000ff;stroke:#0000ff;" x="405.886976" xlink:href="#C0_0_81dae9ea58" y="490.894726"/>
    </g>
    <g clip-path="url(#pd47f223df8)">
     <use style="fill:#ffa500;stroke:#ffa500;" x="347.048419" xlink:href="#C0_0_81dae9ea58" y="523.159047"/>
    </g>
    <g clip-path="url(#pd47f223df8)">
     <use style="fill:#ff0000;stroke:#ff0000;" x="219.497908" xlink:href="#C0_0_81dae9ea58" y="589.38036"/>
    </g>
    <g clip-path="url(#pd47f223df8)">
     <use style="fill:#ff0000;stroke:#ff0000;" x="223.458748" xlink:href="#C0_0_81dae9ea58" y="587.638167"/>
    </g>
    <g clip-path="url(#pd47f223df8)">
     <use style="fill:#ffa500;stroke:#ffa500;" x="329.02373" xlink:href="#C0_0_81dae9ea58" y="539.302461"/>
    </g>
    <g clip-path="url(#pd47f223df8)">
     <use style="fill:#0000ff;stroke:#0000ff;" x="535.905836" xlink:href="#C0_0_81dae9ea58" y="448.870528"/>
    </g>
    <g clip-path="url(#pd47f223df8)">
     <use style="fill:#008000;stroke:#008000;" x="863.335231" xlink:href="#C0_0_81dae9ea58" y="335.925149"/>
    </g>
    <g clip-path="url(#pd47f223df8)">
     <use style="fill:#ffa500;stroke:#ffa500;" x="421.50072" xlink:href="#C0_0_81dae9ea58" y="518.810319"/>
    </g>
    <g clip-path="url(#pd47f223df8)">
     <use style="fill:#0000ff;stroke:#0000ff;" x="615.52445" xlink:href="#C0_0_81dae9ea58" y="457.495955"/>
    </g>
    <g clip-path="url(#pd47f223df8)">
     <use style="fill:#ff0000;stroke:#ff0000;" x="236.89116" xlink:href="#C0_0_81dae9ea58" y="593.567023"/>
    </g>
    <g clip-path="url(#pd47f223df8)">
     <use style="fill:#ffa500;stroke:#ffa500;" x="338.839723" xlink:href="#C0_0_81dae9ea58" y="557.201573"/>
    </g>
    <g clip-path="url(#pd47f223df8)">
     <use style="fill:#ffa500;stroke:#ffa500;" x="326.153556" xlink:href="#C0_0_81dae9ea58" y="564.458457"/>
    </g>
    <g clip-path="url(#pd47f223df8)">
     <use style="fill:#ff0000;stroke:#ff0000;" x="289.587545" xlink:href="#C0_0_81dae9ea58" y="578.08087"/>
    </g>
    <g clip-path="url(#pd47f223df8)">
     <use style="fill:#ff0000;stroke:#ff0000;" x="222.769906" xlink:href="#C0_0_81dae9ea58" y="601.98987"/>
    </g>
    <g clip-path="url(#pd47f223df8)">
     <use style="fill:#ffa500;stroke:#ffa500;" x="350.837048" xlink:href="#C0_0_81dae9ea58" y="564.652034"/>
    </g>
    <g clip-path="url(#pd47f223df8)">
     <use style="fill:#0000ff;stroke:#0000ff;" x="663.398944" xlink:href="#C0_0_81dae9ea58" y="472.878568"/>
    </g>
    <g clip-path="url(#pd47f223df8)">
     <use style="fill:#ff0000;stroke:#ff0000;" x="184.252177" xlink:href="#C0_0_81dae9ea58" y="615.778849"/>
    </g>
    <g clip-path="url(#pd47f223df8)">
     <use style="fill:#0000ff;stroke:#0000ff;" x="768.389891" xlink:href="#C0_0_81dae9ea58" y="453.030181"/>
    </g>
    <g clip-path="url(#pd47f223df8)">
     <use style="fill:#ff0000;stroke:#ff0000;" x="193.494136" xlink:href="#C0_0_81dae9ea58" y="614.275252"/>
    </g>
    <g clip-path="url(#pd47f223df8)">
     <use style="stroke:#000000;" x="949.038612" xlink:href="#C0_0_81dae9ea58" y="425.299162"/>
    </g>
    <g clip-path="url(#pd47f223df8)">
     <use style="fill:#0000ff;stroke:#0000ff;" x="753.866813" xlink:href="#C0_0_81dae9ea58" y="476.939181"/>
    </g>
    <g clip-path="url(#pd47f223df8)">
     <use style="fill:#bfbf00;stroke:#bfbf00;" x="576.432686" xlink:href="#C0_0_81dae9ea58" y="525.851116"/>
    </g>
    <g clip-path="url(#pd47f223df8)">
     <use style="fill:#ff0000;stroke:#ff0000;" x="295.040875" xlink:href="#C0_0_81dae9ea58" y="593.7606"/>
    </g>
    <g clip-path="url(#pd47f223df8)">
     <use style="fill:#ff0000;stroke:#ff0000;" x="356.577395" xlink:href="#C0_0_81dae9ea58" y="586.440692"/>
    </g>
    <g clip-path="url(#pd47f223df8)">
     <use style="fill:#ffa500;stroke:#ffa500;" x="458.411151" xlink:href="#C0_0_81dae9ea58" y="566.853409"/>
    </g>
    <g clip-path="url(#pd47f223df8)">
     <use style="fill:#ff0000;stroke:#ff0000;" x="437.114464" xlink:href="#C0_0_81dae9ea58" y="574.794564"/>
    </g>
    <g clip-path="url(#pd47f223df8)">
     <use style="fill:#ff0000;stroke:#ff0000;" x="207.385776" xlink:href="#C0_0_81dae9ea58" y="618.27284"/>
    </g>
    <g clip-path="url(#pd47f223df8)">
     <use style="fill:#bfbf00;stroke:#bfbf00;" x="871.027296" xlink:href="#C0_0_81dae9ea58" y="517.639854"/>
    </g>
    <g clip-path="url(#pd47f223df8)">
     <use style="fill:#bfbf00;stroke:#bfbf00;" x="972" xlink:href="#C0_0_81dae9ea58" y="504.503634"/>
    </g>
    <g clip-path="url(#pd47f223df8)">
     <use style="fill:#bfbf00;stroke:#bfbf00;" x="868.903367" xlink:href="#C0_0_81dae9ea58" y="520.809113"/>
    </g>
    <g clip-path="url(#pd47f223df8)">
     <use style="fill:#ff0000;stroke:#ff0000;" x="355.888554" xlink:href="#C0_0_81dae9ea58" y="599.414847"/>
    </g>
    <g clip-path="url(#pd47f223df8)">
     <use style="fill:#bfbf00;stroke:#bfbf00;" x="708.862492" xlink:href="#C0_0_81dae9ea58" y="551.164675"/>
    </g>
    <g clip-path="url(#pd47f223df8)">
     <use style="fill:#bfbf00;stroke:#bfbf00;" x="756.392566" xlink:href="#C0_0_81dae9ea58" y="550.241808"/>
    </g>
    <g clip-path="url(#pd47f223df8)">
     <use style="fill:#ff0000;stroke:#ff0000;" x="427.298471" xlink:href="#C0_0_81dae9ea58" y="599.932553"/>
    </g>
    <g clip-path="url(#pd47f223df8)">
     <use style="fill:#ff0000;stroke:#ff0000;" x="338.724916" xlink:href="#C0_0_81dae9ea58" y="610.250653"/>
    </g>
    <g clip-path="url(#pd47f223df8)">
     <use style="fill:#bfbf00;stroke:#bfbf00;" x="877.973116" xlink:href="#C0_0_81dae9ea58" y="559.5335"/>
    </g>
    <g clip-path="url(#pd47f223df8)">
     <use style="fill:#bfbf00;stroke:#bfbf00;" x="872.060558" xlink:href="#C0_0_81dae9ea58" y="562.572207"/>
    </g>
    <g clip-path="url(#pd47f223df8)">
     <use style="fill:#bfbf00;stroke:#bfbf00;" x="943.240861" xlink:href="#C0_0_81dae9ea58" y="558.336024"/>
    </g>
    <g clip-path="url(#pd47f223df8)">
     <use style="fill:#ff0000;stroke:#ff0000;" x="615.754064" xlink:href="#C0_0_81dae9ea58" y="591.140559"/>
    </g>
    <g clip-path="url(#pd47f223df8)">
     <use style="fill:#ff0000;stroke:#ff0000;" x="488.949798" xlink:href="#C0_0_81dae9ea58" y="601.526186"/>
    </g>
    <g clip-path="url(#pd47f223df8)">
     <use style="fill:#ff0000;stroke:#ff0000;" x="540.957342" xlink:href="#C0_0_81dae9ea58" y="601.971863"/>
    </g>
    <g clip-path="url(#pd47f223df8)">
     <use style="fill:#ff0000;stroke:#ff0000;" x="199.004869" xlink:href="#C0_0_81dae9ea58" y="594.219783"/>
    </g>
   </g>
   <g id="matplotlib.axis_1">
    <g id="xtick_1">
     <g id="line2d_1">
      <defs>
       <path d="M 0 0 
L 0 3.5 
" id="m1ec55931f3" style="stroke:#000000;stroke-width:0.8;"/>
      </defs>
      <g>
       <use style="stroke:#000000;stroke-width:0.8;" x="135" xlink:href="#m1ec55931f3" y="630"/>
      </g>
     </g>
     <g id="text_1">
      <!-- 0 -->
      <defs>
       <path d="M 31.78125 66.40625 
Q 24.171875 66.40625 20.328125 58.90625 
Q 16.5 51.421875 16.5 36.375 
Q 16.5 21.390625 20.328125 13.890625 
Q 24.171875 6.390625 31.78125 6.390625 
Q 39.453125 6.390625 43.28125 13.890625 
Q 47.125 21.390625 47.125 36.375 
Q 47.125 51.421875 43.28125 58.90625 
Q 39.453125 66.40625 31.78125 66.40625 
z
M 31.78125 74.21875 
Q 44.046875 74.21875 50.515625 64.515625 
Q 56.984375 54.828125 56.984375 36.375 
Q 56.984375 17.96875 50.515625 8.265625 
Q 44.046875 -1.421875 31.78125 -1.421875 
Q 19.53125 -1.421875 13.0625 8.265625 
Q 6.59375 17.96875 6.59375 36.375 
Q 6.59375 54.828125 13.0625 64.515625 
Q 19.53125 74.21875 31.78125 74.21875 
z
" id="DejaVuSans-48"/>
      </defs>
      <g transform="translate(131.81875 644.598438)scale(0.1 -0.1)">
       <use xlink:href="#DejaVuSans-48"/>
      </g>
     </g>
    </g>
    <g id="xtick_2">
     <g id="line2d_2">
      <g>
       <use style="stroke:#000000;stroke-width:0.8;" x="249.806941" xlink:href="#m1ec55931f3" y="630"/>
      </g>
     </g>
     <g id="text_2">
      <!-- 2000 -->
      <defs>
       <path d="M 19.1875 8.296875 
L 53.609375 8.296875 
L 53.609375 0 
L 7.328125 0 
L 7.328125 8.296875 
Q 12.9375 14.109375 22.625 23.890625 
Q 32.328125 33.6875 34.8125 36.53125 
Q 39.546875 41.84375 41.421875 45.53125 
Q 43.3125 49.21875 43.3125 52.78125 
Q 43.3125 58.59375 39.234375 62.25 
Q 35.15625 65.921875 28.609375 65.921875 
Q 23.96875 65.921875 18.8125 64.3125 
Q 13.671875 62.703125 7.8125 59.421875 
L 7.8125 69.390625 
Q 13.765625 71.78125 18.9375 73 
Q 24.125 74.21875 28.421875 74.21875 
Q 39.75 74.21875 46.484375 68.546875 
Q 53.21875 62.890625 53.21875 53.421875 
Q 53.21875 48.921875 51.53125 44.890625 
Q 49.859375 40.875 45.40625 35.40625 
Q 44.1875 33.984375 37.640625 27.21875 
Q 31.109375 20.453125 19.1875 8.296875 
z
" id="DejaVuSans-50"/>
      </defs>
      <g transform="translate(237.081941 644.598438)scale(0.1 -0.1)">
       <use xlink:href="#DejaVuSans-50"/>
       <use x="63.623047" xlink:href="#DejaVuSans-48"/>
       <use x="127.246094" xlink:href="#DejaVuSans-48"/>
       <use x="190.869141" xlink:href="#DejaVuSans-48"/>
      </g>
     </g>
    </g>
    <g id="xtick_3">
     <g id="line2d_3">
      <g>
       <use style="stroke:#000000;stroke-width:0.8;" x="364.613881" xlink:href="#m1ec55931f3" y="630"/>
      </g>
     </g>
     <g id="text_3">
      <!-- 4000 -->
      <defs>
       <path d="M 37.796875 64.3125 
L 12.890625 25.390625 
L 37.796875 25.390625 
z
M 35.203125 72.90625 
L 47.609375 72.90625 
L 47.609375 25.390625 
L 58.015625 25.390625 
L 58.015625 17.1875 
L 47.609375 17.1875 
L 47.609375 0 
L 37.796875 0 
L 37.796875 17.1875 
L 4.890625 17.1875 
L 4.890625 26.703125 
z
" id="DejaVuSans-52"/>
      </defs>
      <g transform="translate(351.888881 644.598438)scale(0.1 -0.1)">
       <use xlink:href="#DejaVuSans-52"/>
       <use x="63.623047" xlink:href="#DejaVuSans-48"/>
       <use x="127.246094" xlink:href="#DejaVuSans-48"/>
       <use x="190.869141" xlink:href="#DejaVuSans-48"/>
      </g>
     </g>
    </g>
    <g id="xtick_4">
     <g id="line2d_4">
      <g>
       <use style="stroke:#000000;stroke-width:0.8;" x="479.420822" xlink:href="#m1ec55931f3" y="630"/>
      </g>
     </g>
     <g id="text_4">
      <!-- 6000 -->
      <defs>
       <path d="M 33.015625 40.375 
Q 26.375 40.375 22.484375 35.828125 
Q 18.609375 31.296875 18.609375 23.390625 
Q 18.609375 15.53125 22.484375 10.953125 
Q 26.375 6.390625 33.015625 6.390625 
Q 39.65625 6.390625 43.53125 10.953125 
Q 47.40625 15.53125 47.40625 23.390625 
Q 47.40625 31.296875 43.53125 35.828125 
Q 39.65625 40.375 33.015625 40.375 
z
M 52.59375 71.296875 
L 52.59375 62.3125 
Q 48.875 64.0625 45.09375 64.984375 
Q 41.3125 65.921875 37.59375 65.921875 
Q 27.828125 65.921875 22.671875 59.328125 
Q 17.53125 52.734375 16.796875 39.40625 
Q 19.671875 43.65625 24.015625 45.921875 
Q 28.375 48.1875 33.59375 48.1875 
Q 44.578125 48.1875 50.953125 41.515625 
Q 57.328125 34.859375 57.328125 23.390625 
Q 57.328125 12.15625 50.6875 5.359375 
Q 44.046875 -1.421875 33.015625 -1.421875 
Q 20.359375 -1.421875 13.671875 8.265625 
Q 6.984375 17.96875 6.984375 36.375 
Q 6.984375 53.65625 15.1875 63.9375 
Q 23.390625 74.21875 37.203125 74.21875 
Q 40.921875 74.21875 44.703125 73.484375 
Q 48.484375 72.75 52.59375 71.296875 
z
" id="DejaVuSans-54"/>
      </defs>
      <g transform="translate(466.695822 644.598438)scale(0.1 -0.1)">
       <use xlink:href="#DejaVuSans-54"/>
       <use x="63.623047" xlink:href="#DejaVuSans-48"/>
       <use x="127.246094" xlink:href="#DejaVuSans-48"/>
       <use x="190.869141" xlink:href="#DejaVuSans-48"/>
      </g>
     </g>
    </g>
    <g id="xtick_5">
     <g id="line2d_5">
      <g>
       <use style="stroke:#000000;stroke-width:0.8;" x="594.227762" xlink:href="#m1ec55931f3" y="630"/>
      </g>
     </g>
     <g id="text_5">
      <!-- 8000 -->
      <defs>
       <path d="M 31.78125 34.625 
Q 24.75 34.625 20.71875 30.859375 
Q 16.703125 27.09375 16.703125 20.515625 
Q 16.703125 13.921875 20.71875 10.15625 
Q 24.75 6.390625 31.78125 6.390625 
Q 38.8125 6.390625 42.859375 10.171875 
Q 46.921875 13.96875 46.921875 20.515625 
Q 46.921875 27.09375 42.890625 30.859375 
Q 38.875 34.625 31.78125 34.625 
z
M 21.921875 38.8125 
Q 15.578125 40.375 12.03125 44.71875 
Q 8.5 49.078125 8.5 55.328125 
Q 8.5 64.0625 14.71875 69.140625 
Q 20.953125 74.21875 31.78125 74.21875 
Q 42.671875 74.21875 48.875 69.140625 
Q 55.078125 64.0625 55.078125 55.328125 
Q 55.078125 49.078125 51.53125 44.71875 
Q 48 40.375 41.703125 38.8125 
Q 48.828125 37.15625 52.796875 32.3125 
Q 56.78125 27.484375 56.78125 20.515625 
Q 56.78125 9.90625 50.3125 4.234375 
Q 43.84375 -1.421875 31.78125 -1.421875 
Q 19.734375 -1.421875 13.25 4.234375 
Q 6.78125 9.90625 6.78125 20.515625 
Q 6.78125 27.484375 10.78125 32.3125 
Q 14.796875 37.15625 21.921875 38.8125 
z
M 18.3125 54.390625 
Q 18.3125 48.734375 21.84375 45.5625 
Q 25.390625 42.390625 31.78125 42.390625 
Q 38.140625 42.390625 41.71875 45.5625 
Q 45.3125 48.734375 45.3125 54.390625 
Q 45.3125 60.0625 41.71875 63.234375 
Q 38.140625 66.40625 31.78125 66.40625 
Q 25.390625 66.40625 21.84375 63.234375 
Q 18.3125 60.0625 18.3125 54.390625 
z
" id="DejaVuSans-56"/>
      </defs>
      <g transform="translate(581.502762 644.598438)scale(0.1 -0.1)">
       <use xlink:href="#DejaVuSans-56"/>
       <use x="63.623047" xlink:href="#DejaVuSans-48"/>
       <use x="127.246094" xlink:href="#DejaVuSans-48"/>
       <use x="190.869141" xlink:href="#DejaVuSans-48"/>
      </g>
     </g>
    </g>
    <g id="xtick_6">
     <g id="line2d_6">
      <g>
       <use style="stroke:#000000;stroke-width:0.8;" x="709.034703" xlink:href="#m1ec55931f3" y="630"/>
      </g>
     </g>
     <g id="text_6">
      <!-- 10000 -->
      <defs>
       <path d="M 12.40625 8.296875 
L 28.515625 8.296875 
L 28.515625 63.921875 
L 10.984375 60.40625 
L 10.984375 69.390625 
L 28.421875 72.90625 
L 38.28125 72.90625 
L 38.28125 8.296875 
L 54.390625 8.296875 
L 54.390625 0 
L 12.40625 0 
z
" id="DejaVuSans-49"/>
      </defs>
      <g transform="translate(693.128453 644.598438)scale(0.1 -0.1)">
       <use xlink:href="#DejaVuSans-49"/>
       <use x="63.623047" xlink:href="#DejaVuSans-48"/>
       <use x="127.246094" xlink:href="#DejaVuSans-48"/>
       <use x="190.869141" xlink:href="#DejaVuSans-48"/>
       <use x="254.492188" xlink:href="#DejaVuSans-48"/>
      </g>
     </g>
    </g>
    <g id="xtick_7">
     <g id="line2d_7">
      <g>
       <use style="stroke:#000000;stroke-width:0.8;" x="823.841643" xlink:href="#m1ec55931f3" y="630"/>
      </g>
     </g>
     <g id="text_7">
      <!-- 12000 -->
      <g transform="translate(807.935393 644.598438)scale(0.1 -0.1)">
       <use xlink:href="#DejaVuSans-49"/>
       <use x="63.623047" xlink:href="#DejaVuSans-50"/>
       <use x="127.246094" xlink:href="#DejaVuSans-48"/>
       <use x="190.869141" xlink:href="#DejaVuSans-48"/>
       <use x="254.492188" xlink:href="#DejaVuSans-48"/>
      </g>
     </g>
    </g>
    <g id="xtick_8">
     <g id="line2d_8">
      <g>
       <use style="stroke:#000000;stroke-width:0.8;" x="938.648584" xlink:href="#m1ec55931f3" y="630"/>
      </g>
     </g>
     <g id="text_8">
      <!-- 14000 -->
      <g transform="translate(922.742334 644.598438)scale(0.1 -0.1)">
       <use xlink:href="#DejaVuSans-49"/>
       <use x="63.623047" xlink:href="#DejaVuSans-52"/>
       <use x="127.246094" xlink:href="#DejaVuSans-48"/>
       <use x="190.869141" xlink:href="#DejaVuSans-48"/>
       <use x="254.492188" xlink:href="#DejaVuSans-48"/>
      </g>
     </g>
    </g>
    <g id="text_9">
     <!-- Minimum Mouth Width (Lm) -->
     <defs>
      <path d="M 9.8125 72.90625 
L 24.515625 72.90625 
L 43.109375 23.296875 
L 61.8125 72.90625 
L 76.515625 72.90625 
L 76.515625 0 
L 66.890625 0 
L 66.890625 64.015625 
L 48.09375 14.015625 
L 38.1875 14.015625 
L 19.390625 64.015625 
L 19.390625 0 
L 9.8125 0 
z
" id="DejaVuSans-77"/>
      <path d="M 9.421875 54.6875 
L 18.40625 54.6875 
L 18.40625 0 
L 9.421875 0 
z
M 9.421875 75.984375 
L 18.40625 75.984375 
L 18.40625 64.59375 
L 9.421875 64.59375 
z
" id="DejaVuSans-105"/>
      <path d="M 54.890625 33.015625 
L 54.890625 0 
L 45.90625 0 
L 45.90625 32.71875 
Q 45.90625 40.484375 42.875 44.328125 
Q 39.84375 48.1875 33.796875 48.1875 
Q 26.515625 48.1875 22.3125 43.546875 
Q 18.109375 38.921875 18.109375 30.90625 
L 18.109375 0 
L 9.078125 0 
L 9.078125 54.6875 
L 18.109375 54.6875 
L 18.109375 46.1875 
Q 21.34375 51.125 25.703125 53.5625 
Q 30.078125 56 35.796875 56 
Q 45.21875 56 50.046875 50.171875 
Q 54.890625 44.34375 54.890625 33.015625 
z
" id="DejaVuSans-110"/>
      <path d="M 52 44.1875 
Q 55.375 50.25 60.0625 53.125 
Q 64.75 56 71.09375 56 
Q 79.640625 56 84.28125 50.015625 
Q 88.921875 44.046875 88.921875 33.015625 
L 88.921875 0 
L 79.890625 0 
L 79.890625 32.71875 
Q 79.890625 40.578125 77.09375 44.375 
Q 74.3125 48.1875 68.609375 48.1875 
Q 61.625 48.1875 57.5625 43.546875 
Q 53.515625 38.921875 53.515625 30.90625 
L 53.515625 0 
L 44.484375 0 
L 44.484375 32.71875 
Q 44.484375 40.625 41.703125 44.40625 
Q 38.921875 48.1875 33.109375 48.1875 
Q 26.21875 48.1875 22.15625 43.53125 
Q 18.109375 38.875 18.109375 30.90625 
L 18.109375 0 
L 9.078125 0 
L 9.078125 54.6875 
L 18.109375 54.6875 
L 18.109375 46.1875 
Q 21.1875 51.21875 25.484375 53.609375 
Q 29.78125 56 35.6875 56 
Q 41.65625 56 45.828125 52.96875 
Q 50 49.953125 52 44.1875 
z
" id="DejaVuSans-109"/>
      <path d="M 8.5 21.578125 
L 8.5 54.6875 
L 17.484375 54.6875 
L 17.484375 21.921875 
Q 17.484375 14.15625 20.5 10.265625 
Q 23.53125 6.390625 29.59375 6.390625 
Q 36.859375 6.390625 41.078125 11.03125 
Q 45.3125 15.671875 45.3125 23.6875 
L 45.3125 54.6875 
L 54.296875 54.6875 
L 54.296875 0 
L 45.3125 0 
L 45.3125 8.40625 
Q 42.046875 3.421875 37.71875 1 
Q 33.40625 -1.421875 27.6875 -1.421875 
Q 18.265625 -1.421875 13.375 4.4375 
Q 8.5 10.296875 8.5 21.578125 
z
M 31.109375 56 
z
" id="DejaVuSans-117"/>
      <path id="DejaVuSans-32"/>
      <path d="M 30.609375 48.390625 
Q 23.390625 48.390625 19.1875 42.75 
Q 14.984375 37.109375 14.984375 27.296875 
Q 14.984375 17.484375 19.15625 11.84375 
Q 23.34375 6.203125 30.609375 6.203125 
Q 37.796875 6.203125 41.984375 11.859375 
Q 46.1875 17.53125 46.1875 27.296875 
Q 46.1875 37.015625 41.984375 42.703125 
Q 37.796875 48.390625 30.609375 48.390625 
z
M 30.609375 56 
Q 42.328125 56 49.015625 48.375 
Q 55.71875 40.765625 55.71875 27.296875 
Q 55.71875 13.875 49.015625 6.21875 
Q 42.328125 -1.421875 30.609375 -1.421875 
Q 18.84375 -1.421875 12.171875 6.21875 
Q 5.515625 13.875 5.515625 27.296875 
Q 5.515625 40.765625 12.171875 48.375 
Q 18.84375 56 30.609375 56 
z
" id="DejaVuSans-111"/>
      <path d="M 18.3125 70.21875 
L 18.3125 54.6875 
L 36.8125 54.6875 
L 36.8125 47.703125 
L 18.3125 47.703125 
L 18.3125 18.015625 
Q 18.3125 11.328125 20.140625 9.421875 
Q 21.96875 7.515625 27.59375 7.515625 
L 36.8125 7.515625 
L 36.8125 0 
L 27.59375 0 
Q 17.1875 0 13.234375 3.875 
Q 9.28125 7.765625 9.28125 18.015625 
L 9.28125 47.703125 
L 2.6875 47.703125 
L 2.6875 54.6875 
L 9.28125 54.6875 
L 9.28125 70.21875 
z
" id="DejaVuSans-116"/>
      <path d="M 54.890625 33.015625 
L 54.890625 0 
L 45.90625 0 
L 45.90625 32.71875 
Q 45.90625 40.484375 42.875 44.328125 
Q 39.84375 48.1875 33.796875 48.1875 
Q 26.515625 48.1875 22.3125 43.546875 
Q 18.109375 38.921875 18.109375 30.90625 
L 18.109375 0 
L 9.078125 0 
L 9.078125 75.984375 
L 18.109375 75.984375 
L 18.109375 46.1875 
Q 21.34375 51.125 25.703125 53.5625 
Q 30.078125 56 35.796875 56 
Q 45.21875 56 50.046875 50.171875 
Q 54.890625 44.34375 54.890625 33.015625 
z
" id="DejaVuSans-104"/>
      <path d="M 3.328125 72.90625 
L 13.28125 72.90625 
L 28.609375 11.28125 
L 43.890625 72.90625 
L 54.984375 72.90625 
L 70.3125 11.28125 
L 85.59375 72.90625 
L 95.609375 72.90625 
L 77.296875 0 
L 64.890625 0 
L 49.515625 63.28125 
L 33.984375 0 
L 21.578125 0 
z
" id="DejaVuSans-87"/>
      <path d="M 45.40625 46.390625 
L 45.40625 75.984375 
L 54.390625 75.984375 
L 54.390625 0 
L 45.40625 0 
L 45.40625 8.203125 
Q 42.578125 3.328125 38.25 0.953125 
Q 33.9375 -1.421875 27.875 -1.421875 
Q 17.96875 -1.421875 11.734375 6.484375 
Q 5.515625 14.40625 5.515625 27.296875 
Q 5.515625 40.1875 11.734375 48.09375 
Q 17.96875 56 27.875 56 
Q 33.9375 56 38.25 53.625 
Q 42.578125 51.265625 45.40625 46.390625 
z
M 14.796875 27.296875 
Q 14.796875 17.390625 18.875 11.75 
Q 22.953125 6.109375 30.078125 6.109375 
Q 37.203125 6.109375 41.296875 11.75 
Q 45.40625 17.390625 45.40625 27.296875 
Q 45.40625 37.203125 41.296875 42.84375 
Q 37.203125 48.484375 30.078125 48.484375 
Q 22.953125 48.484375 18.875 42.84375 
Q 14.796875 37.203125 14.796875 27.296875 
z
" id="DejaVuSans-100"/>
      <path d="M 31 75.875 
Q 24.46875 64.65625 21.28125 53.65625 
Q 18.109375 42.671875 18.109375 31.390625 
Q 18.109375 20.125 21.3125 9.0625 
Q 24.515625 -2 31 -13.1875 
L 23.1875 -13.1875 
Q 15.875 -1.703125 12.234375 9.375 
Q 8.59375 20.453125 8.59375 31.390625 
Q 8.59375 42.28125 12.203125 53.3125 
Q 15.828125 64.359375 23.1875 75.875 
z
" id="DejaVuSans-40"/>
      <path d="M 9.8125 72.90625 
L 19.671875 72.90625 
L 19.671875 8.296875 
L 55.171875 8.296875 
L 55.171875 0 
L 9.8125 0 
z
" id="DejaVuSans-76"/>
      <path d="M 8.015625 75.875 
L 15.828125 75.875 
Q 23.140625 64.359375 26.78125 53.3125 
Q 30.421875 42.28125 30.421875 31.390625 
Q 30.421875 20.453125 26.78125 9.375 
Q 23.140625 -1.703125 15.828125 -13.1875 
L 8.015625 -13.1875 
Q 14.5 -2 17.703125 9.0625 
Q 20.90625 20.125 20.90625 31.390625 
Q 20.90625 42.671875 17.703125 53.65625 
Q 14.5 64.65625 8.015625 75.875 
z
" id="DejaVuSans-41"/>
     </defs>
     <g transform="translate(483.699219 658.276562)scale(0.1 -0.1)">
      <use xlink:href="#DejaVuSans-77"/>
      <use x="86.279297" xlink:href="#DejaVuSans-105"/>
      <use x="114.0625" xlink:href="#DejaVuSans-110"/>
      <use x="177.441406" xlink:href="#DejaVuSans-105"/>
      <use x="205.224609" xlink:href="#DejaVuSans-109"/>
      <use x="302.636719" xlink:href="#DejaVuSans-117"/>
      <use x="366.015625" xlink:href="#DejaVuSans-109"/>
      <use x="463.427734" xlink:href="#DejaVuSans-32"/>
      <use x="495.214844" xlink:href="#DejaVuSans-77"/>
      <use x="581.494141" xlink:href="#DejaVuSans-111"/>
      <use x="642.675781" xlink:href="#DejaVuSans-117"/>
      <use x="706.054688" xlink:href="#DejaVuSans-116"/>
      <use x="745.263672" xlink:href="#DejaVuSans-104"/>
      <use x="808.642578" xlink:href="#DejaVuSans-32"/>
      <use x="840.429688" xlink:href="#DejaVuSans-87"/>
      <use x="939.275391" xlink:href="#DejaVuSans-105"/>
      <use x="967.058594" xlink:href="#DejaVuSans-100"/>
      <use x="1030.535156" xlink:href="#DejaVuSans-116"/>
      <use x="1069.744141" xlink:href="#DejaVuSans-104"/>
      <use x="1133.123047" xlink:href="#DejaVuSans-32"/>
      <use x="1164.910156" xlink:href="#DejaVuSans-40"/>
      <use x="1203.923828" xlink:href="#DejaVuSans-76"/>
      <use x="1259.636719" xlink:href="#DejaVuSans-109"/>
      <use x="1357.048828" xlink:href="#DejaVuSans-41"/>
     </g>
    </g>
   </g>
   <g id="matplotlib.axis_2">
    <g id="ytick_1">
     <g id="line2d_9">
      <defs>
       <path d="M 0 0 
L -3.5 0 
" id="mf0427172d8" style="stroke:#000000;stroke-width:0.8;"/>
      </defs>
      <g>
       <use style="stroke:#000000;stroke-width:0.8;" x="135" xlink:href="#mf0427172d8" y="630"/>
      </g>
     </g>
     <g id="text_10">
      <!-- 0 -->
      <g transform="translate(121.6375 633.799219)scale(0.1 -0.1)">
       <use xlink:href="#DejaVuSans-48"/>
      </g>
     </g>
    </g>
    <g id="ytick_2">
     <g id="line2d_10">
      <g>
       <use style="stroke:#000000;stroke-width:0.8;" x="135" xlink:href="#mf0427172d8" y="539.964224"/>
      </g>
     </g>
     <g id="text_11">
      <!-- 20000 -->
      <g transform="translate(96.1875 543.763443)scale(0.1 -0.1)">
       <use xlink:href="#DejaVuSans-50"/>
       <use x="63.623047" xlink:href="#DejaVuSans-48"/>
       <use x="127.246094" xlink:href="#DejaVuSans-48"/>
       <use x="190.869141" xlink:href="#DejaVuSans-48"/>
       <use x="254.492188" xlink:href="#DejaVuSans-48"/>
      </g>
     </g>
    </g>
    <g id="ytick_3">
     <g id="line2d_11">
      <g>
       <use style="stroke:#000000;stroke-width:0.8;" x="135" xlink:href="#mf0427172d8" y="449.928448"/>
      </g>
     </g>
     <g id="text_12">
      <!-- 40000 -->
      <g transform="translate(96.1875 453.727667)scale(0.1 -0.1)">
       <use xlink:href="#DejaVuSans-52"/>
       <use x="63.623047" xlink:href="#DejaVuSans-48"/>
       <use x="127.246094" xlink:href="#DejaVuSans-48"/>
       <use x="190.869141" xlink:href="#DejaVuSans-48"/>
       <use x="254.492188" xlink:href="#DejaVuSans-48"/>
      </g>
     </g>
    </g>
    <g id="ytick_4">
     <g id="line2d_12">
      <g>
       <use style="stroke:#000000;stroke-width:0.8;" x="135" xlink:href="#mf0427172d8" y="359.892673"/>
      </g>
     </g>
     <g id="text_13">
      <!-- 60000 -->
      <g transform="translate(96.1875 363.691891)scale(0.1 -0.1)">
       <use xlink:href="#DejaVuSans-54"/>
       <use x="63.623047" xlink:href="#DejaVuSans-48"/>
       <use x="127.246094" xlink:href="#DejaVuSans-48"/>
       <use x="190.869141" xlink:href="#DejaVuSans-48"/>
       <use x="254.492188" xlink:href="#DejaVuSans-48"/>
      </g>
     </g>
    </g>
    <g id="ytick_5">
     <g id="line2d_13">
      <g>
       <use style="stroke:#000000;stroke-width:0.8;" x="135" xlink:href="#mf0427172d8" y="269.856897"/>
      </g>
     </g>
     <g id="text_14">
      <!-- 80000 -->
      <g transform="translate(96.1875 273.656116)scale(0.1 -0.1)">
       <use xlink:href="#DejaVuSans-56"/>
       <use x="63.623047" xlink:href="#DejaVuSans-48"/>
       <use x="127.246094" xlink:href="#DejaVuSans-48"/>
       <use x="190.869141" xlink:href="#DejaVuSans-48"/>
       <use x="254.492188" xlink:href="#DejaVuSans-48"/>
      </g>
     </g>
    </g>
    <g id="ytick_6">
     <g id="line2d_14">
      <g>
       <use style="stroke:#000000;stroke-width:0.8;" x="135" xlink:href="#mf0427172d8" y="179.821121"/>
      </g>
     </g>
     <g id="text_15">
      <!-- 100000 -->
      <g transform="translate(89.825 183.62034)scale(0.1 -0.1)">
       <use xlink:href="#DejaVuSans-49"/>
       <use x="63.623047" xlink:href="#DejaVuSans-48"/>
       <use x="127.246094" xlink:href="#DejaVuSans-48"/>
       <use x="190.869141" xlink:href="#DejaVuSans-48"/>
       <use x="254.492188" xlink:href="#DejaVuSans-48"/>
       <use x="318.115234" xlink:href="#DejaVuSans-48"/>
      </g>
     </g>
    </g>
    <g id="ytick_7">
     <g id="line2d_15">
      <g>
       <use style="stroke:#000000;stroke-width:0.8;" x="135" xlink:href="#mf0427172d8" y="89.785345"/>
      </g>
     </g>
     <g id="text_16">
      <!-- 120000 -->
      <g transform="translate(89.825 93.584564)scale(0.1 -0.1)">
       <use xlink:href="#DejaVuSans-49"/>
       <use x="63.623047" xlink:href="#DejaVuSans-50"/>
       <use x="127.246094" xlink:href="#DejaVuSans-48"/>
       <use x="190.869141" xlink:href="#DejaVuSans-48"/>
       <use x="254.492188" xlink:href="#DejaVuSans-48"/>
       <use x="318.115234" xlink:href="#DejaVuSans-48"/>
      </g>
     </g>
    </g>
    <g id="text_17">
     <!-- Maximum Body Width (Lb) -->
     <defs>
      <path d="M 34.28125 27.484375 
Q 23.390625 27.484375 19.1875 25 
Q 14.984375 22.515625 14.984375 16.5 
Q 14.984375 11.71875 18.140625 8.90625 
Q 21.296875 6.109375 26.703125 6.109375 
Q 34.1875 6.109375 38.703125 11.40625 
Q 43.21875 16.703125 43.21875 25.484375 
L 43.21875 27.484375 
z
M 52.203125 31.203125 
L 52.203125 0 
L 43.21875 0 
L 43.21875 8.296875 
Q 40.140625 3.328125 35.546875 0.953125 
Q 30.953125 -1.421875 24.3125 -1.421875 
Q 15.921875 -1.421875 10.953125 3.296875 
Q 6 8.015625 6 15.921875 
Q 6 25.140625 12.171875 29.828125 
Q 18.359375 34.515625 30.609375 34.515625 
L 43.21875 34.515625 
L 43.21875 35.40625 
Q 43.21875 41.609375 39.140625 45 
Q 35.0625 48.390625 27.6875 48.390625 
Q 23 48.390625 18.546875 47.265625 
Q 14.109375 46.140625 10.015625 43.890625 
L 10.015625 52.203125 
Q 14.9375 54.109375 19.578125 55.046875 
Q 24.21875 56 28.609375 56 
Q 40.484375 56 46.34375 49.84375 
Q 52.203125 43.703125 52.203125 31.203125 
z
" id="DejaVuSans-97"/>
      <path d="M 54.890625 54.6875 
L 35.109375 28.078125 
L 55.90625 0 
L 45.3125 0 
L 29.390625 21.484375 
L 13.484375 0 
L 2.875 0 
L 24.125 28.609375 
L 4.6875 54.6875 
L 15.28125 54.6875 
L 29.78125 35.203125 
L 44.28125 54.6875 
z
" id="DejaVuSans-120"/>
      <path d="M 19.671875 34.8125 
L 19.671875 8.109375 
L 35.5 8.109375 
Q 43.453125 8.109375 47.28125 11.40625 
Q 51.125 14.703125 51.125 21.484375 
Q 51.125 28.328125 47.28125 31.5625 
Q 43.453125 34.8125 35.5 34.8125 
z
M 19.671875 64.796875 
L 19.671875 42.828125 
L 34.28125 42.828125 
Q 41.5 42.828125 45.03125 45.53125 
Q 48.578125 48.25 48.578125 53.8125 
Q 48.578125 59.328125 45.03125 62.0625 
Q 41.5 64.796875 34.28125 64.796875 
z
M 9.8125 72.90625 
L 35.015625 72.90625 
Q 46.296875 72.90625 52.390625 68.21875 
Q 58.5 63.53125 58.5 54.890625 
Q 58.5 48.1875 55.375 44.234375 
Q 52.25 40.28125 46.1875 39.3125 
Q 53.46875 37.75 57.5 32.78125 
Q 61.53125 27.828125 61.53125 20.40625 
Q 61.53125 10.640625 54.890625 5.3125 
Q 48.25 0 35.984375 0 
L 9.8125 0 
z
" id="DejaVuSans-66"/>
      <path d="M 32.171875 -5.078125 
Q 28.375 -14.84375 24.75 -17.8125 
Q 21.140625 -20.796875 15.09375 -20.796875 
L 7.90625 -20.796875 
L 7.90625 -13.28125 
L 13.1875 -13.28125 
Q 16.890625 -13.28125 18.9375 -11.515625 
Q 21 -9.765625 23.484375 -3.21875 
L 25.09375 0.875 
L 2.984375 54.6875 
L 12.5 54.6875 
L 29.59375 11.921875 
L 46.6875 54.6875 
L 56.203125 54.6875 
z
" id="DejaVuSans-121"/>
      <path d="M 48.6875 27.296875 
Q 48.6875 37.203125 44.609375 42.84375 
Q 40.53125 48.484375 33.40625 48.484375 
Q 26.265625 48.484375 22.1875 42.84375 
Q 18.109375 37.203125 18.109375 27.296875 
Q 18.109375 17.390625 22.1875 11.75 
Q 26.265625 6.109375 33.40625 6.109375 
Q 40.53125 6.109375 44.609375 11.75 
Q 48.6875 17.390625 48.6875 27.296875 
z
M 18.109375 46.390625 
Q 20.953125 51.265625 25.265625 53.625 
Q 29.59375 56 35.59375 56 
Q 45.5625 56 51.78125 48.09375 
Q 58.015625 40.1875 58.015625 27.296875 
Q 58.015625 14.40625 51.78125 6.484375 
Q 45.5625 -1.421875 35.59375 -1.421875 
Q 29.59375 -1.421875 25.265625 0.953125 
Q 20.953125 3.328125 18.109375 8.203125 
L 18.109375 0 
L 9.078125 0 
L 9.078125 75.984375 
L 18.109375 75.984375 
z
" id="DejaVuSans-98"/>
     </defs>
     <g transform="translate(83.745312 424.722656)rotate(-90)scale(0.1 -0.1)">
      <use xlink:href="#DejaVuSans-77"/>
      <use x="86.279297" xlink:href="#DejaVuSans-97"/>
      <use x="147.558594" xlink:href="#DejaVuSans-120"/>
      <use x="206.738281" xlink:href="#DejaVuSans-105"/>
      <use x="234.521484" xlink:href="#DejaVuSans-109"/>
      <use x="331.933594" xlink:href="#DejaVuSans-117"/>
      <use x="395.3125" xlink:href="#DejaVuSans-109"/>
      <use x="492.724609" xlink:href="#DejaVuSans-32"/>
      <use x="524.511719" xlink:href="#DejaVuSans-66"/>
      <use x="593.115234" xlink:href="#DejaVuSans-111"/>
      <use x="654.296875" xlink:href="#DejaVuSans-100"/>
      <use x="717.773438" xlink:href="#DejaVuSans-121"/>
      <use x="776.953125" xlink:href="#DejaVuSans-32"/>
      <use x="808.740234" xlink:href="#DejaVuSans-87"/>
      <use x="907.585938" xlink:href="#DejaVuSans-105"/>
      <use x="935.369141" xlink:href="#DejaVuSans-100"/>
      <use x="998.845703" xlink:href="#DejaVuSans-116"/>
      <use x="1038.054688" xlink:href="#DejaVuSans-104"/>
      <use x="1101.433594" xlink:href="#DejaVuSans-32"/>
      <use x="1133.220703" xlink:href="#DejaVuSans-40"/>
      <use x="1172.234375" xlink:href="#DejaVuSans-76"/>
      <use x="1227.947266" xlink:href="#DejaVuSans-98"/>
      <use x="1291.423828" xlink:href="#DejaVuSans-41"/>
     </g>
    </g>
   </g>
   <g id="line2d_16">
    <path clip-path="url(#pd47f223df8)" d="M 135 630 
L 205.015998 624.509091 
L 275.031997 619.018182 
L 345.047995 613.527273 
L 415.063994 608.036364 
L 485.079992 602.545455 
L 555.09599 597.054545 
L 625.111989 591.563636 
L 695.127987 586.072727 
L 765.143986 580.581818 
L 835.159984 575.090909 
L 905.175982 569.6 
L 975.191981 564.109091 
L 1045.207979 558.618182 
L 1081 555.811241 
" style="fill:none;stroke:#ff0000;stroke-dasharray:5.55,2.4;stroke-dashoffset:0;stroke-width:1.5;"/>
   </g>
   <g id="line2d_17">
    <path clip-path="url(#pd47f223df8)" d="M 135 630 
L 205.015998 613.527273 
L 275.031997 597.054545 
L 345.047995 580.581818 
L 415.063994 564.109091 
L 485.079992 547.636364 
L 555.09599 531.163636 
L 625.111989 514.690909 
L 695.127987 498.218182 
L 765.143986 481.745455 
L 835.159984 465.272727 
L 905.175982 448.8 
L 975.191981 432.327273 
L 1045.207979 415.854545 
L 1081 407.433724 
" style="fill:none;stroke:#008000;stroke-dasharray:5.55,2.4;stroke-dashoffset:0;stroke-width:1.5;"/>
   </g>
   <g id="patch_3">
    <path d="M 135 630 
L 135 86.4 
" style="fill:none;stroke:#000000;stroke-linecap:square;stroke-linejoin:miter;stroke-width:0.8;"/>
   </g>
   <g id="patch_4">
    <path d="M 972 630 
L 972 86.4 
" style="fill:none;stroke:#000000;stroke-linecap:square;stroke-linejoin:miter;stroke-width:0.8;"/>
   </g>
   <g id="patch_5">
    <path d="M 135 630 
L 972 630 
" style="fill:none;stroke:#000000;stroke-linecap:square;stroke-linejoin:miter;stroke-width:0.8;"/>
   </g>
   <g id="patch_6">
    <path d="M 135 86.4 
L 972 86.4 
" style="fill:none;stroke:#000000;stroke-linecap:square;stroke-linejoin:miter;stroke-width:0.8;"/>
   </g>
  </g>
 </g>
 <defs>
  <clipPath id="pd47f223df8">
   <rect height="543.6" width="837" x="135" y="86.4"/>
  </clipPath>
 </defs>
</svg>
