<?xml version="1.0" encoding="utf-8" standalone="no"?>
<!DOCTYPE svg PUBLIC "-//W3C//DTD SVG 1.1//EN"
  "http://www.w3.org/Graphics/SVG/1.1/DTD/svg11.dtd">
<!-- Created with matplotlib (https://matplotlib.org/) -->
<svg height="360pt" version="1.1" viewBox="0 0 405.85 360" width="405.85pt" xmlns="http://www.w3.org/2000/svg" xmlns:xlink="http://www.w3.org/1999/xlink">
 <defs>
  <style type="text/css">
*{stroke-linecap:butt;stroke-linejoin:round;white-space:pre;}
  </style>
 </defs>
 <g id="figure_1">
  <g id="patch_1">
   <path d="M 0 360 
L 405.85 360 
L 405.85 0 
L 0 0 
z
" style="fill:#ffffff;"/>
  </g>
  <g id="axes_1">
   <g id="patch_2">
    <path d="M 58.577683 313.54 
L 355.9415 313.54 
L 355.9415 16.96 
L 58.577683 16.96 
z
" style="fill:#eaeaf2;"/>
   </g>
   <g id="matplotlib.axis_1">
    <g id="xtick_1">
     <g id="line2d_1">
      <path clip-path="url(#p179ed0eb44)" d="M 58.577683 313.54 
L 58.577683 16.96 
" style="fill:none;stroke:#ffffff;stroke-linecap:round;"/>
     </g>
     <g id="text_1">
      <!-- 0 -->
      <defs>
       <path d="M 4.15625 35.296875 
Q 4.15625 48 6.765625 55.734375 
Q 9.375 63.484375 14.515625 67.671875 
Q 19.671875 71.875 27.484375 71.875 
Q 33.25 71.875 37.59375 69.546875 
Q 41.9375 67.234375 44.765625 62.859375 
Q 47.609375 58.5 49.21875 52.21875 
Q 50.828125 45.953125 50.828125 35.296875 
Q 50.828125 22.703125 48.234375 14.96875 
Q 45.65625 7.234375 40.5 3 
Q 35.359375 -1.21875 27.484375 -1.21875 
Q 17.140625 -1.21875 11.234375 6.203125 
Q 4.15625 15.140625 4.15625 35.296875 
z
M 13.1875 35.296875 
Q 13.1875 17.671875 17.3125 11.828125 
Q 21.4375 6 27.484375 6 
Q 33.546875 6 37.671875 11.859375 
Q 41.796875 17.71875 41.796875 35.296875 
Q 41.796875 52.984375 37.671875 58.78125 
Q 33.546875 64.59375 27.390625 64.59375 
Q 21.34375 64.59375 17.71875 59.46875 
Q 13.1875 52.9375 13.1875 35.296875 
z
" id="ArialMT-48"/>
      </defs>
      <g style="fill:#262626;" transform="translate(55.519168 330.913594)scale(0.11 -0.11)">
       <use xlink:href="#ArialMT-48"/>
      </g>
     </g>
    </g>
    <g id="xtick_2">
     <g id="line2d_2">
      <path clip-path="url(#p179ed0eb44)" d="M 95.703609 313.54 
L 95.703609 16.96 
" style="fill:none;stroke:#ffffff;stroke-linecap:round;"/>
     </g>
     <g id="text_2">
      <!-- 10000 -->
      <defs>
       <path d="M 37.25 0 
L 28.46875 0 
L 28.46875 56 
Q 25.296875 52.984375 20.140625 49.953125 
Q 14.984375 46.921875 10.890625 45.40625 
L 10.890625 53.90625 
Q 18.265625 57.375 23.78125 62.296875 
Q 29.296875 67.234375 31.59375 71.875 
L 37.25 71.875 
z
" id="ArialMT-49"/>
      </defs>
      <g style="fill:#262626;" transform="translate(80.411031 330.913594)scale(0.11 -0.11)">
       <use xlink:href="#ArialMT-49"/>
       <use x="55.615234" xlink:href="#ArialMT-48"/>
       <use x="111.230469" xlink:href="#ArialMT-48"/>
       <use x="166.845703" xlink:href="#ArialMT-48"/>
       <use x="222.460938" xlink:href="#ArialMT-48"/>
      </g>
     </g>
    </g>
    <g id="xtick_3">
     <g id="line2d_3">
      <path clip-path="url(#p179ed0eb44)" d="M 132.829535 313.54 
L 132.829535 16.96 
" style="fill:none;stroke:#ffffff;stroke-linecap:round;"/>
     </g>
     <g id="text_3">
      <!-- 20000 -->
      <defs>
       <path d="M 50.34375 8.453125 
L 50.34375 0 
L 3.03125 0 
Q 2.9375 3.171875 4.046875 6.109375 
Q 5.859375 10.9375 9.828125 15.625 
Q 13.8125 20.3125 21.34375 26.46875 
Q 33.015625 36.03125 37.109375 41.625 
Q 41.21875 47.21875 41.21875 52.203125 
Q 41.21875 57.421875 37.46875 61 
Q 33.734375 64.59375 27.734375 64.59375 
Q 21.390625 64.59375 17.578125 60.78125 
Q 13.765625 56.984375 13.71875 50.25 
L 4.6875 51.171875 
Q 5.609375 61.28125 11.65625 66.578125 
Q 17.71875 71.875 27.9375 71.875 
Q 38.234375 71.875 44.234375 66.15625 
Q 50.25 60.453125 50.25 52 
Q 50.25 47.703125 48.484375 43.546875 
Q 46.734375 39.40625 42.65625 34.8125 
Q 38.578125 30.21875 29.109375 22.21875 
Q 21.1875 15.578125 18.9375 13.203125 
Q 16.703125 10.84375 15.234375 8.453125 
z
" id="ArialMT-50"/>
      </defs>
      <g style="fill:#262626;" transform="translate(117.536957 330.913594)scale(0.11 -0.11)">
       <use xlink:href="#ArialMT-50"/>
       <use x="55.615234" xlink:href="#ArialMT-48"/>
       <use x="111.230469" xlink:href="#ArialMT-48"/>
       <use x="166.845703" xlink:href="#ArialMT-48"/>
       <use x="222.460938" xlink:href="#ArialMT-48"/>
      </g>
     </g>
    </g>
    <g id="xtick_4">
     <g id="line2d_4">
      <path clip-path="url(#p179ed0eb44)" d="M 169.955461 313.54 
L 169.955461 16.96 
" style="fill:none;stroke:#ffffff;stroke-linecap:round;"/>
     </g>
     <g id="text_4">
      <!-- 30000 -->
      <defs>
       <path d="M 4.203125 18.890625 
L 12.984375 20.0625 
Q 14.5 12.59375 18.140625 9.296875 
Q 21.78125 6 27 6 
Q 33.203125 6 37.46875 10.296875 
Q 41.75 14.59375 41.75 20.953125 
Q 41.75 27 37.796875 30.921875 
Q 33.84375 34.859375 27.734375 34.859375 
Q 25.25 34.859375 21.53125 33.890625 
L 22.515625 41.609375 
Q 23.390625 41.5 23.921875 41.5 
Q 29.546875 41.5 34.03125 44.421875 
Q 38.53125 47.359375 38.53125 53.46875 
Q 38.53125 58.296875 35.25 61.46875 
Q 31.984375 64.65625 26.8125 64.65625 
Q 21.6875 64.65625 18.265625 61.421875 
Q 14.84375 58.203125 13.875 51.765625 
L 5.078125 53.328125 
Q 6.6875 62.15625 12.390625 67.015625 
Q 18.109375 71.875 26.609375 71.875 
Q 32.46875 71.875 37.390625 69.359375 
Q 42.328125 66.84375 44.9375 62.5 
Q 47.5625 58.15625 47.5625 53.265625 
Q 47.5625 48.640625 45.0625 44.828125 
Q 42.578125 41.015625 37.703125 38.765625 
Q 44.046875 37.3125 47.5625 32.6875 
Q 51.078125 28.078125 51.078125 21.140625 
Q 51.078125 11.765625 44.234375 5.25 
Q 37.40625 -1.265625 26.953125 -1.265625 
Q 17.53125 -1.265625 11.296875 4.34375 
Q 5.078125 9.96875 4.203125 18.890625 
z
" id="ArialMT-51"/>
      </defs>
      <g style="fill:#262626;" transform="translate(154.662883 330.913594)scale(0.11 -0.11)">
       <use xlink:href="#ArialMT-51"/>
       <use x="55.615234" xlink:href="#ArialMT-48"/>
       <use x="111.230469" xlink:href="#ArialMT-48"/>
       <use x="166.845703" xlink:href="#ArialMT-48"/>
       <use x="222.460938" xlink:href="#ArialMT-48"/>
      </g>
     </g>
    </g>
    <g id="xtick_5">
     <g id="line2d_5">
      <path clip-path="url(#p179ed0eb44)" d="M 207.081387 313.54 
L 207.081387 16.96 
" style="fill:none;stroke:#ffffff;stroke-linecap:round;"/>
     </g>
     <g id="text_5">
      <!-- 40000 -->
      <defs>
       <path d="M 32.328125 0 
L 32.328125 17.140625 
L 1.265625 17.140625 
L 1.265625 25.203125 
L 33.9375 71.578125 
L 41.109375 71.578125 
L 41.109375 25.203125 
L 50.78125 25.203125 
L 50.78125 17.140625 
L 41.109375 17.140625 
L 41.109375 0 
z
M 32.328125 25.203125 
L 32.328125 57.46875 
L 9.90625 25.203125 
z
" id="ArialMT-52"/>
      </defs>
      <g style="fill:#262626;" transform="translate(191.788809 330.913594)scale(0.11 -0.11)">
       <use xlink:href="#ArialMT-52"/>
       <use x="55.615234" xlink:href="#ArialMT-48"/>
       <use x="111.230469" xlink:href="#ArialMT-48"/>
       <use x="166.845703" xlink:href="#ArialMT-48"/>
       <use x="222.460938" xlink:href="#ArialMT-48"/>
      </g>
     </g>
    </g>
    <g id="xtick_6">
     <g id="line2d_6">
      <path clip-path="url(#p179ed0eb44)" d="M 244.207313 313.54 
L 244.207313 16.96 
" style="fill:none;stroke:#ffffff;stroke-linecap:round;"/>
     </g>
     <g id="text_6">
      <!-- 50000 -->
      <defs>
       <path d="M 4.15625 18.75 
L 13.375 19.53125 
Q 14.40625 12.796875 18.140625 9.390625 
Q 21.875 6 27.15625 6 
Q 33.5 6 37.890625 10.78125 
Q 42.28125 15.578125 42.28125 23.484375 
Q 42.28125 31 38.0625 35.34375 
Q 33.84375 39.703125 27 39.703125 
Q 22.75 39.703125 19.328125 37.765625 
Q 15.921875 35.84375 13.96875 32.765625 
L 5.71875 33.84375 
L 12.640625 70.609375 
L 48.25 70.609375 
L 48.25 62.203125 
L 19.671875 62.203125 
L 15.828125 42.96875 
Q 22.265625 47.46875 29.34375 47.46875 
Q 38.71875 47.46875 45.15625 40.96875 
Q 51.609375 34.46875 51.609375 24.265625 
Q 51.609375 14.546875 45.953125 7.46875 
Q 39.0625 -1.21875 27.15625 -1.21875 
Q 17.390625 -1.21875 11.203125 4.25 
Q 5.03125 9.71875 4.15625 18.75 
z
" id="ArialMT-53"/>
      </defs>
      <g style="fill:#262626;" transform="translate(228.914735 330.913594)scale(0.11 -0.11)">
       <use xlink:href="#ArialMT-53"/>
       <use x="55.615234" xlink:href="#ArialMT-48"/>
       <use x="111.230469" xlink:href="#ArialMT-48"/>
       <use x="166.845703" xlink:href="#ArialMT-48"/>
       <use x="222.460938" xlink:href="#ArialMT-48"/>
      </g>
     </g>
    </g>
    <g id="xtick_7">
     <g id="line2d_7">
      <path clip-path="url(#p179ed0eb44)" d="M 281.333239 313.54 
L 281.333239 16.96 
" style="fill:none;stroke:#ffffff;stroke-linecap:round;"/>
     </g>
     <g id="text_7">
      <!-- 60000 -->
      <defs>
       <path d="M 49.75 54.046875 
L 41.015625 53.375 
Q 39.84375 58.546875 37.703125 60.890625 
Q 34.125 64.65625 28.90625 64.65625 
Q 24.703125 64.65625 21.53125 62.3125 
Q 17.390625 59.28125 14.984375 53.46875 
Q 12.59375 47.65625 12.5 36.921875 
Q 15.671875 41.75 20.265625 44.09375 
Q 24.859375 46.4375 29.890625 46.4375 
Q 38.671875 46.4375 44.84375 39.96875 
Q 51.03125 33.5 51.03125 23.25 
Q 51.03125 16.5 48.125 10.71875 
Q 45.21875 4.9375 40.140625 1.859375 
Q 35.0625 -1.21875 28.609375 -1.21875 
Q 17.625 -1.21875 10.6875 6.859375 
Q 3.765625 14.9375 3.765625 33.5 
Q 3.765625 54.25 11.421875 63.671875 
Q 18.109375 71.875 29.4375 71.875 
Q 37.890625 71.875 43.28125 67.140625 
Q 48.6875 62.40625 49.75 54.046875 
z
M 13.875 23.1875 
Q 13.875 18.65625 15.796875 14.5 
Q 17.71875 10.359375 21.1875 8.171875 
Q 24.65625 6 28.46875 6 
Q 34.03125 6 38.03125 10.484375 
Q 42.046875 14.984375 42.046875 22.703125 
Q 42.046875 30.125 38.078125 34.390625 
Q 34.125 38.671875 28.125 38.671875 
Q 22.171875 38.671875 18.015625 34.390625 
Q 13.875 30.125 13.875 23.1875 
z
" id="ArialMT-54"/>
      </defs>
      <g style="fill:#262626;" transform="translate(266.040661 330.913594)scale(0.11 -0.11)">
       <use xlink:href="#ArialMT-54"/>
       <use x="55.615234" xlink:href="#ArialMT-48"/>
       <use x="111.230469" xlink:href="#ArialMT-48"/>
       <use x="166.845703" xlink:href="#ArialMT-48"/>
       <use x="222.460938" xlink:href="#ArialMT-48"/>
      </g>
     </g>
    </g>
    <g id="xtick_8">
     <g id="line2d_8">
      <path clip-path="url(#p179ed0eb44)" d="M 318.459165 313.54 
L 318.459165 16.96 
" style="fill:none;stroke:#ffffff;stroke-linecap:round;"/>
     </g>
     <g id="text_8">
      <!-- 70000 -->
      <defs>
       <path d="M 4.734375 62.203125 
L 4.734375 70.65625 
L 51.078125 70.65625 
L 51.078125 63.8125 
Q 44.234375 56.546875 37.515625 44.484375 
Q 30.8125 32.421875 27.15625 19.671875 
Q 24.515625 10.6875 23.78125 0 
L 14.75 0 
Q 14.890625 8.453125 18.0625 20.40625 
Q 21.234375 32.375 27.171875 43.484375 
Q 33.109375 54.59375 39.796875 62.203125 
z
" id="ArialMT-55"/>
      </defs>
      <g style="fill:#262626;" transform="translate(303.166587 330.913594)scale(0.11 -0.11)">
       <use xlink:href="#ArialMT-55"/>
       <use x="55.615234" xlink:href="#ArialMT-48"/>
       <use x="111.230469" xlink:href="#ArialMT-48"/>
       <use x="166.845703" xlink:href="#ArialMT-48"/>
       <use x="222.460938" xlink:href="#ArialMT-48"/>
      </g>
     </g>
    </g>
    <g id="xtick_9">
     <g id="line2d_9">
      <path clip-path="url(#p179ed0eb44)" d="M 355.585091 313.54 
L 355.585091 16.96 
" style="fill:none;stroke:#ffffff;stroke-linecap:round;"/>
     </g>
     <g id="text_9">
      <!-- 80000 -->
      <defs>
       <path d="M 17.671875 38.8125 
Q 12.203125 40.828125 9.5625 44.53125 
Q 6.9375 48.25 6.9375 53.421875 
Q 6.9375 61.234375 12.546875 66.546875 
Q 18.171875 71.875 27.484375 71.875 
Q 36.859375 71.875 42.578125 66.421875 
Q 48.296875 60.984375 48.296875 53.171875 
Q 48.296875 48.1875 45.671875 44.5 
Q 43.0625 40.828125 37.75 38.8125 
Q 44.34375 36.671875 47.78125 31.875 
Q 51.21875 27.09375 51.21875 20.453125 
Q 51.21875 11.28125 44.71875 5.03125 
Q 38.234375 -1.21875 27.640625 -1.21875 
Q 17.046875 -1.21875 10.546875 5.046875 
Q 4.046875 11.328125 4.046875 20.703125 
Q 4.046875 27.6875 7.59375 32.390625 
Q 11.140625 37.109375 17.671875 38.8125 
z
M 15.921875 53.71875 
Q 15.921875 48.640625 19.1875 45.40625 
Q 22.46875 42.1875 27.6875 42.1875 
Q 32.765625 42.1875 36.015625 45.375 
Q 39.265625 48.578125 39.265625 53.21875 
Q 39.265625 58.0625 35.90625 61.359375 
Q 32.5625 64.65625 27.59375 64.65625 
Q 22.5625 64.65625 19.234375 61.421875 
Q 15.921875 58.203125 15.921875 53.71875 
z
M 13.09375 20.65625 
Q 13.09375 16.890625 14.875 13.375 
Q 16.65625 9.859375 20.171875 7.921875 
Q 23.6875 6 27.734375 6 
Q 34.03125 6 38.125 10.046875 
Q 42.234375 14.109375 42.234375 20.359375 
Q 42.234375 26.703125 38.015625 30.859375 
Q 33.796875 35.015625 27.4375 35.015625 
Q 21.234375 35.015625 17.15625 30.90625 
Q 13.09375 26.8125 13.09375 20.65625 
z
" id="ArialMT-56"/>
      </defs>
      <g style="fill:#262626;" transform="translate(340.292513 330.913594)scale(0.11 -0.11)">
       <use xlink:href="#ArialMT-56"/>
       <use x="55.615234" xlink:href="#ArialMT-48"/>
       <use x="111.230469" xlink:href="#ArialMT-48"/>
       <use x="166.845703" xlink:href="#ArialMT-48"/>
       <use x="222.460938" xlink:href="#ArialMT-48"/>
      </g>
     </g>
    </g>
    <g id="text_10">
     <!-- Minimum Mouth Width (Lm) -->
     <defs>
      <path d="M 7.421875 0 
L 7.421875 71.578125 
L 21.6875 71.578125 
L 38.625 20.90625 
Q 40.96875 13.8125 42.046875 10.296875 
Q 43.265625 14.203125 45.84375 21.78125 
L 62.984375 71.578125 
L 75.734375 71.578125 
L 75.734375 0 
L 66.609375 0 
L 66.609375 59.90625 
L 45.796875 0 
L 37.25 0 
L 16.546875 60.9375 
L 16.546875 0 
z
" id="ArialMT-77"/>
      <path d="M 6.640625 61.46875 
L 6.640625 71.578125 
L 15.4375 71.578125 
L 15.4375 61.46875 
z
M 6.640625 0 
L 6.640625 51.859375 
L 15.4375 51.859375 
L 15.4375 0 
z
" id="ArialMT-105"/>
      <path d="M 6.59375 0 
L 6.59375 51.859375 
L 14.5 51.859375 
L 14.5 44.484375 
Q 20.21875 53.03125 31 53.03125 
Q 35.6875 53.03125 39.625 51.34375 
Q 43.5625 49.65625 45.515625 46.921875 
Q 47.46875 44.1875 48.25 40.4375 
Q 48.734375 37.984375 48.734375 31.890625 
L 48.734375 0 
L 39.9375 0 
L 39.9375 31.546875 
Q 39.9375 36.921875 38.90625 39.578125 
Q 37.890625 42.234375 35.28125 43.8125 
Q 32.671875 45.40625 29.15625 45.40625 
Q 23.53125 45.40625 19.453125 41.84375 
Q 15.375 38.28125 15.375 28.328125 
L 15.375 0 
z
" id="ArialMT-110"/>
      <path d="M 6.59375 0 
L 6.59375 51.859375 
L 14.453125 51.859375 
L 14.453125 44.578125 
Q 16.890625 48.390625 20.9375 50.703125 
Q 25 53.03125 30.171875 53.03125 
Q 35.9375 53.03125 39.625 50.640625 
Q 43.3125 48.25 44.828125 43.953125 
Q 50.984375 53.03125 60.84375 53.03125 
Q 68.5625 53.03125 72.703125 48.75 
Q 76.859375 44.484375 76.859375 35.59375 
L 76.859375 0 
L 68.109375 0 
L 68.109375 32.671875 
Q 68.109375 37.9375 67.25 40.25 
Q 66.40625 42.578125 64.15625 43.984375 
Q 61.921875 45.40625 58.890625 45.40625 
Q 53.421875 45.40625 49.796875 41.765625 
Q 46.1875 38.140625 46.1875 30.125 
L 46.1875 0 
L 37.40625 0 
L 37.40625 33.6875 
Q 37.40625 39.546875 35.25 42.46875 
Q 33.109375 45.40625 28.21875 45.40625 
Q 24.515625 45.40625 21.359375 43.453125 
Q 18.21875 41.5 16.796875 37.734375 
Q 15.375 33.984375 15.375 26.90625 
L 15.375 0 
z
" id="ArialMT-109"/>
      <path d="M 40.578125 0 
L 40.578125 7.625 
Q 34.515625 -1.171875 24.125 -1.171875 
Q 19.53125 -1.171875 15.546875 0.578125 
Q 11.578125 2.34375 9.640625 5 
Q 7.71875 7.671875 6.9375 11.53125 
Q 6.390625 14.109375 6.390625 19.734375 
L 6.390625 51.859375 
L 15.1875 51.859375 
L 15.1875 23.09375 
Q 15.1875 16.21875 15.71875 13.8125 
Q 16.546875 10.359375 19.234375 8.375 
Q 21.921875 6.390625 25.875 6.390625 
Q 29.828125 6.390625 33.296875 8.421875 
Q 36.765625 10.453125 38.203125 13.9375 
Q 39.65625 17.4375 39.65625 24.078125 
L 39.65625 51.859375 
L 48.4375 51.859375 
L 48.4375 0 
z
" id="ArialMT-117"/>
      <path id="ArialMT-32"/>
      <path d="M 3.328125 25.921875 
Q 3.328125 40.328125 11.328125 47.265625 
Q 18.015625 53.03125 27.640625 53.03125 
Q 38.328125 53.03125 45.109375 46.015625 
Q 51.90625 39.015625 51.90625 26.65625 
Q 51.90625 16.65625 48.90625 10.90625 
Q 45.90625 5.171875 40.15625 2 
Q 34.421875 -1.171875 27.640625 -1.171875 
Q 16.75 -1.171875 10.03125 5.8125 
Q 3.328125 12.796875 3.328125 25.921875 
z
M 12.359375 25.921875 
Q 12.359375 15.96875 16.703125 11.015625 
Q 21.046875 6.0625 27.640625 6.0625 
Q 34.1875 6.0625 38.53125 11.03125 
Q 42.875 16.015625 42.875 26.21875 
Q 42.875 35.84375 38.5 40.796875 
Q 34.125 45.75 27.640625 45.75 
Q 21.046875 45.75 16.703125 40.8125 
Q 12.359375 35.890625 12.359375 25.921875 
z
" id="ArialMT-111"/>
      <path d="M 25.78125 7.859375 
L 27.046875 0.09375 
Q 23.34375 -0.6875 20.40625 -0.6875 
Q 15.625 -0.6875 12.984375 0.828125 
Q 10.359375 2.34375 9.28125 4.8125 
Q 8.203125 7.28125 8.203125 15.1875 
L 8.203125 45.015625 
L 1.765625 45.015625 
L 1.765625 51.859375 
L 8.203125 51.859375 
L 8.203125 64.703125 
L 16.9375 69.96875 
L 16.9375 51.859375 
L 25.78125 51.859375 
L 25.78125 45.015625 
L 16.9375 45.015625 
L 16.9375 14.703125 
Q 16.9375 10.9375 17.40625 9.859375 
Q 17.875 8.796875 18.921875 8.15625 
Q 19.96875 7.515625 21.921875 7.515625 
Q 23.390625 7.515625 25.78125 7.859375 
z
" id="ArialMT-116"/>
      <path d="M 6.59375 0 
L 6.59375 71.578125 
L 15.375 71.578125 
L 15.375 45.90625 
Q 21.53125 53.03125 30.90625 53.03125 
Q 36.671875 53.03125 40.921875 50.75 
Q 45.171875 48.484375 47 44.484375 
Q 48.828125 40.484375 48.828125 32.859375 
L 48.828125 0 
L 40.046875 0 
L 40.046875 32.859375 
Q 40.046875 39.453125 37.1875 42.453125 
Q 34.328125 45.453125 29.109375 45.453125 
Q 25.203125 45.453125 21.75 43.421875 
Q 18.3125 41.40625 16.84375 37.9375 
Q 15.375 34.46875 15.375 28.375 
L 15.375 0 
z
" id="ArialMT-104"/>
      <path d="M 20.21875 0 
L 1.21875 71.578125 
L 10.9375 71.578125 
L 21.828125 24.65625 
Q 23.578125 17.28125 24.859375 10.015625 
Q 27.59375 21.484375 28.078125 23.25 
L 41.703125 71.578125 
L 53.125 71.578125 
L 63.375 35.359375 
Q 67.234375 21.875 68.953125 10.015625 
Q 70.3125 16.796875 72.515625 25.59375 
L 83.734375 71.578125 
L 93.265625 71.578125 
L 73.640625 0 
L 64.5 0 
L 49.421875 54.546875 
Q 47.515625 61.375 47.171875 62.9375 
Q 46.046875 58.015625 45.0625 54.546875 
L 29.890625 0 
z
" id="ArialMT-87"/>
      <path d="M 40.234375 0 
L 40.234375 6.546875 
Q 35.296875 -1.171875 25.734375 -1.171875 
Q 19.53125 -1.171875 14.328125 2.25 
Q 9.125 5.671875 6.265625 11.796875 
Q 3.421875 17.921875 3.421875 25.875 
Q 3.421875 33.640625 6 39.96875 
Q 8.59375 46.296875 13.765625 49.65625 
Q 18.953125 53.03125 25.34375 53.03125 
Q 30.03125 53.03125 33.6875 51.046875 
Q 37.359375 49.078125 39.65625 45.90625 
L 39.65625 71.578125 
L 48.390625 71.578125 
L 48.390625 0 
z
M 12.453125 25.875 
Q 12.453125 15.921875 16.640625 10.984375 
Q 20.84375 6.0625 26.5625 6.0625 
Q 32.328125 6.0625 36.34375 10.765625 
Q 40.375 15.484375 40.375 25.140625 
Q 40.375 35.796875 36.265625 40.765625 
Q 32.171875 45.75 26.171875 45.75 
Q 20.3125 45.75 16.375 40.96875 
Q 12.453125 36.1875 12.453125 25.875 
z
" id="ArialMT-100"/>
      <path d="M 23.390625 -21.046875 
Q 16.109375 -11.859375 11.078125 0.4375 
Q 6.0625 12.75 6.0625 25.921875 
Q 6.0625 37.546875 9.8125 48.1875 
Q 14.203125 60.546875 23.390625 72.796875 
L 29.6875 72.796875 
Q 23.78125 62.640625 21.875 58.296875 
Q 18.890625 51.5625 17.1875 44.234375 
Q 15.09375 35.109375 15.09375 25.875 
Q 15.09375 2.390625 29.6875 -21.046875 
z
" id="ArialMT-40"/>
      <path d="M 7.328125 0 
L 7.328125 71.578125 
L 16.796875 71.578125 
L 16.796875 8.453125 
L 52.046875 8.453125 
L 52.046875 0 
z
" id="ArialMT-76"/>
      <path d="M 12.359375 -21.046875 
L 6.0625 -21.046875 
Q 20.65625 2.390625 20.65625 25.875 
Q 20.65625 35.0625 18.5625 44.09375 
Q 16.890625 51.421875 13.921875 58.15625 
Q 12.015625 62.546875 6.0625 72.796875 
L 12.359375 72.796875 
Q 21.53125 60.546875 25.921875 48.1875 
Q 29.6875 37.546875 29.6875 25.921875 
Q 29.6875 12.75 24.625 0.4375 
Q 19.578125 -11.859375 12.359375 -21.046875 
z
" id="ArialMT-41"/>
     </defs>
     <g style="fill:#262626;" transform="translate(133.585217 345.835469)scale(0.12 -0.12)">
      <use xlink:href="#ArialMT-77"/>
      <use x="83.300781" xlink:href="#ArialMT-105"/>
      <use x="105.517578" xlink:href="#ArialMT-110"/>
      <use x="161.132812" xlink:href="#ArialMT-105"/>
      <use x="183.349609" xlink:href="#ArialMT-109"/>
      <use x="266.650391" xlink:href="#ArialMT-117"/>
      <use x="322.265625" xlink:href="#ArialMT-109"/>
      <use x="405.566406" xlink:href="#ArialMT-32"/>
      <use x="433.349609" xlink:href="#ArialMT-77"/>
      <use x="516.650391" xlink:href="#ArialMT-111"/>
      <use x="572.265625" xlink:href="#ArialMT-117"/>
      <use x="627.880859" xlink:href="#ArialMT-116"/>
      <use x="655.664062" xlink:href="#ArialMT-104"/>
      <use x="711.279297" xlink:href="#ArialMT-32"/>
      <use x="739.0625" xlink:href="#ArialMT-87"/>
      <use x="833.447266" xlink:href="#ArialMT-105"/>
      <use x="855.664062" xlink:href="#ArialMT-100"/>
      <use x="911.279297" xlink:href="#ArialMT-116"/>
      <use x="939.0625" xlink:href="#ArialMT-104"/>
      <use x="994.677734" xlink:href="#ArialMT-32"/>
      <use x="1022.460938" xlink:href="#ArialMT-40"/>
      <use x="1055.761719" xlink:href="#ArialMT-76"/>
      <use x="1111.376953" xlink:href="#ArialMT-109"/>
      <use x="1194.677734" xlink:href="#ArialMT-41"/>
     </g>
    </g>
   </g>
   <g id="matplotlib.axis_2">
    <g id="ytick_1">
     <g id="line2d_10">
      <path clip-path="url(#p179ed0eb44)" d="M 58.577683 313.54 
L 355.9415 313.54 
" style="fill:none;stroke:#ffffff;stroke-linecap:round;"/>
     </g>
     <g id="text_11">
      <!-- 0 -->
      <g style="fill:#262626;" transform="translate(42.960652 317.476797)scale(0.11 -0.11)">
       <use xlink:href="#ArialMT-48"/>
      </g>
     </g>
    </g>
    <g id="ytick_2">
     <g id="line2d_11">
      <path clip-path="url(#p179ed0eb44)" d="M 58.577683 264.417832 
L 355.9415 264.417832 
" style="fill:none;stroke:#ffffff;stroke-linecap:round;"/>
     </g>
     <g id="text_12">
      <!-- 20000 -->
      <g style="fill:#262626;" transform="translate(18.492527 268.354629)scale(0.11 -0.11)">
       <use xlink:href="#ArialMT-50"/>
       <use x="55.615234" xlink:href="#ArialMT-48"/>
       <use x="111.230469" xlink:href="#ArialMT-48"/>
       <use x="166.845703" xlink:href="#ArialMT-48"/>
       <use x="222.460938" xlink:href="#ArialMT-48"/>
      </g>
     </g>
    </g>
    <g id="ytick_3">
     <g id="line2d_12">
      <path clip-path="url(#p179ed0eb44)" d="M 58.577683 215.295665 
L 355.9415 215.295665 
" style="fill:none;stroke:#ffffff;stroke-linecap:round;"/>
     </g>
     <g id="text_13">
      <!-- 40000 -->
      <g style="fill:#262626;" transform="translate(18.492527 219.232461)scale(0.11 -0.11)">
       <use xlink:href="#ArialMT-52"/>
       <use x="55.615234" xlink:href="#ArialMT-48"/>
       <use x="111.230469" xlink:href="#ArialMT-48"/>
       <use x="166.845703" xlink:href="#ArialMT-48"/>
       <use x="222.460938" xlink:href="#ArialMT-48"/>
      </g>
     </g>
    </g>
    <g id="ytick_4">
     <g id="line2d_13">
      <path clip-path="url(#p179ed0eb44)" d="M 58.577683 166.173497 
L 355.9415 166.173497 
" style="fill:none;stroke:#ffffff;stroke-linecap:round;"/>
     </g>
     <g id="text_14">
      <!-- 60000 -->
      <g style="fill:#262626;" transform="translate(18.492527 170.110294)scale(0.11 -0.11)">
       <use xlink:href="#ArialMT-54"/>
       <use x="55.615234" xlink:href="#ArialMT-48"/>
       <use x="111.230469" xlink:href="#ArialMT-48"/>
       <use x="166.845703" xlink:href="#ArialMT-48"/>
       <use x="222.460938" xlink:href="#ArialMT-48"/>
      </g>
     </g>
    </g>
    <g id="ytick_5">
     <g id="line2d_14">
      <path clip-path="url(#p179ed0eb44)" d="M 58.577683 117.051329 
L 355.9415 117.051329 
" style="fill:none;stroke:#ffffff;stroke-linecap:round;"/>
     </g>
     <g id="text_15">
      <!-- 80000 -->
      <g style="fill:#262626;" transform="translate(18.492527 120.988126)scale(0.11 -0.11)">
       <use xlink:href="#ArialMT-56"/>
       <use x="55.615234" xlink:href="#ArialMT-48"/>
       <use x="111.230469" xlink:href="#ArialMT-48"/>
       <use x="166.845703" xlink:href="#ArialMT-48"/>
       <use x="222.460938" xlink:href="#ArialMT-48"/>
      </g>
     </g>
    </g>
    <g id="ytick_6">
     <g id="line2d_15">
      <path clip-path="url(#p179ed0eb44)" d="M 58.577683 67.929161 
L 355.9415 67.929161 
" style="fill:none;stroke:#ffffff;stroke-linecap:round;"/>
     </g>
     <g id="text_16">
      <!-- 100000 -->
      <g style="fill:#262626;" transform="translate(12.375496 71.865958)scale(0.11 -0.11)">
       <use xlink:href="#ArialMT-49"/>
       <use x="55.615234" xlink:href="#ArialMT-48"/>
       <use x="111.230469" xlink:href="#ArialMT-48"/>
       <use x="166.845703" xlink:href="#ArialMT-48"/>
       <use x="222.460938" xlink:href="#ArialMT-48"/>
       <use x="278.076172" xlink:href="#ArialMT-48"/>
      </g>
     </g>
    </g>
    <g id="ytick_7">
     <g id="line2d_16">
      <path clip-path="url(#p179ed0eb44)" d="M 58.577683 18.806994 
L 355.9415 18.806994 
" style="fill:none;stroke:#ffffff;stroke-linecap:round;"/>
     </g>
     <g id="text_17">
      <!-- 120000 -->
      <g style="fill:#262626;" transform="translate(12.375496 22.74379)scale(0.11 -0.11)">
       <use xlink:href="#ArialMT-49"/>
       <use x="55.615234" xlink:href="#ArialMT-50"/>
       <use x="111.230469" xlink:href="#ArialMT-48"/>
       <use x="166.845703" xlink:href="#ArialMT-48"/>
       <use x="222.460938" xlink:href="#ArialMT-48"/>
       <use x="278.076172" xlink:href="#ArialMT-48"/>
      </g>
     </g>
    </g>
    <g id="text_18">
     <!-- Maximum Body Width (Lb) -->
     <defs>
      <path d="M 40.4375 6.390625 
Q 35.546875 2.25 31.03125 0.53125 
Q 26.515625 -1.171875 21.34375 -1.171875 
Q 12.796875 -1.171875 8.203125 3 
Q 3.609375 7.171875 3.609375 13.671875 
Q 3.609375 17.484375 5.34375 20.625 
Q 7.078125 23.78125 9.890625 25.6875 
Q 12.703125 27.59375 16.21875 28.5625 
Q 18.796875 29.25 24.03125 29.890625 
Q 34.671875 31.15625 39.703125 32.90625 
Q 39.75 34.71875 39.75 35.203125 
Q 39.75 40.578125 37.25 42.78125 
Q 33.890625 45.75 27.25 45.75 
Q 21.046875 45.75 18.09375 43.578125 
Q 15.140625 41.40625 13.71875 35.890625 
L 5.125 37.0625 
Q 6.296875 42.578125 8.984375 45.96875 
Q 11.671875 49.359375 16.75 51.1875 
Q 21.828125 53.03125 28.515625 53.03125 
Q 35.15625 53.03125 39.296875 51.46875 
Q 43.453125 49.90625 45.40625 47.53125 
Q 47.359375 45.171875 48.140625 41.546875 
Q 48.578125 39.3125 48.578125 33.453125 
L 48.578125 21.734375 
Q 48.578125 9.46875 49.140625 6.21875 
Q 49.703125 2.984375 51.375 0 
L 42.1875 0 
Q 40.828125 2.734375 40.4375 6.390625 
z
M 39.703125 26.03125 
Q 34.90625 24.078125 25.34375 22.703125 
Q 19.921875 21.921875 17.671875 20.9375 
Q 15.4375 19.96875 14.203125 18.09375 
Q 12.984375 16.21875 12.984375 13.921875 
Q 12.984375 10.40625 15.640625 8.0625 
Q 18.3125 5.71875 23.4375 5.71875 
Q 28.515625 5.71875 32.46875 7.9375 
Q 36.421875 10.15625 38.28125 14.015625 
Q 39.703125 17 39.703125 22.796875 
z
" id="ArialMT-97"/>
      <path d="M 0.734375 0 
L 19.671875 26.953125 
L 2.15625 51.859375 
L 13.140625 51.859375 
L 21.09375 39.703125 
Q 23.34375 36.234375 24.703125 33.890625 
Q 26.859375 37.109375 28.65625 39.59375 
L 37.40625 51.859375 
L 47.90625 51.859375 
L 29.984375 27.4375 
L 49.265625 0 
L 38.484375 0 
L 27.828125 16.109375 
L 25 20.453125 
L 11.375 0 
z
" id="ArialMT-120"/>
      <path d="M 7.328125 0 
L 7.328125 71.578125 
L 34.1875 71.578125 
Q 42.390625 71.578125 47.34375 69.40625 
Q 52.296875 67.234375 55.09375 62.71875 
Q 57.90625 58.203125 57.90625 53.265625 
Q 57.90625 48.6875 55.421875 44.625 
Q 52.9375 40.578125 47.90625 38.09375 
Q 54.390625 36.1875 57.875 31.59375 
Q 61.375 27 61.375 20.75 
Q 61.375 15.71875 59.25 11.390625 
Q 57.125 7.078125 54 4.734375 
Q 50.875 2.390625 46.15625 1.1875 
Q 41.453125 0 34.625 0 
z
M 16.796875 41.5 
L 32.28125 41.5 
Q 38.578125 41.5 41.3125 42.328125 
Q 44.921875 43.40625 46.75 45.890625 
Q 48.578125 48.390625 48.578125 52.15625 
Q 48.578125 55.71875 46.875 58.421875 
Q 45.171875 61.140625 41.984375 62.140625 
Q 38.8125 63.140625 31.109375 63.140625 
L 16.796875 63.140625 
z
M 16.796875 8.453125 
L 34.625 8.453125 
Q 39.203125 8.453125 41.0625 8.796875 
Q 44.34375 9.375 46.53125 10.734375 
Q 48.734375 12.109375 50.140625 14.71875 
Q 51.5625 17.328125 51.5625 20.75 
Q 51.5625 24.75 49.515625 27.703125 
Q 47.46875 30.671875 43.828125 31.859375 
Q 40.1875 33.0625 33.34375 33.0625 
L 16.796875 33.0625 
z
" id="ArialMT-66"/>
      <path d="M 6.203125 -19.96875 
L 5.21875 -11.71875 
Q 8.109375 -12.5 10.25 -12.5 
Q 13.1875 -12.5 14.9375 -11.515625 
Q 16.703125 -10.546875 17.828125 -8.796875 
Q 18.65625 -7.46875 20.515625 -2.25 
Q 20.75 -1.515625 21.296875 -0.09375 
L 1.609375 51.859375 
L 11.078125 51.859375 
L 21.875 21.828125 
Q 23.96875 16.109375 25.640625 9.8125 
Q 27.15625 15.875 29.25 21.625 
L 40.328125 51.859375 
L 49.125 51.859375 
L 29.390625 -0.875 
Q 26.21875 -9.421875 24.46875 -12.640625 
Q 22.125 -17 19.09375 -19.015625 
Q 16.0625 -21.046875 11.859375 -21.046875 
Q 9.328125 -21.046875 6.203125 -19.96875 
z
" id="ArialMT-121"/>
      <path d="M 14.703125 0 
L 6.546875 0 
L 6.546875 71.578125 
L 15.328125 71.578125 
L 15.328125 46.046875 
Q 20.90625 53.03125 29.546875 53.03125 
Q 34.328125 53.03125 38.59375 51.09375 
Q 42.875 49.171875 45.625 45.671875 
Q 48.390625 42.1875 49.953125 37.25 
Q 51.515625 32.328125 51.515625 26.703125 
Q 51.515625 13.375 44.921875 6.09375 
Q 38.328125 -1.171875 29.109375 -1.171875 
Q 19.921875 -1.171875 14.703125 6.5 
z
M 14.59375 26.3125 
Q 14.59375 17 17.140625 12.84375 
Q 21.296875 6.0625 28.375 6.0625 
Q 34.125 6.0625 38.328125 11.0625 
Q 42.53125 16.0625 42.53125 25.984375 
Q 42.53125 36.140625 38.5 40.96875 
Q 34.46875 45.796875 28.765625 45.796875 
Q 23 45.796875 18.796875 40.796875 
Q 14.59375 35.796875 14.59375 26.3125 
z
" id="ArialMT-98"/>
     </defs>
     <g style="fill:#262626;" transform="translate(5.849871 235.930938)rotate(-90)scale(0.12 -0.12)">
      <use xlink:href="#ArialMT-77"/>
      <use x="83.300781" xlink:href="#ArialMT-97"/>
      <use x="138.916016" xlink:href="#ArialMT-120"/>
      <use x="188.916016" xlink:href="#ArialMT-105"/>
      <use x="211.132812" xlink:href="#ArialMT-109"/>
      <use x="294.433594" xlink:href="#ArialMT-117"/>
      <use x="350.048828" xlink:href="#ArialMT-109"/>
      <use x="433.349609" xlink:href="#ArialMT-32"/>
      <use x="461.132812" xlink:href="#ArialMT-66"/>
      <use x="527.832031" xlink:href="#ArialMT-111"/>
      <use x="583.447266" xlink:href="#ArialMT-100"/>
      <use x="639.0625" xlink:href="#ArialMT-121"/>
      <use x="689.0625" xlink:href="#ArialMT-32"/>
      <use x="716.845703" xlink:href="#ArialMT-87"/>
      <use x="811.230469" xlink:href="#ArialMT-105"/>
      <use x="833.447266" xlink:href="#ArialMT-100"/>
      <use x="889.0625" xlink:href="#ArialMT-116"/>
      <use x="916.845703" xlink:href="#ArialMT-104"/>
      <use x="972.460938" xlink:href="#ArialMT-32"/>
      <use x="1000.244141" xlink:href="#ArialMT-40"/>
      <use x="1033.544922" xlink:href="#ArialMT-76"/>
      <use x="1089.160156" xlink:href="#ArialMT-98"/>
      <use x="1144.775391" xlink:href="#ArialMT-41"/>
     </g>
    </g>
   </g>
   <g id="PathCollection_1">
    <defs>
     <path d="M 0 3 
C 0.795609 3 1.55874 2.683901 2.12132 2.12132 
C 2.683901 1.55874 3 0.795609 3 0 
C 3 -0.795609 2.683901 -1.55874 2.12132 -2.12132 
C 1.55874 -2.683901 0.795609 -3 0 -3 
C -0.795609 -3 -1.55874 -2.683901 -2.12132 -2.12132 
C -2.683901 -1.55874 -3 -0.795609 -3 0 
C -3 0.795609 -2.683901 1.55874 -2.12132 2.12132 
C -1.55874 2.683901 -0.795609 3 0 3 
z
" id="ma78f9729d2" style="stroke:#ffffff;stroke-width:0.75;"/>
    </defs>
    <g clip-path="url(#p179ed0eb44)">
     <use style="fill:#4c72b0;stroke:#ffffff;stroke-width:0.75;" x="60.114697" xlink:href="#ma78f9729d2" y="292.395363"/>
     <use style="fill:#4c72b0;stroke:#ffffff;stroke-width:0.75;" x="71.126246" xlink:href="#ma78f9729d2" y="264.056784"/>
     <use style="fill:#4c72b0;stroke:#ffffff;stroke-width:0.75;" x="78.117058" xlink:href="#ma78f9729d2" y="283.420743"/>
     <use style="fill:#4c72b0;stroke:#ffffff;stroke-width:0.75;" x="63.85699" xlink:href="#ma78f9729d2" y="271.363707"/>
     <use style="fill:#4c72b0;stroke:#ffffff;stroke-width:0.75;" x="72.292" xlink:href="#ma78f9729d2" y="255.24918"/>
     <use style="fill:#4c72b0;stroke:#ffffff;stroke-width:0.75;" x="72.86374" xlink:href="#ma78f9729d2" y="296.8532"/>
     <use style="fill:#4c72b0;stroke:#ffffff;stroke-width:0.75;" x="59.078883" xlink:href="#ma78f9729d2" y="263.568019"/>
     <use style="fill:#4c72b0;stroke:#ffffff;stroke-width:0.75;" x="61.191349" xlink:href="#ma78f9729d2" y="296.828639"/>
     <use style="fill:#4c72b0;stroke:#ffffff;stroke-width:0.75;" x="62.717224" xlink:href="#ma78f9729d2" y="294.018851"/>
     <use style="fill:#4c72b0;stroke:#ffffff;stroke-width:0.75;" x="62.2383" xlink:href="#ma78f9729d2" y="283.234079"/>
     <use style="fill:#4c72b0;stroke:#ffffff;stroke-width:0.75;" x="65.716999" xlink:href="#ma78f9729d2" y="255.197601"/>
     <use style="fill:#4c72b0;stroke:#ffffff;stroke-width:0.75;" x="60.84979" xlink:href="#ma78f9729d2" y="296.479871"/>
     <use style="fill:#4c72b0;stroke:#ffffff;stroke-width:0.75;" x="68.575695" xlink:href="#ma78f9729d2" y="285.213702"/>
     <use style="fill:#4c72b0;stroke:#ffffff;stroke-width:0.75;" x="87.12752" xlink:href="#ma78f9729d2" y="256.717932"/>
     <use style="fill:#4c72b0;stroke:#ffffff;stroke-width:0.75;" x="62.7692" xlink:href="#ma78f9729d2" y="283.440392"/>
     <use style="fill:#4c72b0;stroke:#ffffff;stroke-width:0.75;" x="66.455805" xlink:href="#ma78f9729d2" y="251.845013"/>
     <use style="fill:#4c72b0;stroke:#ffffff;stroke-width:0.75;" x="71.7611" xlink:href="#ma78f9729d2" y="273.822271"/>
     <use style="fill:#4c72b0;stroke:#ffffff;stroke-width:0.75;" x="65.64646" xlink:href="#ma78f9729d2" y="271.609318"/>
     <use style="fill:#4c72b0;stroke:#ffffff;stroke-width:0.75;" x="65.167535" xlink:href="#ma78f9729d2" y="293.662715"/>
     <use style="fill:#4c72b0;stroke:#ffffff;stroke-width:0.75;" x="63.244412" xlink:href="#ma78f9729d2" y="277.612047"/>
     <use style="fill:#4c72b0;stroke:#ffffff;stroke-width:0.75;" x="64.254237" xlink:href="#ma78f9729d2" y="298.258094"/>
     <use style="fill:#4c72b0;stroke:#ffffff;stroke-width:0.75;" x="72.908291" xlink:href="#ma78f9729d2" y="289.774695"/>
     <use style="fill:#4c72b0;stroke:#ffffff;stroke-width:0.75;" x="64.851965" xlink:href="#ma78f9729d2" y="247.944713"/>
     <use style="fill:#4c72b0;stroke:#ffffff;stroke-width:0.75;" x="70.940617" xlink:href="#ma78f9729d2" y="277.781518"/>
     <use style="fill:#4c72b0;stroke:#ffffff;stroke-width:0.75;" x="68.902403" xlink:href="#ma78f9729d2" y="267.092534"/>
     <use style="fill:#4c72b0;stroke:#ffffff;stroke-width:0.75;" x="79.49443" xlink:href="#ma78f9729d2" y="279.088168"/>
     <use style="fill:#4c72b0;stroke:#ffffff;stroke-width:0.75;" x="106.629769" xlink:href="#ma78f9729d2" y="275.094535"/>
     <use style="fill:#4c72b0;stroke:#ffffff;stroke-width:0.75;" x="95.692472" xlink:href="#ma78f9729d2" y="270.52863"/>
     <use style="fill:#4c72b0;stroke:#ffffff;stroke-width:0.75;" x="98.766498" xlink:href="#ma78f9729d2" y="270.025128"/>
     <use style="fill:#4c72b0;stroke:#ffffff;stroke-width:0.75;" x="71.753674" xlink:href="#ma78f9729d2" y="302.765053"/>
     <use style="fill:#4c72b0;stroke:#ffffff;stroke-width:0.75;" x="89.670646" xlink:href="#ma78f9729d2" y="292.338872"/>
     <use style="fill:#4c72b0;stroke:#ffffff;stroke-width:0.75;" x="110.850987" xlink:href="#ma78f9729d2" y="274.441211"/>
     <use style="fill:#4c72b0;stroke:#ffffff;stroke-width:0.75;" x="84.833138" xlink:href="#ma78f9729d2" y="298.248269"/>
     <use style="fill:#4c72b0;stroke:#ffffff;stroke-width:0.75;" x="77.482205" xlink:href="#ma78f9729d2" y="297.135652"/>
     <use style="fill:#4c72b0;stroke:#ffffff;stroke-width:0.75;" x="64.04262" xlink:href="#ma78f9729d2" y="291.378534"/>
     <use style="fill:#4c72b0;stroke:#ffffff;stroke-width:0.75;" x="72.537031" xlink:href="#ma78f9729d2" y="277.887131"/>
     <use style="fill:#4c72b0;stroke:#ffffff;stroke-width:0.75;" x="60.226074" xlink:href="#ma78f9729d2" y="278.795891"/>
     <use style="fill:#4c72b0;stroke:#ffffff;stroke-width:0.75;" x="62.360815" xlink:href="#ma78f9729d2" y="304.960813"/>
     <use style="fill:#4c72b0;stroke:#ffffff;stroke-width:0.75;" x="63.259263" xlink:href="#ma78f9729d2" y="307.141838"/>
     <use style="fill:#4c72b0;stroke:#ffffff;stroke-width:0.75;" x="106.247372" xlink:href="#ma78f9729d2" y="276.752409"/>
     <use style="fill:#4c72b0;stroke:#ffffff;stroke-width:0.75;" x="81.469529" xlink:href="#ma78f9729d2" y="298.005114"/>
     <use style="fill:#4c72b0;stroke:#ffffff;stroke-width:0.75;" x="61.763088" xlink:href="#ma78f9729d2" y="305.781154"/>
     <use style="fill:#4c72b0;stroke:#ffffff;stroke-width:0.75;" x="64.298789" xlink:href="#ma78f9729d2" y="290.42802"/>
     <use style="fill:#4c72b0;stroke:#ffffff;stroke-width:0.75;" x="60.367153" xlink:href="#ma78f9729d2" y="297.73003"/>
     <use style="fill:#4c72b0;stroke:#ffffff;stroke-width:0.75;" x="61.05027" xlink:href="#ma78f9729d2" y="299.847196"/>
     <use style="fill:#4c72b0;stroke:#ffffff;stroke-width:0.75;" x="63.333514" xlink:href="#ma78f9729d2" y="287.822089"/>
     <use style="fill:#4c72b0;stroke:#ffffff;stroke-width:0.75;" x="68.928391" xlink:href="#ma78f9729d2" y="293.768327"/>
     <use style="fill:#4c72b0;stroke:#ffffff;stroke-width:0.75;" x="77.107233" xlink:href="#ma78f9729d2" y="252.876579"/>
     <use style="fill:#4c72b0;stroke:#ffffff;stroke-width:0.75;" x="59.654335" xlink:href="#ma78f9729d2" y="304.221525"/>
    </g>
   </g>
   <g id="PathCollection_2">
    <defs>
     <path d="M 0 3 
C 0.795609 3 1.55874 2.683901 2.12132 2.12132 
C 2.683901 1.55874 3 0.795609 3 0 
C 3 -0.795609 2.683901 -1.55874 2.12132 -2.12132 
C 1.55874 -2.683901 0.795609 -3 0 -3 
C -0.795609 -3 -1.55874 -2.683901 -2.12132 -2.12132 
C -2.683901 -1.55874 -3 -0.795609 -3 0 
C -3 0.795609 -2.683901 1.55874 -2.12132 2.12132 
C -1.55874 2.683901 -0.795609 3 0 3 
z
" id="m5bd3c51f3e" style="stroke:#ffffff;stroke-width:0.75;"/>
    </defs>
    <g clip-path="url(#p179ed0eb44)">
     <use style="fill:#dd8452;stroke:#ffffff;stroke-width:0.75;" x="201.130101" xlink:href="#m5bd3c51f3e" y="173.94708"/>
     <use style="fill:#dd8452;stroke:#ffffff;stroke-width:0.75;" x="277.13801" xlink:href="#m5bd3c51f3e" y="173.551646"/>
     <use style="fill:#dd8452;stroke:#ffffff;stroke-width:0.75;" x="337.924288" xlink:href="#m5bd3c51f3e" y="184.122737"/>
     <use style="fill:#dd8452;stroke:#ffffff;stroke-width:0.75;" x="245.257977" xlink:href="#m5bd3c51f3e" y="194.868211"/>
     <use style="fill:#dd8452;stroke:#ffffff;stroke-width:0.75;" x="300.501355" xlink:href="#m5bd3c51f3e" y="172.159033"/>
     <use style="fill:#dd8452;stroke:#ffffff;stroke-width:0.75;" x="189.175553" xlink:href="#m5bd3c51f3e" y="210.196783"/>
     <use style="fill:#dd8452;stroke:#ffffff;stroke-width:0.75;" x="219.021085" xlink:href="#m5bd3c51f3e" y="207.357522"/>
     <use style="fill:#dd8452;stroke:#ffffff;stroke-width:0.75;" x="251.00507" xlink:href="#m5bd3c51f3e" y="194.551373"/>
     <use style="fill:#dd8452;stroke:#ffffff;stroke-width:0.75;" x="200.109138" xlink:href="#m5bd3c51f3e" y="213.328322"/>
     <use style="fill:#dd8452;stroke:#ffffff;stroke-width:0.75;" x="206.940309" xlink:href="#m5bd3c51f3e" y="195.673815"/>
     <use style="fill:#dd8452;stroke:#ffffff;stroke-width:0.75;" x="234.602836" xlink:href="#m5bd3c51f3e" y="219.132106"/>
     <use style="fill:#dd8452;stroke:#ffffff;stroke-width:0.75;" x="280.442217" xlink:href="#m5bd3c51f3e" y="241.084803"/>
    </g>
   </g>
   <g id="PathCollection_3">
    <defs>
     <path d="M 0 3 
C 0.795609 3 1.55874 2.683901 2.12132 2.12132 
C 2.683901 1.55874 3 0.795609 3 0 
C 3 -0.795609 2.683901 -1.55874 2.12132 -2.12132 
C 1.55874 -2.683901 0.795609 -3 0 -3 
C -0.795609 -3 -1.55874 -2.683901 -2.12132 -2.12132 
C -2.683901 -1.55874 -3 -0.795609 -3 0 
C -3 0.795609 -2.683901 1.55874 -2.12132 2.12132 
C -1.55874 2.683901 -0.795609 3 0 3 
z
" id="m4a0a78f466" style="stroke:#ffffff;stroke-width:0.75;"/>
    </defs>
    <g clip-path="url(#p179ed0eb44)">
     <use style="fill:#55a868;stroke:#ffffff;stroke-width:0.75;" x="84.50643" xlink:href="#m4a0a78f466" y="214.718479"/>
     <use style="fill:#55a868;stroke:#ffffff;stroke-width:0.75;" x="60.66416" xlink:href="#m4a0a78f466" y="188.757413"/>
     <use style="fill:#55a868;stroke:#ffffff;stroke-width:0.75;" x="89.655796" xlink:href="#m4a0a78f466" y="219.424383"/>
     <use style="fill:#55a868;stroke:#ffffff;stroke-width:0.75;" x="98.603144" xlink:href="#m4a0a78f466" y="230.032315"/>
     <use style="fill:#55a868;stroke:#ffffff;stroke-width:0.75;" x="64.566095" xlink:href="#m4a0a78f466" y="234.991198"/>
     <use style="fill:#55a868;stroke:#ffffff;stroke-width:0.75;" x="99.54243" xlink:href="#m4a0a78f466" y="216.987923"/>
     <use style="fill:#55a868;stroke:#ffffff;stroke-width:0.75;" x="71.467805" xlink:href="#m4a0a78f466" y="186.065519"/>
     <use style="fill:#55a868;stroke:#ffffff;stroke-width:0.75;" x="92.752098" xlink:href="#m4a0a78f466" y="227.816905"/>
     <use style="fill:#55a868;stroke:#ffffff;stroke-width:0.75;" x="76.097408" xlink:href="#m4a0a78f466" y="237.646251"/>
     <use style="fill:#55a868;stroke:#ffffff;stroke-width:0.75;" x="84.929666" xlink:href="#m4a0a78f466" y="194.141203"/>
     <use style="fill:#55a868;stroke:#ffffff;stroke-width:0.75;" x="128.129393" xlink:href="#m4a0a78f466" y="197.741858"/>
     <use style="fill:#55a868;stroke:#ffffff;stroke-width:0.75;" x="111.225959" xlink:href="#m4a0a78f466" y="201.858296"/>
     <use style="fill:#55a868;stroke:#ffffff;stroke-width:0.75;" x="145.849598" xlink:href="#m4a0a78f466" y="202.769512"/>
    </g>
   </g>
   <g id="PathCollection_4">
    <defs>
     <path d="M 0 3 
C 0.795609 3 1.55874 2.683901 2.12132 2.12132 
C 2.683901 1.55874 3 0.795609 3 0 
C 3 -0.795609 2.683901 -1.55874 2.12132 -2.12132 
C 1.55874 -2.683901 0.795609 -3 0 -3 
C -0.795609 -3 -1.55874 -2.683901 -2.12132 -2.12132 
C -2.683901 -1.55874 -3 -0.795609 -3 0 
C -3 0.795609 -2.683901 1.55874 -2.12132 2.12132 
C -1.55874 2.683901 -0.795609 3 0 3 
z
" id="mdf84c989ba" style="stroke:#ffffff;stroke-width:0.75;"/>
    </defs>
    <g clip-path="url(#p179ed0eb44)">
     <use style="fill:#c44e52;stroke:#ffffff;stroke-width:0.75;" x="84.725473" xlink:href="#mdf84c989ba" y="16.96"/>
    </g>
   </g>
   <g id="PathCollection_5">
    <defs>
     <path d="M 0 3 
C 0.795609 3 1.55874 2.683901 2.12132 2.12132 
C 2.683901 1.55874 3 0.795609 3 0 
C 3 -0.795609 2.683901 -1.55874 2.12132 -2.12132 
C 1.55874 -2.683901 0.795609 -3 0 -3 
C -0.795609 -3 -1.55874 -2.683901 -2.12132 -2.12132 
C -2.683901 -1.55874 -3 -0.795609 -3 0 
C -3 0.795609 -2.683901 1.55874 -2.12132 2.12132 
C -1.55874 2.683901 -0.795609 3 0 3 
z
" id="m6983770127" style="stroke:#ffffff;stroke-width:0.75;"/>
    </defs>
    <g clip-path="url(#p179ed0eb44)">
     <use style="fill:#8172b3;stroke:#ffffff;stroke-width:0.75;" x="112.710996" xlink:href="#m6983770127" y="245.071066"/>
     <use style="fill:#8172b3;stroke:#ffffff;stroke-width:0.75;" x="162.686205" xlink:href="#m6983770127" y="247.564016"/>
     <use style="fill:#8172b3;stroke:#ffffff;stroke-width:0.75;" x="119.894863" xlink:href="#m6983770127" y="260.340692"/>
     <use style="fill:#8172b3;stroke:#ffffff;stroke-width:0.75;" x="162.069915" xlink:href="#m6983770127" y="279.075887"/>
     <use style="fill:#8172b3;stroke:#ffffff;stroke-width:0.75;" x="162.916386" xlink:href="#m6983770127" y="287.085257"/>
     <use style="fill:#8172b3;stroke:#ffffff;stroke-width:0.75;" x="126.19142" xlink:href="#m6983770127" y="261.448397"/>
     <use style="fill:#8172b3;stroke:#ffffff;stroke-width:0.75;" x="172.190442" xlink:href="#m6983770127" y="267.104815"/>
     <use style="fill:#8172b3;stroke:#ffffff;stroke-width:0.75;" x="106.04318" xlink:href="#m6983770127" y="253.967091"/>
     <use style="fill:#8172b3;stroke:#ffffff;stroke-width:0.75;" x="177.221005" xlink:href="#m6983770127" y="249.035225"/>
     <use style="fill:#8172b3;stroke:#ffffff;stroke-width:0.75;" x="106.180546" xlink:href="#m6983770127" y="252.237991"/>
     <use style="fill:#8172b3;stroke:#ffffff;stroke-width:0.75;" x="151.329384" xlink:href="#m6983770127" y="261.02349"/>
     <use style="fill:#8172b3;stroke:#ffffff;stroke-width:0.75;" x="157.934086" xlink:href="#m6983770127" y="237.557831"/>
     <use style="fill:#8172b3;stroke:#ffffff;stroke-width:0.75;" x="126.325073" xlink:href="#m6983770127" y="275.23699"/>
     <use style="fill:#8172b3;stroke:#ffffff;stroke-width:0.75;" x="154.147242" xlink:href="#m6983770127" y="267.880945"/>
     <use style="fill:#8172b3;stroke:#ffffff;stroke-width:0.75;" x="167.230418" xlink:href="#m6983770127" y="245.297028"/>
     <use style="fill:#8172b3;stroke:#ffffff;stroke-width:0.75;" x="119.263722" xlink:href="#m6983770127" y="280.394817"/>
     <use style="fill:#8172b3;stroke:#ffffff;stroke-width:0.75;" x="131.396475" xlink:href="#m6983770127" y="267.406916"/>
     <use style="fill:#8172b3;stroke:#ffffff;stroke-width:0.75;" x="143.083716" xlink:href="#m6983770127" y="254.961815"/>
     <use style="fill:#8172b3;stroke:#ffffff;stroke-width:0.75;" x="132.13528" xlink:href="#m6983770127" y="254.116914"/>
     <use style="fill:#8172b3;stroke:#ffffff;stroke-width:0.75;" x="186.591589" xlink:href="#m6983770127" y="229.506708"/>
     <use style="fill:#8172b3;stroke:#ffffff;stroke-width:0.75;" x="191.083826" xlink:href="#m6983770127" y="245.74404"/>
    </g>
   </g>
   <g id="PathCollection_6">
    <defs>
     <path d="M 0 3 
C 0.795609 3 1.55874 2.683901 2.12132 2.12132 
C 2.683901 1.55874 3 0.795609 3 0 
C 3 -0.795609 2.683901 -1.55874 2.12132 -2.12132 
C 1.55874 -2.683901 0.795609 -3 0 -3 
C -0.795609 -3 -1.55874 -2.683901 -2.12132 -2.12132 
C -2.683901 -1.55874 -3 -0.795609 -3 0 
C -3 0.795609 -2.683901 1.55874 -2.12132 2.12132 
C -1.55874 2.683901 -0.795609 3 0 3 
z
" id="mf5900208dc" style="stroke:#ffffff;stroke-width:0.75;"/>
    </defs>
    <g clip-path="url(#p179ed0eb44)">
     <use style="fill:#937860;stroke:#ffffff;stroke-width:0.75;" x="355.9415" xlink:href="#mf5900208dc" y="102.963091"/>
     <use style="fill:#937860;stroke:#ffffff;stroke-width:0.75;" x="229.126762" xlink:href="#mf5900208dc" y="93.067431"/>
     <use style="fill:#937860;stroke:#ffffff;stroke-width:0.75;" x="349.318235" xlink:href="#mf5900208dc" y="72.944535"/>
    </g>
   </g>
   <g id="PathCollection_7">
    <defs>
     <path d="M 0 3 
C 0.795609 3 1.55874 2.683901 2.12132 2.12132 
C 2.683901 1.55874 3 0.795609 3 0 
C 3 -0.795609 2.683901 -1.55874 2.12132 -2.12132 
C 1.55874 -2.683901 0.795609 -3 0 -3 
C -0.795609 -3 -1.55874 -2.683901 -2.12132 -2.12132 
C -2.683901 -1.55874 -3 -0.795609 -3 0 
C -3 0.795609 -2.683901 1.55874 -2.12132 2.12132 
C -1.55874 2.683901 -0.795609 3 0 3 
z
" id="m405b651c00" style="stroke:#ffffff;stroke-width:0.75;"/>
    </defs>
    <g clip-path="url(#p179ed0eb44)">
     <use style="fill:#da8bc3;stroke:#ffffff;stroke-width:0.75;" x="83.30355" xlink:href="#m405b651c00" y="134.772151"/>
     <use style="fill:#da8bc3;stroke:#ffffff;stroke-width:0.75;" x="85.2935" xlink:href="#m405b651c00" y="170.91133"/>
     <use style="fill:#da8bc3;stroke:#ffffff;stroke-width:0.75;" x="64.84454" xlink:href="#m405b651c00" y="107.6911"/>
     <use style="fill:#da8bc3;stroke:#ffffff;stroke-width:0.75;" x="119.352824" xlink:href="#m405b651c00" y="147.349882"/>
     <use style="fill:#da8bc3;stroke:#ffffff;stroke-width:0.75;" x="105.683058" xlink:href="#m405b651c00" y="153.097176"/>
     <use style="fill:#da8bc3;stroke:#ffffff;stroke-width:0.75;" x="177.421485" xlink:href="#m405b651c00" y="137.365801"/>
     <use style="fill:#da8bc3;stroke:#ffffff;stroke-width:0.75;" x="124.049254" xlink:href="#m405b651c00" y="170.751683"/>
    </g>
   </g>
   <g id="line2d_17">
    <path clip-path="url(#p179ed0eb44)" d="M 58.577683 313.54 
L 63.105996 310.544242 
L 67.634309 307.548485 
L 72.162622 304.552727 
L 76.690935 301.55697 
L 81.219248 298.561212 
L 85.747561 295.565455 
L 90.275874 292.569697 
L 94.804187 289.573939 
L 99.3325 286.578182 
L 103.860813 283.582424 
L 108.389126 280.586667 
L 112.917439 277.590909 
L 117.445752 274.595152 
L 121.974065 271.599394 
L 126.502377 268.603636 
L 131.03069 265.607879 
L 135.559003 262.612121 
L 140.087316 259.616364 
L 144.615629 256.620606 
L 149.143942 253.624848 
L 153.672255 250.629091 
L 158.200568 247.633333 
L 162.728881 244.637576 
L 167.257194 241.641818 
L 171.785507 238.646061 
L 176.31382 235.650303 
L 180.842133 232.654545 
L 185.370446 229.658788 
L 189.898759 226.66303 
L 194.427072 223.667273 
L 198.955385 220.671515 
L 203.483697 217.675758 
L 208.01201 214.68 
L 212.540323 211.684242 
L 217.068636 208.688485 
L 221.596949 205.692727 
L 226.125262 202.69697 
L 230.653575 199.701212 
L 235.181888 196.705455 
L 239.710201 193.709697 
L 244.238514 190.713939 
L 248.766827 187.718182 
L 253.29514 184.722424 
L 257.823453 181.726667 
L 262.351766 178.730909 
L 266.880079 175.735152 
L 271.408392 172.739394 
L 275.936705 169.743636 
L 280.465018 166.747879 
L 284.99333 163.752121 
L 289.521643 160.756364 
L 294.049956 157.760606 
L 298.578269 154.764848 
L 303.106582 151.769091 
L 307.634895 148.773333 
L 312.163208 145.777576 
L 316.691521 142.781818 
L 321.219834 139.786061 
L 325.748147 136.790303 
L 330.27646 133.794545 
L 334.804773 130.798788 
L 339.333086 127.80303 
L 343.861399 124.807273 
L 348.389712 121.811515 
L 352.918025 118.815758 
L 357.446338 115.82 
L 361.97465 112.824242 
L 366.502963 109.828485 
L 371.031276 106.832727 
L 375.559589 103.83697 
L 380.087902 100.841212 
L 384.616215 97.845455 
L 389.144528 94.849697 
L 393.672841 91.853939 
L 398.201154 88.858182 
L 402.729467 85.862424 
L 406.85 83.136438 
" style="fill:none;stroke:#000000;stroke-linecap:round;stroke-width:1.5;"/>
   </g>
   <g id="line2d_18">
    <path clip-path="url(#p179ed0eb44)" d="M 58.577683 313.54 
L 63.105996 304.552727 
L 67.634309 295.565455 
L 72.162622 286.578182 
L 76.690935 277.590909 
L 81.219248 268.603636 
L 85.747561 259.616364 
L 90.275874 250.629091 
L 94.804187 241.641818 
L 99.3325 232.654545 
L 103.860813 223.667273 
L 108.389126 214.68 
L 112.917439 205.692727 
L 117.445752 196.705455 
L 121.974065 187.718182 
L 126.502377 178.730909 
L 131.03069 169.743636 
L 135.559003 160.756364 
L 140.087316 151.769091 
L 144.615629 142.781818 
L 149.143942 133.794545 
L 153.672255 124.807273 
L 158.200568 115.82 
L 162.728881 106.832727 
L 167.257194 97.845455 
L 171.785507 88.858182 
L 176.31382 79.870909 
L 180.842133 70.883636 
L 185.370446 61.896364 
L 189.898759 52.909091 
L 194.427072 43.921818 
L 198.955385 34.934545 
L 203.483697 25.947273 
L 208.01201 16.96 
L 212.540323 7.972727 
L 217.061307 -1 
" style="fill:none;stroke:#c44e52;stroke-dasharray:5.55,2.4;stroke-dashoffset:0;stroke-width:1.5;"/>
   </g>
   <g id="patch_3">
    <path d="M 58.577683 313.54 
L 58.577683 16.96 
" style="fill:none;stroke:#ffffff;stroke-linecap:square;stroke-linejoin:miter;stroke-width:1.25;"/>
   </g>
   <g id="patch_4">
    <path d="M 58.577683 313.54 
L 355.9415 313.54 
" style="fill:none;stroke:#ffffff;stroke-linecap:square;stroke-linejoin:miter;stroke-width:1.25;"/>
   </g>
  </g>
  <g id="legend_1">
   <g id="text_19">
    <!-- Cluster -->
    <defs>
     <path d="M 58.796875 25.09375 
L 68.265625 22.703125 
Q 65.28125 11.03125 57.546875 4.90625 
Q 49.8125 -1.21875 38.625 -1.21875 
Q 27.046875 -1.21875 19.796875 3.484375 
Q 12.546875 8.203125 8.765625 17.140625 
Q 4.984375 26.078125 4.984375 36.328125 
Q 4.984375 47.515625 9.25 55.828125 
Q 13.53125 64.15625 21.40625 68.46875 
Q 29.296875 72.796875 38.765625 72.796875 
Q 49.515625 72.796875 56.828125 67.328125 
Q 64.15625 61.859375 67.046875 51.953125 
L 57.71875 49.75 
Q 55.21875 57.5625 50.484375 61.125 
Q 45.75 64.703125 38.578125 64.703125 
Q 30.328125 64.703125 24.78125 60.734375 
Q 19.234375 56.78125 16.984375 50.109375 
Q 14.75 43.453125 14.75 36.375 
Q 14.75 27.25 17.40625 20.4375 
Q 20.0625 13.625 25.671875 10.25 
Q 31.296875 6.890625 37.84375 6.890625 
Q 45.796875 6.890625 51.3125 11.46875 
Q 56.84375 16.0625 58.796875 25.09375 
z
" id="ArialMT-67"/>
     <path d="M 6.390625 0 
L 6.390625 71.578125 
L 15.1875 71.578125 
L 15.1875 0 
z
" id="ArialMT-108"/>
     <path d="M 3.078125 15.484375 
L 11.765625 16.84375 
Q 12.5 11.625 15.84375 8.84375 
Q 19.1875 6.0625 25.203125 6.0625 
Q 31.25 6.0625 34.171875 8.515625 
Q 37.109375 10.984375 37.109375 14.3125 
Q 37.109375 17.28125 34.515625 19 
Q 32.71875 20.171875 25.53125 21.96875 
Q 15.875 24.421875 12.140625 26.203125 
Q 8.40625 27.984375 6.46875 31.125 
Q 4.546875 34.28125 4.546875 38.09375 
Q 4.546875 41.546875 6.125 44.5 
Q 7.71875 47.46875 10.453125 49.421875 
Q 12.5 50.921875 16.03125 51.96875 
Q 19.578125 53.03125 23.640625 53.03125 
Q 29.734375 53.03125 34.34375 51.265625 
Q 38.96875 49.515625 41.15625 46.5 
Q 43.359375 43.5 44.1875 38.484375 
L 35.59375 37.3125 
Q 35.015625 41.3125 32.203125 43.546875 
Q 29.390625 45.796875 24.265625 45.796875 
Q 18.21875 45.796875 15.625 43.796875 
Q 13.03125 41.796875 13.03125 39.109375 
Q 13.03125 37.40625 14.109375 36.03125 
Q 15.1875 34.625 17.484375 33.6875 
Q 18.796875 33.203125 25.25 31.453125 
Q 34.578125 28.953125 38.25 27.359375 
Q 41.9375 25.78125 44.03125 22.75 
Q 46.140625 19.734375 46.140625 15.234375 
Q 46.140625 10.84375 43.578125 6.953125 
Q 41.015625 3.078125 36.171875 0.953125 
Q 31.34375 -1.171875 25.25 -1.171875 
Q 15.140625 -1.171875 9.84375 3.03125 
Q 4.546875 7.234375 3.078125 15.484375 
z
" id="ArialMT-115"/>
     <path d="M 42.09375 16.703125 
L 51.171875 15.578125 
Q 49.03125 7.625 43.21875 3.21875 
Q 37.40625 -1.171875 28.375 -1.171875 
Q 17 -1.171875 10.328125 5.828125 
Q 3.65625 12.84375 3.65625 25.484375 
Q 3.65625 38.578125 10.390625 45.796875 
Q 17.140625 53.03125 27.875 53.03125 
Q 38.28125 53.03125 44.875 45.953125 
Q 51.46875 38.875 51.46875 26.03125 
Q 51.46875 25.25 51.421875 23.6875 
L 12.75 23.6875 
Q 13.234375 15.140625 17.578125 10.59375 
Q 21.921875 6.0625 28.421875 6.0625 
Q 33.25 6.0625 36.671875 8.59375 
Q 40.09375 11.140625 42.09375 16.703125 
z
M 13.234375 30.90625 
L 42.1875 30.90625 
Q 41.609375 37.453125 38.875 40.71875 
Q 34.671875 45.796875 27.984375 45.796875 
Q 21.921875 45.796875 17.796875 41.75 
Q 13.671875 37.703125 13.234375 30.90625 
z
" id="ArialMT-101"/>
     <path d="M 6.5 0 
L 6.5 51.859375 
L 14.40625 51.859375 
L 14.40625 44 
Q 17.4375 49.515625 20 51.265625 
Q 22.5625 53.03125 25.640625 53.03125 
Q 30.078125 53.03125 34.671875 50.203125 
L 31.640625 42.046875 
Q 28.421875 43.953125 25.203125 43.953125 
Q 22.3125 43.953125 20.015625 42.21875 
Q 17.71875 40.484375 16.75 37.40625 
Q 15.28125 32.71875 15.28125 27.15625 
L 15.28125 0 
z
" id="ArialMT-114"/>
    </defs>
    <g style="fill:#262626;" transform="translate(361.338031 128.177406)scale(0.102 -0.102)">
     <use xlink:href="#ArialMT-67"/>
     <use x="72.216797" xlink:href="#ArialMT-108"/>
     <use x="94.433594" xlink:href="#ArialMT-117"/>
     <use x="150.048828" xlink:href="#ArialMT-115"/>
     <use x="200.048828" xlink:href="#ArialMT-116"/>
     <use x="227.832031" xlink:href="#ArialMT-101"/>
     <use x="283.447266" xlink:href="#ArialMT-114"/>
    </g>
   </g>
   <g id="PathCollection_8">
    <g>
     <use style="fill:#4c72b0;stroke:#ffffff;stroke-width:0.75;" x="370.032969" xlink:href="#ma78f9729d2" y="140.69075"/>
    </g>
   </g>
   <g id="text_20">
    <!-- 0 -->
    <g style="fill:#262626;" transform="translate(389.832969 143.57825)scale(0.11 -0.11)">
     <use xlink:href="#ArialMT-48"/>
    </g>
   </g>
   <g id="PathCollection_9">
    <g>
     <use style="fill:#dd8452;stroke:#ffffff;stroke-width:0.75;" x="370.032969" xlink:href="#m5bd3c51f3e" y="156.250594"/>
    </g>
   </g>
   <g id="text_21">
    <!-- 1 -->
    <g style="fill:#262626;" transform="translate(389.832969 159.138094)scale(0.11 -0.11)">
     <use xlink:href="#ArialMT-49"/>
    </g>
   </g>
   <g id="PathCollection_10">
    <g>
     <use style="fill:#55a868;stroke:#ffffff;stroke-width:0.75;" x="370.032969" xlink:href="#m4a0a78f466" y="171.810437"/>
    </g>
   </g>
   <g id="text_22">
    <!-- 2 -->
    <g style="fill:#262626;" transform="translate(389.832969 174.697937)scale(0.11 -0.11)">
     <use xlink:href="#ArialMT-50"/>
    </g>
   </g>
   <g id="PathCollection_11">
    <g>
     <use style="fill:#c44e52;stroke:#ffffff;stroke-width:0.75;" x="370.032969" xlink:href="#mdf84c989ba" y="187.370281"/>
    </g>
   </g>
   <g id="text_23">
    <!-- 3 -->
    <g style="fill:#262626;" transform="translate(389.832969 190.257781)scale(0.11 -0.11)">
     <use xlink:href="#ArialMT-51"/>
    </g>
   </g>
   <g id="PathCollection_12">
    <g>
     <use style="fill:#8172b3;stroke:#ffffff;stroke-width:0.75;" x="370.032969" xlink:href="#m6983770127" y="202.930125"/>
    </g>
   </g>
   <g id="text_24">
    <!-- 4 -->
    <g style="fill:#262626;" transform="translate(389.832969 205.817625)scale(0.11 -0.11)">
     <use xlink:href="#ArialMT-52"/>
    </g>
   </g>
   <g id="PathCollection_13">
    <g>
     <use style="fill:#937860;stroke:#ffffff;stroke-width:0.75;" x="370.032969" xlink:href="#mf5900208dc" y="218.489969"/>
    </g>
   </g>
   <g id="text_25">
    <!-- 5 -->
    <g style="fill:#262626;" transform="translate(389.832969 221.377469)scale(0.11 -0.11)">
     <use xlink:href="#ArialMT-53"/>
    </g>
   </g>
   <g id="PathCollection_14">
    <g>
     <use style="fill:#da8bc3;stroke:#ffffff;stroke-width:0.75;" x="370.032969" xlink:href="#m405b651c00" y="234.049812"/>
    </g>
   </g>
   <g id="text_26">
    <!-- 6 -->
    <g style="fill:#262626;" transform="translate(389.832969 236.937312)scale(0.11 -0.11)">
     <use xlink:href="#ArialMT-54"/>
    </g>
   </g>
  </g>
 </g>
 <defs>
  <clipPath id="p179ed0eb44">
   <rect height="296.58" width="297.363817" x="58.577683" y="16.96"/>
  </clipPath>
 </defs>
</svg>
